<svg id="Layer_1" data-name="Layer 1" xmlns="http://www.w3.org/2000/svg" viewBox="0 0 1919.01 1110"><defs><style>.cls-1{fill:#333232;opacity:0.9;}</style></defs><title>footer_bar</title><path class="cls-1" d="M1919.32,1.6c-33.94-10.79-73.76,36.73-160,36.08-74.24-.55-85.37-36.08-160-36.08-75.15,0-84.74,36.08-160,36.08s-84.74-36.08-160-36.08-84.84,36.08-160,36.08S1034.59,1.6,959.32,1.6c-75.08,0-84.55,35.94-160,36.08-75.07.15-84.57-35.41-160-35.41s-84.92,35.56-160,35.41c-75.44-.14-84.92-36.09-160-36.08-74.63,0-85.76,35.52-160,36.08C73.06,38.34,33.12-9.21-.68,1.6-25.23,9.45-40.14,46.06-.68,170h.37V402h-3v709h1921V670h2V170h.63C1959.17,46,1944,9.44,1919.32,1.6Z"/></svg>
