<svg id="Layer_1" data-name="Layer 1" xmlns="http://www.w3.org/2000/svg" viewBox="0 0 212.6 212.6"><defs><style>.cls-1{fill:#fff;}.cls-2{fill:none;stroke:#143b64;stroke-miterlimit:10;stroke-width:9px;}.cls-3{fill:#ea8891;}.cls-4{fill:#e5b5bf;}</style></defs><title>hosomaki_icon</title><path class="cls-1" d="M205.22,102.21c2.3,54.63-40.78,100.23-96.21,101.84S7.93,163.78,7.05,110.5,49.25,11.62,103.26,8.66,202.91,47.58,205.22,102.21Z"/><path class="cls-2" d="M205.22,102.21c2.3,54.63-40.78,100.23-96.21,101.84S7.93,163.78,7.05,110.5,49.25,11.62,103.26,8.66,202.91,47.58,205.22,102.21Z"/><path class="cls-3" d="M61.79,107.68l14.13-34a76,76,0,0,1-18.27,4.77L43.07,110.83c8.21,19.78,21.72,35.37,38.43,42.73L63,124.94C59.91,120.14,59.43,113.52,61.79,107.68Z"/><path class="cls-3" d="M117.83,104.1l17.9-32.19a78.72,78.72,0,0,1-7.63-13.06c-1.79-4-5.72-5.83-9.86-5.67L91.61,106.82c-2.22,4.67-2,10.19.65,14l24.22,35.91a90.79,90.79,0,0,0,22.7-7.64l-20.5-26.07C114.77,118.08,114.41,110.44,117.83,104.1Z"/><path class="cls-3" d="M88.91,105.31,114.26,54a13,13,0,0,0-1.73.74L96.29,63.23a122.06,122.06,0,0,1-16.18,8.71L64.58,109.06a14.89,14.89,0,0,0,1,13.52l21.29,33a55.94,55.94,0,0,0,24,2.12c.67-.08,1.32-.19,2-.29l-23-34.15C86.43,118.33,86.09,111.28,88.91,105.31Z"/><path class="cls-3" d="M41,105.38c.16.45.33.88.49,1.32L54,78.84C43.45,80,36.94,94.11,41,105.38Z"/><path class="cls-3" d="M148.57,118.67l13.81,15q3.09-2.7,6-5.64c8.54-8.58,8.23-23.1-1.08-27.81a77.16,77.16,0,0,1-13.09-8.55l-6.67,12.06C144.75,108.82,145.19,115,148.57,118.67Z"/><path class="cls-3" d="M144.91,102.21l6.91-12.53a99.93,99.93,0,0,1-14.08-15l-17.3,31c-2.69,5-2.41,10.94.66,14.85l21.22,27a102.56,102.56,0,0,0,17.39-11.62L146.26,121.3C141.94,116.59,141.37,108.72,144.91,102.21Z"/><path class="cls-4" d="M148.57,118.67c-3.38-3.69-3.82-9.85-1-14.94l6.67-12.06c-.81-.65-1.6-1.32-2.38-2l-6.91,12.53c-3.54,6.51-3,14.38,1.35,19.09l13.45,14.62c.9-.74,1.79-1.48,2.67-2.25Z"/><path class="cls-4" d="M120.44,105.7l17.3-31c-.69-.92-1.37-1.84-2-2.75l-17.9,32.19c-3.42,6.34-3.06,14,.85,19l20.5,26.07c1-.51,2.1-1,3.14-1.59l-21.22-27C118,116.64,117.75,110.66,120.44,105.7Z"/><path class="cls-4" d="M91.61,106.82l26.63-53.64a13.57,13.57,0,0,0-4,.78L88.91,105.31c-2.82,6-2.48,13,.85,17.94l23,34.15c1.23-.18,2.46-.39,3.68-.63L92.26,120.86C89.65,117,89.39,111.49,91.61,106.82Z"/><path class="cls-4" d="M54.42,78.77c-.16,0-.31,0-.47.07L41.45,106.7c.52,1.39,1.06,2.77,1.62,4.13L57.65,78.44C56.57,78.58,55.49,78.69,54.42,78.77Z"/><path class="cls-4" d="M64.58,109.06,80.11,71.94c-1.4.61-2.8,1.19-4.19,1.73l-14.13,34c-2.36,5.84-1.88,12.46,1.23,17.26L81.5,153.56c1.74.76,3.52,1.43,5.32,2l-21.29-33A14.89,14.89,0,0,1,64.58,109.06Z"/></svg>
