<svg id="Layer_1" data-name="Layer 1" xmlns="http://www.w3.org/2000/svg" viewBox="0 0 945 890"><defs><style>.cls-1{fill:#e8868f;}</style></defs><title>logo_splash_video</title><circle class="cls-1" cx="341.08" cy="463.41" r="339.99"/><path d="M237.94,575.89c-2.82,1.13-3.76-2.26-4.51-3.95C236.25,572.13,236.62,574.39,237.94,575.89Zm46.45-114.15c4.14,1.12,7.15,3.38,8.46,7.89l3.39,10.72c1.13,3,0,5.83-.38,8.65-.18,1.32-2.06,1.32-2.82,2.64-.75,1.88-2.07,3.57-3,5.45-1.12-.38-.94-1.69-1.69-2.26-1.32.38-.56,2.07-1.69,2.64-.19.19-.38.19-.57-.19-3-3.95-4.7-8.28-3.76-13.35a15.37,15.37,0,0,0-.56-7.71c-.94-3.58-5.83-7.9-9.22-6.59-1.88.57-3.76,1.51-5.64,2.26-2.07.94-3.19,3-4.14,4.89s-1.69,5.27-2.82,7c-1.88,2.07-1.88,7.52.38,9.21,5.64,4.71,9.4,10.91,13.73,16.37,3.38,4.51,7.52,8.08,11.66,11.66a62.77,62.77,0,0,1,9.21,10.72,27.06,27.06,0,0,0,3.58,4.51c4.51,4.32,4.32,10.34,6,16,1.13,3.95.76,8.09.95,12.23,0,1.88-.19,4-2.26,5.08-1.13.56-.94,1.5-1.13,2.44a39.14,39.14,0,0,1-5.64,13.54c-1.13,1.69-2.63,3.2-4.7,3.39a3.91,3.91,0,0,0-2.07,1.31c-1.88,2.45-4.7,4-7.34,5.27-.75.38-1.5.94-2.25.56-2.26-.94-4.14,0-6,.94-5.64,3.2-15.05.76-23.13-4.13-.76-.57-11.85-11.1-12.23-11.66-3.95-5.46,6,4.51,2.26-1.32a10.22,10.22,0,0,1-1.51-5.27c0-2.25-1.88-3.38-2.82-5.07-.37-.76-1.31-1.13-1.5-2.26.75-.57,2.63-1.51,3.76-.38,1.51,1.7,1.88.76,3,1.32,1.13.75,1.32,1.13,2.82,2.26,2.07,1.69,2.45,3.38,3.76,4.89,1.88,2.63,3.95,3.19,6.77,4.51,6.58,2.63,13.17,8.27,19,2.26,3.57-3.77,4.32-7.71,4.32-12.42a67.79,67.79,0,0,0-2.25-13.91A6.59,6.59,0,0,0,275,553c-7.15-10-13-18.43-22-26.33-4.71-3.76-10.35-10.35-12-16.18-.75-3-2.63-5.64-3-8.65a10.55,10.55,0,0,1,.19-4.89c1.5-5.26,2.26-10.9,4.32-16,2.82-7.34,7.9-12.6,14.3-16.93a8.35,8.35,0,0,1,6.39-1.32c3.39.57,6.58-.75,10-1.12A37.43,37.43,0,0,1,284.39,461.74Zm-20.12,67.32c.56-.19-1.51-4.14-2.82-5.64-1.88-2.63-3.95-3.38-4.33-4.7-2.63-1.69-4.7-4.14-7.71-4.89C252.8,519.47,259.57,525.3,264.27,529.06Z"/><path d="M357.92,461.36c1.13-.38,2.82,4.7,3.2,6.39,0-4.7.75-8.08,3.39-.94,1.31,3.39,3,6.77,3.94,10.35.94,4.13,2.64,8.08,3.2,12.22.38,3.2.75,2.26,2.26,5.08,2.63,4.7,2.44,10.15,3.76,15.23a224.36,224.36,0,0,0,8.46,24.64c2.45,6,3.39,12.6,4.7,19.18.38,1.69,0,3.57.38,5.45a167.11,167.11,0,0,0,7,20.69c1.69,4,3.2,8.46,2.82,13.35-.19,2.26-.38,4.71-3.57,5.08a1.67,1.67,0,0,1-1.7,2.07c-.94-.94-2.25-1.13-3.19-3-.38-.75-1.7-.37-1.88-1.31-.76-2.07-3.39-2.64-3.77-1-.75,3.39-4.32,1.32-6.58,1.89-1.5.56-2.44,0-2.82-1.51-2.07-6.21-4.14-12.22-5.64-18.24-1.32-5.08-3.95-9.78-4.89-15-.38-1.88-1.69-2.44-3.39-2.44-7.33.37-13-.19-20.49.75-1.7.19-4.89-.56-6,.75-1.13,1.13-.94,3.2-1.51,4.89-.75,3.58-1.88,6.77-2.25,10.35l-1.51,13a39.94,39.94,0,0,1-.75,4.7c-.38,2.26-1.32,2.83-4.14,2.07-.75-.18-2.07-4.32-2.82-1.31-.38,1.69-1.88-3-1.69-4.89a154.38,154.38,0,0,1,4.51-24.64l.57-2.82c.37-2.63.37-2.45-2.07-3.2-1.32-.37-2.82-.56-3.58-2.07.76-1.69,2.45-1.31,3.77-1.5,4.32-1.13,3.76-.19,4.32-4.51.94-6.4,3.39-14.49,4.14-20.88a203.1,203.1,0,0,1,4.89-26,130.49,130.49,0,0,0,3.2-16.55c.94-5.64,1.88-11.29,2.63-16.74a7.78,7.78,0,0,0-.19-4.14c-.38-1.31-.56-3.19,1.32-3.95s3.76-3,6-1.69C354,462.11,356,461.74,357.92,461.36ZM348.52,493a35,35,0,0,1-1.69,11.66c-1.32,4.71-.76,9.78-2.45,14.48a74.24,74.24,0,0,0-3,14.49c-.75,6.39-1.88,12.78-3,19.18,6.21-.38,13-.57,19-.94a11.06,11.06,0,0,0,3.38-.75c2.82-.57,3-1,2.07-3.58-1.69-4.32-2.25-9-3.57-13.54-1.13-3.76-1.32-7.9-2.63-11.85a65.32,65.32,0,0,1-3.2-14.67,67.46,67.46,0,0,0-3.76-16.55C348.71,491.64,348.33,492.39,348.52,493Zm29.53,29.91c.37-1.32-1.32-8.09-2.26-8.65C374.28,515.71,377.67,521.73,378.05,522.86Z"/><path d="M445.94,461.36a40.78,40.78,0,0,0,4.51,7.9,18.6,18.6,0,0,1,3,7.52c3.57,13.73,7.15,29.34,10.53,43.07.94,4.32,1.88,8.65,3.39,13.73a60.58,60.58,0,0,0,2.44-11.85c.94-5.83,1.32-11.66,2.45-17.3,1.12-6.4,2.25-12.79,3.76-19,1.13-5.27,1.88-11.47,4.32-16.36,1.32-2.45,3.39-4.51,6-3.95l4.51.94a5.59,5.59,0,0,1,2.83,1.32c2.25,2.25,2.63,2.07,3.94-1.13,0-.19.19-.19.57-.57.94.38,1.69,1.7,3,.57.56-.57,1.69-.19,2.63.19.57.18.94.75,1.51.94,6.58,2.07,7,7.33,7.14,12.78,0,.76-.19,1.51-.19,2.07.94,9.78-.75,19.56-.94,29.15,0,7.71.19,15.61.94,23.32.76,6.4.76,13.17,1.51,19.56.94,8.47.19,16.93.56,25.39.19,3.57.94,7,.75,10.53-.37,4-2.06,5.46-6.2,4.52-.94.56-.57,1.5-.75,2.25-.76,1.51-1.88,1.88-3.58,1.51-4.13-.57-7-3-10.15-5.08-3.76-2.44-4.52-5.64-4.52-9.22-.18-5.45-.56-10.71,0-16.17a42.35,42.35,0,0,0-.37-9.78c-1.13-11.85-.94-23.51-1.88-35.35-.94-11.1-.76-22.2-2.26-33.29l-.56-1.51a21,21,0,0,0-2.64,6.59c-1.31,4.7-3.19,9.4-4.13,14.1-1.88,9.59-4.14,19-4.14,28.78,0,2.06-.57,4.13-.75,6.39-.38,3.2-1.88,6.39-.57,9.59,1.13,3.2-1.5,4.89-2.82,7-.37.75-1.31.37-1.88,0-1.13-.38-2.26-1.13-3.57-.94-.38,1.31-.38,2.44,1.5,2.44,1.88.19,2.45,2.82,3.39,3.95-.75,1.13-1.51.94-2.64,1.13-3.19.38-6.95.19-8.08-1.32-1.51-1.88-1.88-1.69-4-2.82a16.28,16.28,0,0,1-6.58-8.46c-4.52-11.47-8.84-23.13-12.23-35-1.69-6.39-3.38-13-5.26-19.37a50.72,50.72,0,0,0-2.07-6.39c.75,3.76-1.13,7.33-.38,11.09.75,4.52,0,9,.19,13.73.38,7.52.19,15.42.75,22.94.57,6.59.94,13.17,1.88,19.56a45.2,45.2,0,0,1,.75,11.29,157.32,157.32,0,0,0-.37,18.8,3.72,3.72,0,0,1-.38,2.82c-1.5,2.07-2.82,2.45-5.64.94-.75.38-.56,1.51-1.69,1.7-.19-.38-.75-.57-.75-1.13l-.57-10.53.38-21.82a139,139,0,0,0-.94-19.75,327.2,327.2,0,0,1-1.13-40.81c.19-9.59-.19-21.06,0-30.84a15.17,15.17,0,0,0-.19-4.14c-.19-1.5.75-2.25,2.07-2.82a8.79,8.79,0,0,1,6.21.19c1.31-.56,1.31-1.88,2.06-2.63,2.64-2.63,3-3,6.59-1.51,2.06.76,4.32,1.7,5.26,4.33a1,1,0,0,0,1.32.56c.37-1.69-.38-3.57.56-5.07C445.37,460.42,445.75,460.79,445.94,461.36Zm53.78,49.46c1.7-3.76,1.51-10-.37-12.22C497.47,502.92,499.54,506.49,499.72,510.82Z"/><path d="M538.46,575.89c-2.82,1.13-3.76-2.26-4.51-3.95C536.77,572.13,537.15,574.39,538.46,575.89Zm46.46-114.15c4.13,1.12,7.14,3.38,8.46,7.89l3.38,10.72c1.13,3,0,5.83-.37,8.65-.19,1.32-2.07,1.32-2.82,2.64-.76,1.88-2.07,3.57-3,5.45-1.13-.38-.94-1.69-1.7-2.26-1.31.38-.56,2.07-1.69,2.64-.19.19-.37.19-.56-.19-3-3.95-4.7-8.28-3.76-13.35a15.49,15.49,0,0,0-.57-7.71c-.94-3.58-5.83-7.9-9.21-6.59-1.88.57-3.76,1.51-5.64,2.26-2.07.94-3.2,3-4.14,4.89s-1.69,5.27-2.82,7c-1.88,2.07-1.88,7.52.37,9.21,5.64,4.71,9.41,10.91,13.73,16.37,3.39,4.51,7.52,8.08,11.66,11.66a62.82,62.82,0,0,1,9.22,10.72,27,27,0,0,0,3.57,4.51c4.51,4.32,4.33,10.34,6,16,1.13,3.95.75,8.09.94,12.23,0,1.88-.19,4-2.26,5.08-1.13.56-.94,1.5-1.13,2.44A39.14,39.14,0,0,1,597,585.48c-1.13,1.69-2.63,3.2-4.7,3.39a4,4,0,0,0-2.07,1.31c-1.88,2.45-4.7,4-7.33,5.27-.76.38-1.51.94-2.26.56-2.26-.94-4.14,0-6,.94-5.64,3.2-15,.76-23.13-4.13-.75-.57-11.85-11.1-12.22-11.66-4-5.46,6,4.51,2.25-1.32a10.11,10.11,0,0,1-1.5-5.27c0-2.25-1.88-3.38-2.82-5.07-.38-.76-1.32-1.13-1.51-2.26.75-.57,2.64-1.51,3.76-.38,1.51,1.7,1.88.76,3,1.32,1.13.75,1.32,1.13,2.82,2.26,2.07,1.69,2.45,3.38,3.77,4.89,1.88,2.63,3.94,3.19,6.76,4.51,6.59,2.63,13.17,8.27,19,2.26,3.57-3.77,4.33-7.71,4.33-12.42a67.13,67.13,0,0,0-2.26-13.91,6.48,6.48,0,0,0-1.32-2.82c-7.14-10-13-18.43-22-26.33-4.7-3.76-10.34-10.35-12-16.18-.75-3-2.63-5.64-3-8.65a10.83,10.83,0,0,1,.19-4.89c1.51-5.26,2.26-10.9,4.33-16,2.82-7.34,7.9-12.6,14.29-16.93a8.35,8.35,0,0,1,6.39-1.32c3.39.57,6.59-.75,10-1.12A37.51,37.51,0,0,1,584.92,461.74Zm-20.13,67.32c.57-.19-1.5-4.14-2.82-5.64-1.88-2.63-4-3.38-4.32-4.7-2.64-1.69-4.71-4.14-7.71-4.89C553.32,519.47,560.09,525.3,564.79,529.06Z"/><path d="M636.44,465.5a1,1,0,0,0,1.13.56c2.82-.56,4.7,1.5,6.77,2.63A5.33,5.33,0,0,1,647,473c.18,4,.18,7.71,0,11.47v1.13c.56,6.77-.19,13.73.94,20.69a164.36,164.36,0,0,1,2.63,25.57,3.19,3.19,0,0,0,.75,2.26c4.14-.56,8.46-1.32,12.79-2.07.19,0,.38,0,.38-.19,2.25-3,5.64-1.69,8.65-2.25h1.5c3.57-.38,3.2-.57,4.14-4,1.13-4.14-.38-8.09,0-12.23,1.32-13,.19-26,.56-39.12a48.11,48.11,0,0,0-.56-4.88c-.19-1.13,0-2.45.94-2.83,1.69-.56,2.07-2.25,3.95-2.25,1.5.19,1.88,1.5,2.07,2.63a47.76,47.76,0,0,1,1.13,9,25.08,25.08,0,0,0,.18,3.76c.38,4.32.94,8.65.94,13,.19,4.51,0,8.65.57,13.16,0,.38.37.75,1.31.94.38-10.53-.56-30.47-.56-32.72,0-4.33,3.39,5.07,3.39,8.27.37,7,.56,13.73,1.31,20.5,0,1.51-.37,6.21-.19,7.71.19,6.58-.18,13.17.57,19.75a48.92,48.92,0,0,1-.19,12.79c-.19,1.12.56,2.25.75,3.38a60.53,60.53,0,0,1,.75,15.42V564c1.13,4,.94,8.09,1.13,12.23.19,2.25-.37,4.7-.19,7.14a5.79,5.79,0,0,1-2.25,4.14,8.43,8.43,0,0,0-2.26,4c-.38.94,1.88,1.13.57,2.07-1.51,1.31-2.83,2.82-4.71,3.38a16.64,16.64,0,0,0-3.76,1.7c-2.82-1.51-3.57-3.95-3.2-7a2.75,2.75,0,0,0,.19-1.69c-1.12-5.27-.75-10.72-.75-16,.19-3.2-.75-6.39-.56-9.59a87.69,87.69,0,0,0-.57-10c-.18-1.69-.56-3.76,1.13-5.27.19-.18.19-.94.19-.94-2.26-1.69-1.13-4-1.32-5.83-.18-.94-.56-1.5-1.5-1.5a45.4,45.4,0,0,0-5.08.19c-6.21.19-12.6-.19-19,.75a5.49,5.49,0,0,0-1.7.38c-.75,1.69-.18,3.19,0,4.89,0,2.06.76,4,0,6.2a2.68,2.68,0,0,0,.19,1.69,13.68,13.68,0,0,1,0,6.21,53.47,53.47,0,0,0-.75,10.53c0,2.82.38,4.7.19,7.53-.19,1.5-.57,4.32-.19,5.45.94,2.26,0,4.51.38,6.77.18,1.13-.57,1.69-1.7,1.69-3.76.38-10.15,2.82-11.28-.19-.19-.56-1.13-.37-1.69,1.32-.94,2.63-5.08,1.51-7.9,1.69a6.79,6.79,0,0,1-1.13-3.76c0-5.26-.57-10.34-.75-15.42-.19-3.76.18-7.52.18-11.1-.37-5.83,0-13.35,0-19.37,0-1.88-.37-1.88-2.25-2.44-2.07-.75-4.52-.38-5.83-2.63a16.88,16.88,0,0,1,4.89-1.7c2.44-.75,3-1.69,2.82-4.13a215.84,215.84,0,0,1-.75-24.64c0-12.22.18-24.45,0-36.86a8.36,8.36,0,0,0-.38-3.76,6.78,6.78,0,0,1,.19-5.08c.56-1.13.94-1.5,1.88-1.69C631.18,463.24,634.19,463.24,636.44,465.5Z"/><path d="M744,467.94a20.3,20.3,0,0,1,5.08,12.41c.38,8.28.38,18.43,1.13,27.27.56,6.4.56,12.79,1.32,19.19.37,2.44.37,4.7,1.12,7,1.32,5.46.76,10.72,0,16-1.12,7.52-.94,15-1.31,22.38-.19,3.38.19,6.77-1.51,10a5.16,5.16,0,0,0,.19,3.76c.19,1.13.94,2.25-.56,3.19-.57.38-.19,1.13.18,1.51,1,1.13.38,2.07-.18,3.2-1.51,2.44-1.51,2.44-3.76.94-1.51-.94-3.2-1.13-4,0-4.14,6.39-5.65.56-10.35,1.13a2.39,2.39,0,0,1-2.44-1.89c-.57-2.25-1.51-4.13-1.32-6.58,0-5.08.19-10.15.19-15,0-5.46-1.13-10.53-1.5-15.8-1.13-12.79-.38-25.39-1.13-38-.38-6.58.18-13.35,0-19.75-.38-7.71.18-17.49.37-25.2.19-2.82.19-2.82,3.2-2.82a3.63,3.63,0,0,1,1.32-.19c.56-1.31-.38-2.44,0-3.76.56-.94,1.88-.37,2.63-1.31.37-.38,1.13-.76,1.5-.57C737.62,465.5,741.38,465.12,744,467.94Zm1.51,60.56v4.32c0,.76,1.13,3.2,1.31,4.14l.38,4.14c.19-.75.19-.19.75-2.26a17,17,0,0,0,.19-5.26c0-1.13-.56-3.77-.75-5.08l-.94-7.9A39.1,39.1,0,0,0,745.52,528.5Z"/><path d="M808.7,464.93c.57,2.63,2.82,4.14,3.76,6.77,2.45,7.34,2.83,15.05,5.65,22.38,4.13,11.29,7.14,23.13,11.28,34.42,1.5,4.32,2.45,8.84,3.76,13.16,2.07,7.34,4.33,14.67,6.4,22,.18.37.37.94.94.94a93.76,93.76,0,0,0-.94-28c-.94,1.32-.19,2.64-.38,3.95s.19,2.82-.19,4.14c-1.31-.38-1.13-1.32-1.13-2.07,0-4.7-.18-9.59-.56-14.48,0-2.82.56-5.83.56-8.84,0-3.76-.37-7.33-.56-10.91a74.64,74.64,0,0,1-.38-11.28c.38-9,.57-17.87.19-26.89,0-1.7,1.13-2.82,1.88-3.95.38-.57,1.32-.57,1.88-.57,1.7.19,5.27,3.2,5.46,4.89.18,5.65,1.69,11.29,1.31,17.12s0,11.66-.19,17.68c0,4.51.57,9,.19,13.72-.37,8.28.19,16.55,0,25,0,5.07,1.32,10.34,1.7,15.61.37,6.58,1.88,13,2.25,19.56,0,1.88.57,4.32-.56,5.07-2.45,1.7-.94,3.39-.94,5.08,0,.94.19,1.69.19,2.63a5.43,5.43,0,0,1-3.39,5.46,1.4,1.4,0,0,1-2.07-.75c-1.13-1.51-2.44-1.32-3.95-1.51-3.57-.56-7.14.57-10.34-1.32-2.26,1.13-3.95-.94-6-1.12-2.44-.19-3.38-1.7-4-3.77-1.32-4.7-2.82-9.21-3.95-13.91-1.69-7.34-4.32-14.11-6-21.44-2.07-10-5.45-19.56-8.46-29.34a199.88,199.88,0,0,1-6.2-23.13c-.76-4.7-2.07-9.4-3-14.11-1.32.38-.94,1.13-.94,1.51-.38,15.61-.76,31-.76,46.64,0,11.09,1.13,22.19,1.32,33.47.19,6.21,1.32,12.42,1.69,18.62a101.77,101.77,0,0,1,.19,10.91c-2.63-1.13-4.14-3.2-6.77-3.76-.94-.19-1.5-1.51-1.32-2.63a10.44,10.44,0,0,0-1.31-4.71,7.48,7.48,0,0,1-.94-4.13c-.76-8.84-.76-17.68-1.13-26.71-.19-2.44,0-5.08-.75-7.71a7.52,7.52,0,0,1,0-2.07c.75-10.72-.57-21.63-.38-32.34.19-12.23.19-24.27.19-36.49,0-2.44-.19-5.08-.38-7.71,0-1.51,0-2.26,2.07-2.82,2.63-.57,5.08-1.32,7.71-.19.94.38,2.26-.19,3-.56,4.33-2.07,8.84-1.51,13.16-2.07C808,464.37,808.7,464.56,808.7,464.93ZM842.56,590c-.76-1.51-.95-3.2-3.2-3C839.17,590.37,839.17,590.37,842.56,590Z"/><path d="M902.73,466.25a1.58,1.58,0,0,0,1.32,0c7.9-1.32,16-1.13,23.88-2.45,2.07-.18,4.14-.75,6.21-.75,3.76-.19,7.9,2.63,9.78,6.58a51.81,51.81,0,0,1-13,2.07c-4.32-.19-8.46-.37-12.79-.19-3.95.19-7.9,1.32-11.85,1.51-1.12,0-1.69.75-2.06,1.88-1.32,5.45-.19,10.72.56,16.17.19,1.88,0,3.76,0,5.83-.38,8.09-.75,16.18,0,24.45,6.21-.94,12.22.75,18.24-.19,3-.56,4.7,2.07,7.15,3.76a7.61,7.61,0,0,1-4.14,2.26,19.35,19.35,0,0,0-5.45,1.32c-4.33,1.5-8.84,1.69-13.54,1.88-2.45.19-2.45.19-2.26,2.63.19,4.52.19,9,0,13.73-.19,4.89-.94,10-.56,15a16.86,16.86,0,0,1-.57,5.26,38.51,38.51,0,0,0-.94,13.92c.38,1.88,1.13,2.44,2.82,2.25,1.32,0,2.63-.56,4.14-.18a1.26,1.26,0,0,1,.94,1.31c-2.07,1.88-5.83-.19-8.09,2.64,1.51.75,2.64.18,3.76-.19,6.59-1.69,13.17-2.64,19.75-4.52,3.39-.94,7-.37,10.34-1.12a3.34,3.34,0,0,1,2.64.75c1.13,1.13,2.25,2.07,3.38,3-1.13,1.5-3.19.75-4.51,1.69-.38,1.13.75,1.69,1.13,2.63.94,1.32.56,2.45-1.13,2.45-3-.19-5.64,1.13-8.46,1.88a36,36,0,0,1-6.21.94c-5.83,0-11.47,0-17.11,1.13-1.51.37-2.82.37-3.2,2.63-.19,1.5-1.32,1.69-2.63.56-1.51-1.12-2.82-.56-4.33-.37a122.13,122.13,0,0,1-22,1.5c-1.13,0-2.07-.94-3.2-1.31a1.79,1.79,0,0,1-1.13-1.88c0-1.13.57-1.51,1.51-1.7,3-.94,6-1.31,9.4-3,0-4.32-.19-8.65,0-13.16,1.13-13.92.38-27.08,1.5-41,.94-13.54,1.32-27.27,1.7-40.81.19-6.77-.38-13.54-.38-20.12,0-1.69-.75-2.45-2.26-2.45-2.44,0-2.06-1.31-4.51-1.69A3,3,0,0,1,874,471c3.95-1.32,5.26-1.32,9-2.07a18.61,18.61,0,0,0,.38-3c0-1.88.19-3.38,2.63-3,.19,0,.57,0,.57-.19,3.38-3.19,6.58-1.31,10-.18C899,463.43,901.23,464,902.73,466.25ZM882.8,591.69c3-.38,3-.38,2.63-2.45-.19-1.31.19-4.51-.94-5.83C882.42,585.29,883.17,589.43,882.8,591.69Z"/><path d="M97.65,582.44l12.12,58q-17,95.85-34.08,191.69l-13.24-.83Q80,706.86,97.65,582.44Z"/><path d="M222.19,8.18q-40.63,228.62-81.3,457.23L125,389.3Q152.39,195.47,179.79,1.67Z"/><path d="M30.29,70.74a68.79,68.79,0,0,0-7.47,2.54c.81,5.28,3.15,18.3,4,22.3a52.53,52.53,0,0,1,1.2,9.94c0,2.19-1.05,2.47-2.54.29s-1.6-3-1.62-5.76a103.85,103.85,0,0,0-2.21-21.31C20.18,87.15,16.07,95,10.34,100.12c-1.16,1-2,.53-.83-1.18A66.39,66.39,0,0,0,19.79,74.73c-2.58,1.28-5.71,2.82-9.28,4.8-1.24.6-2.46.7-4.63-.71-1.68-1-1.52-2-.06-2.1,2-.18,9-2.92,14.39-5.26-1.2-6-1.9-8.66-2.89-10.09a38.92,38.92,0,0,1-5.84,2.43c-1.73.55-2.26-.33-.77-1.19,6-3.6,9.52-7.75,9.78-9.14.27-1.61.63-1.89,3.79-.26,3,1.67,3,3.15,1.15,3.73a38.92,38.92,0,0,0-6.52,3.48c3.18.85,3.51,1.92,3,3.92-.18.88-.08,2,.5,6.12,1.63-.75,3-1.38,3.73-1.8a4.62,4.62,0,0,1,4.74-.52C32.19,68.67,32,70.25,30.29,70.74Zm-.45,13.51A24.7,24.7,0,0,1,25,80.4c-1.16-1-1-1.42.5-1.65,3.27-.5,5.25.87,6.06,3.46C32,83.74,31.12,85.05,29.84,84.25ZM54.1,86.43c-.56-.73-1.86-2.52-3.34-4.63-9.11,5-11.26,6.75-13.27,8.84-1.06,1.2-1.87,1.29-3.61-.91C32.54,88,32.4,87.06,33.55,86c.86-.73,1.41-1.55,2.3-4.83s4.29-18.3,1.71-22.66c-1.31-2.14-.38-2.82,2.31-1.8,3.84,1.5,4.27,2.76,3.54,4.17a10.9,10.9,0,0,0-.95,3c-2.12,9.88-4,17.25-6.25,22.14a145.63,145.63,0,0,0,13.47-5.7c-1.33-1.93-2.75-4-3.79-5.68S45,72.28,46.48,73C53.86,76.88,56,80,56.67,83.88,57.25,87.43,55.54,88.34,54.1,86.43Z"/><path d="M18.56,137.42c1.34,1.72,2.74,2.5,5,2.06a28.76,28.76,0,0,0,6.56-2.36,51.14,51.14,0,0,0-.69-8.55c-.51-2.59-1.35-3.27-2.72-3a5.45,5.45,0,0,0-2.15.78l-.32-.43c.21-1.31.71-3,3.5-3.52,2.33-.46,6.1.35,6.54,2.59.26,1.29-.31,1.69-.55,2.87s-.26,2.87-.32,7.62c5-2.62,8-5.18,8.44-8.1l.5-.17c2.13-.28,5.26-.9,5.67,1.14.33,1.7-1.51,3.12-4.43,5.11a87.57,87.57,0,0,1-10.14,5.83c-.19,8.86-1.36,25.34-1.86,30.88-.65,8.39-.81,10.54-3,11-1,.19-1.46-.49-1.88-2.59-.19-1-.37-2.19-.57-3.78a51.32,51.32,0,0,0,2.73-11.91A204.75,204.75,0,0,0,30.2,140.7a26.24,26.24,0,0,1-5.53,1.94c-4.26.85-6.23-2.23-6.69-4.54Zm32.1,11a73.12,73.12,0,0,1,5.84-7.51,21,21,0,0,0-12.07,5.92l-.89-.89a21.57,21.57,0,0,1,14.25-9.25c3.36-.66,6.37.51,6.69,2.14.23,1.15-.3,1.47-1.09,1.63-.51.1-1.15.16-1.72.27-3.19.63-6.75,4.44-9.93,8.39Zm-3,7.6a17.22,17.22,0,0,0-.48,7.44c1.5,7.54,8.67,6.12,13.56,5.15a24.34,24.34,0,0,0,4.1-1.09c1.12-.29,2-.89,2.46-1,1.82-.36,4.18.51,4.49,2.07.39,2-2.38,2.88-7.22,3.84-10.07,2-17.33,1.74-19.08-7.1a16.85,16.85,0,0,1,1.19-9.78Z"/><path d="M61,195.62a4,4,0,0,0,2.24,0c2.16-.43,4.44-.88,4.9,1.15.3,1.49-.73,2.26-3.68,4.12a110.18,110.18,0,0,1-16.14,7.43c.26,6.38.9,16.21,1.35,18.45.14.75.33,1.07.55,1s.26-.2.4-.37c4.19-5.14,10.3-9.52,15.25-10.5,8.19-1.63,13.3,3.29,14.86,11.18,2.19,11-8.2,18.29-26.66,22.37l-.62-1.64c16.5-4.75,24.8-11.77,23.18-20-1.34-6.73-4.26-10.74-10.86-9.43-5.86,1.16-11,6.2-13.84,11.92-.35.92-.23,2.73-1.54,3a4.43,4.43,0,0,1-4.46-3.71c-.26-1.36.28-1.89.38-3.46.2-2.87-.72-12.29-1-17.82a45.06,45.06,0,0,1-5.27,1.47c-5.18,1-7.6-1.32-8.64-4.22l.67-.77c1.39,1.63,3,2.72,7.41,1.85A52.88,52.88,0,0,0,45.09,206a74.66,74.66,0,0,0-.75-8.54c-.41-1.76-1.06-2.69-2.66-2.37a8.42,8.42,0,0,0-1.86.72l-.2-.1c.22-1.88,1.06-3.32,3.1-3.73s5.75-.21,6.2,2c.28,1.42-.49,2-.57,4.28-.07,1.42-.06,4.18-.06,6.58a47.81,47.81,0,0,0,10.77-5.31c1.49-1.15,2-2.17,1.61-3.22Z"/><path d="M45.74,269.84a3,3,0,0,1,2-1.6c2.17-.43,6,2.12,6.7,5.45.3,1.49-.32,2.25-.6,3.51a64.45,64.45,0,0,0-.15,26.09c.88,4.49,2.38,7.58,3.24,7.41s3-11.12,3.81-15.37l1.3.3c-1,8.12-2.23,16.77-1.91,18.4.27,1.36,1,2.21,1.32,4,.27,1.36,0,2.69-.91,2.87-2.51.49-7.22-5.07-9.44-16.29-1.53-7.75-1.59-17-1.46-22.88a37.49,37.49,0,0,0-.27-7.64c-.44-2.25-1.35-4.11-3.58-4Zm24.81-5.48a3.28,3.28,0,0,1,2.8-3.17c2.67-.53,6,.86,6.4,2.76a6.35,6.35,0,0,1-.27,2.53c-.19.81.25,3,.63,5.24.26,1.64.49,3.36.75,5,5-2,5.34-3.18,5.52-4.7,3-.31,5.22-.19,5.56,1.51s-1,2.38-3.73,3.85a53.33,53.33,0,0,1-6.65,2.87c.5,2.52,1.07,4.81,1.42,6.57a80.85,80.85,0,0,0,3.68,13.47c4.06,1.1,11.54,3.93,12.44,8.49a2,2,0,0,1-1.23,2.43c-.69.14-1.6-.32-2.8-1.57a23,23,0,0,0-7.23-4.85c.26,1,.59,2.64.76,3.52.8,4.65-1.59,7.8-7.28,8.93-6.77,1.34-11.65-1.5-12.71-6.87-1-5.1,2.88-9.05,8.79-10.22a20.59,20.59,0,0,1,5.56-.33c-1.06-3.53-3.12-12.16-4.37-18.48a45.23,45.23,0,0,1-7.1,2.11,8.6,8.6,0,0,1-8.31-2.88l.41-1.21a8.15,8.15,0,0,0,6.72,1.07,38.2,38.2,0,0,0,7.57-2.35L76.67,272c-1.21-6.12-1.94-8.31-4.84-7.73a6.5,6.5,0,0,0-1.06.35Zm13.32,38.89a13.3,13.3,0,0,0-6.18-.46c-4.5.89-7.58,3.54-6.88,7.08s4.37,4.71,9.15,3.77c4.32-.86,5.45-2.92,4.55-7.47C84.33,305.28,84.16,304.4,83.87,303.25Z"/><path d="M105.18,352.89c-6.14.65-12.78,2.39-23.7,6.32a57.42,57.42,0,0,1-2.86,10c2.63-.74,9.12-2.87,14.44-5a11.81,11.81,0,0,0-2.17-4.38c-1.3-1.22-.54-2.15,1.82-1.56,3.74,1,3.81,1.93,3.32,3a4.25,4.25,0,0,0,0,1.83c1.92-.73,3.56-1.41,4.42-1.86a6.71,6.71,0,0,1,6.36-.13c1.88.83,1.62,2.5-1.51,2.84a63.42,63.42,0,0,0-8.82,1.75c.68,3.11,2.21,9.66,3.07,13.09,1.13,4.51.76,7.41-1,10.65-.76,1.56-1.32,1.39-2.4.12a16.41,16.41,0,0,0-5.38-3.88c-1.51-.76-1.37-1.49.11-1.5,4.36.19,5.21-.26,5.15-2.37-.09-4.64-.47-7.74-2.45-15.33a86.13,86.13,0,0,0-9.83,3.78c-1.6.88-3.11,1-5.71.42a35.37,35.37,0,0,1-10.44,14.79c-2.33,1.94-2.61,1.43-.58-1.16a63.36,63.36,0,0,0,11.44-24c-3.69,1.37-6.54,2.5-7.61,3.06-3.14,1.47-3.75,1.66-6,1.18s-2.1-1.35-.25-1.85c1.68-.48,7.77-2.53,14.38-5a49.61,49.61,0,0,0,1-5.56,17,17,0,0,1-5.78.65c-1.35-.23-1.75-1.07-.11-1.46,1.29-.33,4-1.37,6.19-2.15.21-1.95.34-3.95.39-6.08-2.34.68-4.45,1.38-6.09,1.77a9.38,9.38,0,0,1-4.08.31c-2-.31-1.86-1-.06-1.54,2.12-.63,7.06-2.24,10.22-3.29,0-3.81-.39-5.86-1.18-7.47-1.09-2.18-.7-3.25,2.77-2.1,2.58.76,3.08,1.51,2.42,3.55a30,30,0,0,0-.67,4.65c8-3.57,9.44-4,11.49-3.76,2.24.26,2.62,1.88.41,2.67-2.42.91-7.35,2.59-12.23,4.19-.12,2.08-.32,4.09-.48,6,7.9-3.4,8.73-3.71,10-3.68,2.24,0,2.6,1.18,1,2.27s-5.44,2.42-11.41,4.52a54.39,54.39,0,0,1-.91,5.55c8.22-3,16.45-5.94,18.08-6.62,3.43-1.52,5.64-1.4,7.69-.6C110.39,350.86,109.86,352.38,105.18,352.89ZM86.3,379.37a16.6,16.6,0,0,1-3.89-5.3c-.57-1.09-.24-1.51.94-1.25,2.9.63,4.34,1.61,4.94,3.76C88.94,379.27,87.55,380.32,86.3,379.37Z"/><path d="M103.18,437.39a3.5,3.5,0,0,0,1.25,2.44c1.08,1,.85,2.23-.87,2.78-1,.34-7.19,2.49-12.08,4.37,1.17,4.43-1,4.38-2.16,1.35-2.24-5.91-4.39-10.22-6.37-11.88-2.26-1.81-2.26-3,2.08-2.32,4.3-1,11.76-4.51,12.9-5.59.94-1,1.8-1.06,4.88-.47,2.63.47,3.13,1.78,2.22,2.88C103.84,432.39,103.47,433.52,103.18,437.39ZM92.45,423.55a11.79,11.79,0,0,1-7.37.69c-1.52-.48-1.72-.93-.17-1.45a52.56,52.56,0,0,0,7.43-3.1c3.85-2,6.26-2.72,7.9-2.48,1.35.22,1.65,1.44.53,2.36A39.05,39.05,0,0,1,92.45,423.55Zm23.83,9a143.7,143.7,0,0,1,2.62,14.67c.39,4.66-.09,7.65-1.66,9.87-1.21,1.65-1.82,1.84-2.77.33a35.89,35.89,0,0,0-5.46-6c-1.64-1.44-1.44-1.9.29-1.54,4,.83,5.09.33,5.09-.87.16-8.15-3.11-29.75-6-38.43-.7-2.05-1.35-2.63-3.15-2.48-2.56.22-9.4,2.7-14.85,5.34-1.12.57-2.12.63-3.68-.4-2.19-1.48-2-1.79-.06-2.11,5.65-1,16.19-5.11,17.91-6.87.93-1,1.94-.95,4.61,0,4.4,1.6,4.7,2.24,3.75,4.9C112.14,411,112.6,416.59,116.28,432.53ZM98.1,431.47c-1.59.6-6.68,2.67-10.75,4.54.94,2.35,2,5.05,3.11,8.21a84.78,84.78,0,0,0,8.47-3.8c1-.55,1.31-2.31.74-7.28C99.49,431.62,99,431.15,98.1,431.47Z"/><path d="M95,479.26a3.82,3.82,0,0,1,2.69-3.15c3.19-.63,6.72,1.07,7.14,3.18.2,1-.84,1.44-.9,4.42s-.12,6-.3,9a42.74,42.74,0,0,1,6-2c8.19-1.62,10.52,3.85,12.4,13.36,1.81,9.11,2.09,25.44-4.8,26.81-1.19.23-2-.89-2.69-2.58-.63-1.36-4.89-4-8.54-6.36l.51-1.3c4.63,2.19,8.53,4,10,3.67.8-.16,1.34-.41,2.06-2.46,1-2.66,1.55-9.77-.17-18.47-1.47-7.41-2.86-11.44-8.55-10.32a32.89,32.89,0,0,0-6.37,2.47c-.62,11.49-2.33,25.54-4.24,33.82-.61,2.88-1.34,4.29-2.25,4.48-1.13.22-2.1-.79-2.63-3.44-.28-1.43.82-3.62,1.45-5.23,1.92-4.34,4-18.46,4.5-28a43.47,43.47,0,0,0-5.2,3.3c-.56.46-1.17,1.85-1.91,2-2.62.52-5.05-2.82-5.54-5.26a3.24,3.24,0,0,1,1.07-3.25L89,494c.07,1.54,1.54,3.58,3.53,3.19a38.31,38.31,0,0,0,7.78-3.1c.1-2.78,0-10.25-.42-12.56-.42-2.11-1.35-2.91-3.56-2.47a5.88,5.88,0,0,0-1.13.29Zm23.64-5.46c7.21,1.46,10,4.87,10.4,6.84a1.92,1.92,0,0,1-1,2.32c-1,.2-1.54-.33-2.23-1.4a18.2,18.2,0,0,0-7.62-6.54Zm2.83,9.82c10.73,1.62,16.24,10.63,17.64,17.7.64,3.26,0,5.43-1.36,5.7-1,.21-2.11-.21-2.59-2.66-1.63-8.23-5.33-16.46-14.1-19.25Zm2.69-15.37c7.25,1.39,10.05,4.79,10.45,6.76.22,1.16-.34,2.19-1,2.31-1,.21-1.6-.32-2.24-1.46a18.24,18.24,0,0,0-7.66-6.46Z"/><path d="M148.2,595.41c-3,.45-3.69.17-6.54-2.59a90,90,0,0,1-14.56-16.47c.14,11.14-3.21,19.92-13.65,24.82-1.74.76-2.09.2-.47-1.18,7.49-6.08,12.84-14.27,10.57-29.64-2.19.92-4.23,2-6,2.89-2.77,1.54-3.88,1.62-5.83,1-2.21-.69-2.42-1.14-.11-2,2.82-1,7.36-2.87,11.55-4.69-2.11-12.44-3.35-16-5-17.81-2.65-2.94-1.06-3.54,2.77-2.74,3,.6,3.67,1.25,3.38,3.64-.14,1.09,0,2.61,1.83,15.53a76.57,76.57,0,0,0,7.54-3.76c3.39-2.29,5.93-2.87,7.76-2,3.47,1.43,3.62,3.1-.29,3.94A97.19,97.19,0,0,0,126.53,569c.18,1.52.32,2.83.41,4.16A62.44,62.44,0,0,0,137,583.58c5.92,4.83,11.57,6.46,20.37,7.33,2.23.2,2.6,1.18.55,1.87A75.48,75.48,0,0,1,148.2,595.41Z"/><path d="M140.39,663.4a71.45,71.45,0,0,0-6.37-6.16A31.39,31.39,0,0,1,124.7,669c-1.6,1.16-2,.54-.53-1.17a61,61,0,0,0,7.91-12.3,25.43,25.43,0,0,0-3.76-2.86c-1.35-.86-1.64-1.44-1.78-3.6-.07-1.89-.2-3.71-.28-5.31a41.6,41.6,0,0,0-5.62,3.58c-1.6,1.45-2.55,1.43-4.58.13-2.37-1.51-2.19-2.67.31-2.89,1.86-.15,4.07-.94,9.76-3.27-.78-14.12-1.48-17-3-19-1.15-1.33-.59-2.36.85-1.94a10.57,10.57,0,0,1,3.61,1.76,2.93,2.93,0,0,1,1,3.25c-.13.8-.27,5.78-.23,14.95l5.41-2.27a27,27,0,0,0-.65-3.55c-.45-1.39,0-1.68,1.58-1,2.71,1.15,3,2.22,2.57,3.72a13.93,13.93,0,0,0-.31,3.24,41.86,41.86,0,0,1-1.89,14c5.31,3.26,6.81,5.15,7.31,7.67S141.82,665,140.39,663.4Zm-12-20.86c.07,2.17.05,4.44.08,7,0,1,.09,1.33.81,1.68,1.36.65,2.57,1.33,3.64,2a44.26,44.26,0,0,0,1-13.55Zm34.74-4.63a64.71,64.71,0,0,0-9.24,2.05A62,62,0,0,1,157,651.21c1.51,8.24,1.68,12.94-.61,17.21-1.06,1.83-1.61,1.73-2.35.68a26.81,26.81,0,0,0-5.28-5.17c-1.45-1.06-1.52-1.68.58-1.25,4.62.92,5.29-.13,5.16-6.18a64,64,0,0,0-3.17-15.69,59.19,59.19,0,0,0-7.55,3.06c-2.81,1.33-3.77,1.59-4.94,1-1.71-.86-1.63-1.37.16-1.87,1.34-.4,6.62-2.44,11.49-4.39-.95-2.42-2.06-4.11-3-4.57-1.71-.86-2.12-1.13-2.1-1.63,0-.71,2.11-1,3.41-.39a56.91,56.91,0,0,0,2.82-9c.39-1.63.05-2.13-1.63-1.37A48.31,48.31,0,0,0,143,626a4,4,0,0,1-4,.23c-2.23-.83-2.42-1.22-.24-1.86,3-.87,8.83-3.45,10.82-5,1.83-1.5,2.46-1.62,5.41-.44,3.59,1.41,3.86,2.77,2.36,3.84-1.87,1.29-2.85,2.33-7.75,9.8a15.91,15.91,0,0,1,3.31,5.07c2.72-1.18,5.07-2.14,6.2-2.71,2.42-1.19,5-1.76,6.93-.53C169.08,636.31,167.93,637.39,163.13,637.91Z"/><path d="M172.65,698.51c1.08-.22,2.07,0,2.27,1,.24,1.22-1.3,2.66-3.55,4.17a74.48,74.48,0,0,1-11.73,6.13c2.52,4.09,6.65,7.3,9.14,7.94a4,4,0,0,1,3.34,3.15,1.94,1.94,0,0,1-1.44,2.55c-1.2.24-2.46-.78-3.72-1.17a19.78,19.78,0,0,0-8.77-.1c-9.62,1.91-11.94,6.89-11.13,11,1.06,5.37,6.47,6.7,16.14,4.79l.4-.08c5.22-1.11,7.05-2.6,8-2.79,2.22-.44,4.37.26,4.69,1.89.39,2-4.18,3.66-11.69,5.15-12.58,2.49-19.32-.2-20.87-7.73-1.14-6.07,4.2-12.21,13.91-14.27a29.92,29.92,0,0,1,7-.47l.17-.32a25.78,25.78,0,0,1-7.84-8.26c-5,2.18-10.08,4.32-13.73,5-4.55.91-7.67,0-10.45-3.22l.56-1c2.93,2.24,6.14,2,9.16,1.43a63,63,0,0,0,13-4.63c-1.49-2.74-3.17-6.15-4-8.18a57.32,57.32,0,0,1-9.63,3.32c-3,.6-5.25-.23-7.75-2.7l.44-1.08a8.44,8.44,0,0,0,6.31,1.15,51.6,51.6,0,0,0,9.41-3.27c-.75-1.69-1.73-4-2.3-5.34-1.32-3.06-3.14-2.7-4.11-2.5a2.55,2.55,0,0,0-1.95,1.16l-.38-.14c-.44-2.17.9-4.06,4.31-4.81,2.73-.54,4.4.47,4.66,1.76.13.68.16,1.1.29,1.78a49.12,49.12,0,0,0,2.36,6.81c7-3.22,8.42-4.92,8.12-6.76a10.35,10.35,0,0,1,1.41-.35c2.5-.5,3.9,0,4.1,1s-.72,2.05-2.69,3.43a72.3,72.3,0,0,1-9.93,5.36,53.81,53.81,0,0,0,3.95,8,38.66,38.66,0,0,0,8.23-4.73c1-.69,1.52-1.29,1.4-1.91-.07-.34-.37-.63-.9-1l.56-1a7.27,7.27,0,0,0,3.59.21Z"/><path d="M143.64,768.46a4,4,0,0,0,4.64,2.82,20.66,20.66,0,0,0,4.36-1.57c4.28-2,17.41-7.62,25-10.17a7.46,7.46,0,0,0,3.54-2.4c4.94.15,7,1,7.42,3.12.21,1.09-.75,1.57-2.23,1.86-1.26.25-2.83.35-4.26.63-6.08,1.21-12.36,9.8-14.21,16.31-1.2,3.77-1.52,9.91-.38,15.68,1.92,9.66,7.39,11.33,14,11.14,1.65,0,3.59-.71,4.41-.45,2.12.57,3.12,1.71,3.4,3.14.23,1.16-.59,1.81-2.24,2.14a15.62,15.62,0,0,1-1.73.2c-14.26.85-19-4-21.2-15.36-2.58-13,3.52-24.93,10.61-32.13l-.1-.19c-6.49,2.14-20.34,8.62-22.61,11.83a4.17,4.17,0,0,1-2.37,1.74c-2.45.48-6.25-2.58-6.77-5.23a3.86,3.86,0,0,1,.38-3.11Zm34.88,6.86c7.27,1.46,9.72,4.57,10.11,6.54.23,1.16-.28,2.18-1,2.31-1,.19-1.56-.39-2.19-1.47a16.89,16.89,0,0,0-7.38-6.24Zm4.71-7c7.26,1.46,9.67,4.66,10.06,6.63.23,1.15-.24,2.09-.92,2.23-1,.2-1.56-.4-2.24-1.47a16.41,16.41,0,0,0-7.37-6.16Z"/><path d="M174.31,829.27a3.72,3.72,0,0,1,3.05-3.43c2.79-.55,6.29.73,6.68,2.7a8,8,0,0,1-.22,2.73,36.74,36.74,0,0,0,.91,5.82c3.63-1.07,7.18-2,8.93-2.4,2.36-.61,3.43-1.46,4-2.85,3.45.38,7.19,1.33,7.59,3.37.14.68-.68,1.34-1.42,1.48-1.76.35-4.09,0-7.14.36-1,.12-2.24.37-3.6.64-2.68.53-5.79,1.22-7.91,1.85.36,1.83,2,10.76,2.53,12.78,1.48,1.82,2.73,4.54,3.77,9.78,2.11,10.67-1.15,19.86-12.25,26.23l-1-1.23c7.91-5.73,10.9-14,9.93-20.89a7.36,7.36,0,0,1-6,5c-5.06,1-9.62-2.9-10.79-8.81-1.29-6.53,1.89-12.25,7.18-13.29A7.35,7.35,0,0,1,184,850c-.7-3.54-1.47-7.13-2.06-9.48-5.74,1.77-13,4.41-17.33,7.1-1.26.82-1.35,1.54-2.66,1.8-2.12.35-5.92-2.43-6.45-5.08a3.89,3.89,0,0,1,.44-2.84l.34-.07c.32,1,1.48,3.88,5.75,3,2.84-.56,16.32-5.35,19.38-6.31-2-8.23-2.32-9.64-5.39-9a11.79,11.79,0,0,0-1.51.44Zm12,28c-.57-2.86-3.29-6.42-7.27-5.63-3.24.65-5.49,4.2-4.36,9.91.94,4.76,4.61,6.86,7.23,6.34C186.85,866.91,187.44,863,186.31,857.27Z"/></svg>
