<svg id="Layer_1" data-name="Layer 1" xmlns="http://www.w3.org/2000/svg" viewBox="0 0 600 600"><defs><style>.cls-1{fill:#e8868f;}.cls-2{fill:#fff;}</style></defs><title>logo_v2</title><circle class="cls-1" cx="237.07" cy="315.23" r="160.12"/><path class="cls-2" d="M188.49,368.2c-1.32.53-1.77-1.06-2.12-1.86C187.7,366.43,187.87,367.49,188.49,368.2Zm21.88-53.76a5.17,5.17,0,0,1,4,3.72l1.6,5c.53,1.42,0,2.75-.18,4.07-.09.62-1,.62-1.33,1.24-.35.89-1,1.69-1.41,2.57-.54-.17-.45-.8-.8-1.06-.62.18-.27,1-.8,1.24-.09.09-.18.09-.26-.09a7.73,7.73,0,0,1-1.78-6.29,7.25,7.25,0,0,0-.26-3.63c-.44-1.68-2.75-3.72-4.34-3.1-.89.27-1.77.71-2.66,1.06a4.6,4.6,0,0,0-1.95,2.31c-.44.88-.79,2.48-1.32,3.27-.89,1-.89,3.55.17,4.34,2.66,2.22,4.43,5.14,6.47,7.71a35.63,35.63,0,0,0,5.49,5.49,29.65,29.65,0,0,1,4.34,5.05,12.42,12.42,0,0,0,1.68,2.12c2.13,2,2,4.87,2.83,7.53a24.5,24.5,0,0,1,.45,5.76,2.4,2.4,0,0,1-1.07,2.39c-.53.26-.44.71-.53,1.15a18.39,18.39,0,0,1-2.65,6.38,3.17,3.17,0,0,1-2.22,1.59,1.82,1.82,0,0,0-1,.62,9.64,9.64,0,0,1-3.46,2.48c-.35.18-.7.44-1.06.27a3.18,3.18,0,0,0-2.83.44c-2.66,1.5-7.09.35-10.9-1.95-.35-.27-5.57-5.23-5.75-5.49-1.86-2.57,2.83,2.12,1.06-.62a4.78,4.78,0,0,1-.71-2.48c0-1.06-.88-1.59-1.33-2.39-.17-.36-.62-.53-.7-1.06.35-.27,1.24-.71,1.77-.18.71.8.88.35,1.41.62s.62.53,1.33,1.06c1,.8,1.15,1.6,1.77,2.3.89,1.24,1.86,1.51,3.19,2.13,3.1,1.24,6.2,3.9,9,1.06a7.68,7.68,0,0,0,2-5.84,31.21,31.21,0,0,0-1.06-6.56,3.09,3.09,0,0,0-.62-1.33c-3.36-4.69-6.11-8.67-10.36-12.39-2.21-1.78-4.87-4.88-5.67-7.62-.35-1.42-1.24-2.66-1.42-4.07a5.25,5.25,0,0,1,.09-2.31c.71-2.48,1.07-5.13,2-7.52a16.93,16.93,0,0,1,6.73-8,4,4,0,0,1,3-.62c1.6.27,3.1-.35,4.69-.53A18.24,18.24,0,0,1,210.37,314.44Zm-9.48,31.71c.27-.09-.71-1.95-1.33-2.66-.88-1.24-1.86-1.59-2-2.21-1.24-.8-2.22-1.95-3.63-2.31C195.49,341.63,198.68,344.38,200.89,346.15Z"/><path class="cls-2" d="M245,314.26c.53-.17,1.33,2.22,1.5,3,0-2.22.36-3.81,1.6-.45A46.09,46.09,0,0,1,250,321.7c.44,1.95,1.24,3.81,1.5,5.76.18,1.51.36,1.06,1.07,2.39,1.24,2.22,1.15,4.78,1.77,7.18a106.45,106.45,0,0,0,4,11.6,49.05,49.05,0,0,1,2.22,9c.17.8,0,1.68.17,2.57A79.08,79.08,0,0,0,264,370a13.31,13.31,0,0,1,1.33,6.29c-.09,1.06-.18,2.21-1.68,2.39a.78.78,0,0,1-.8,1c-.44-.44-1.06-.53-1.51-1.41-.17-.36-.79-.18-.88-.62-.35-1-1.59-1.24-1.77-.45-.36,1.6-2,.62-3.1.89a.89.89,0,0,1-1.33-.71c-1-2.92-2-5.76-2.66-8.59-.62-2.39-1.86-4.6-2.3-7.08a1.4,1.4,0,0,0-1.59-1.16c-3.46.18-6.11-.08-9.66.36-.79.09-2.3-.27-2.83.35s-.44,1.51-.71,2.31a49.25,49.25,0,0,0-1.06,4.87l-.71,6.11a18.83,18.83,0,0,1-.36,2.21c-.17,1.06-.61,1.33-1.94,1-.36-.09-1-2-1.33-.62-.18.79-.89-1.42-.8-2.31a71.42,71.42,0,0,1,2.13-11.6l.26-1.33c.18-1.24.18-1.15-1-1.5-.62-.18-1.33-.27-1.68-1,.35-.79,1.15-.62,1.77-.71,2-.53,1.77-.08,2-2.12.45-3,1.6-6.82,1.95-9.83a96,96,0,0,1,2.3-12.22,59.59,59.59,0,0,0,1.51-7.8c.44-2.65.89-5.31,1.24-7.88a3.6,3.6,0,0,0-.09-1.95c-.18-.62-.26-1.5.62-1.86s1.77-1.41,2.84-.79A4.44,4.44,0,0,0,245,314.26Zm-4.43,14.88a16.24,16.24,0,0,1-.8,5.49c-.62,2.22-.35,4.61-1.15,6.82a34.83,34.83,0,0,0-1.41,6.82c-.36,3-.89,6-1.42,9,2.92-.18,6.11-.27,8.94-.45a5.06,5.06,0,0,0,1.6-.35c1.33-.27,1.42-.44,1-1.68-.8-2-1.06-4.25-1.68-6.38-.53-1.77-.62-3.72-1.24-5.58a31,31,0,0,1-1.51-6.91,31.29,31.29,0,0,0-1.77-7.79C240.66,328.52,240.48,328.88,240.57,329.14Zm13.91,14.08c.17-.62-.62-3.8-1.07-4.07C252.7,339.86,254.3,342.69,254.48,343.22Z"/><path class="cls-2" d="M286.45,314.26a19.46,19.46,0,0,0,2.12,3.72,8.74,8.74,0,0,1,1.42,3.55c1.68,6.46,3.37,13.81,5,20.28.44,2,.89,4.07,1.59,6.46a28.67,28.67,0,0,0,1.16-5.58c.44-2.74.62-5.49,1.15-8.14.53-3,1.06-6,1.77-8.95.53-2.48.88-5.4,2-7.7.62-1.15,1.59-2.13,2.83-1.86l2.13.44a2.64,2.64,0,0,1,1.32.62c1.07,1.06,1.24,1,1.86-.53,0-.09.09-.09.27-.27.44.18.8.8,1.42.27.26-.27.79-.09,1.24.09.26.09.44.35.7.44,3.1,1,3.28,3.45,3.37,6,0,.36-.09.71-.09,1,.44,4.6-.35,9.21-.44,13.72,0,3.63.09,7.35.44,11,.36,3,.36,6.2.71,9.21.44,4,.09,8,.27,12a48.63,48.63,0,0,1,.35,5c-.18,1.86-1,2.57-2.92,2.13-.45.26-.27.7-.36,1.06a1.31,1.31,0,0,1-1.68.71c-1.95-.27-3.28-1.42-4.78-2.39a4.62,4.62,0,0,1-2.13-4.34,55.37,55.37,0,0,1,0-7.62,20.07,20.07,0,0,0-.17-4.6c-.54-5.59-.45-11.08-.89-16.66-.44-5.22-.35-10.45-1.06-15.67l-.27-.71a10,10,0,0,0-1.24,3.1c-.62,2.21-1.5,4.43-2,6.64-.88,4.52-1.95,8.95-1.95,13.55,0,1-.26,1.95-.35,3-.18,1.51-.88,3-.27,4.52s-.7,2.3-1.32,3.28c-.18.35-.62.17-.89,0a3.73,3.73,0,0,0-1.68-.45c-.18.62-.18,1.16.71,1.16s1.15,1.32,1.59,1.86c-.35.53-.71.44-1.24.53-1.5.17-3.28.09-3.81-.62-.71-.89-.88-.8-1.86-1.33a7.74,7.74,0,0,1-3.1-4c-2.12-5.4-4.16-10.89-5.75-16.47-.8-3-1.6-6.11-2.48-9.12a23.31,23.31,0,0,0-1-3c.36,1.77-.53,3.45-.17,5.22.35,2.13,0,4.25.08,6.47.18,3.54.09,7.26.36,10.8.26,3.1.44,6.2.88,9.21a21.19,21.19,0,0,1,.36,5.32,72.63,72.63,0,0,0-.18,8.85,1.74,1.74,0,0,1-.18,1.33c-.7,1-1.32,1.15-2.65.44-.36.18-.27.71-.8.8-.09-.18-.35-.26-.35-.53l-.27-5,.18-10.27a64.38,64.38,0,0,0-.45-9.3,156.19,156.19,0,0,1-.53-19.22c.09-4.52-.09-9.92,0-14.52a7.1,7.1,0,0,0-.09-1.95c-.08-.71.36-1.07,1-1.33a4.05,4.05,0,0,1,2.92.09c.62-.27.62-.89,1-1.24,1.24-1.24,1.41-1.42,3.1-.71a3.53,3.53,0,0,1,2.47,2,.5.5,0,0,0,.62.26c.18-.8-.17-1.68.27-2.39C286.18,313.82,286.36,314,286.45,314.26Zm25.33,23.3c.8-1.77.71-4.7-.18-5.76C310.71,333.84,311.69,335.52,311.78,337.56Z"/><path class="cls-2" d="M330,368.2c-1.33.53-1.78-1.06-2.13-1.86C329.23,366.43,329.41,367.49,330,368.2Zm21.87-53.76a5.18,5.18,0,0,1,4,3.72l1.59,5c.53,1.42,0,2.75-.18,4.07-.09.62-1,.62-1.33,1.24-.35.89-1,1.69-1.41,2.57-.53-.17-.45-.8-.8-1.06-.62.18-.27,1-.8,1.24-.09.09-.17.09-.26-.09a7.69,7.69,0,0,1-1.77-6.29,7.37,7.37,0,0,0-.27-3.63c-.44-1.68-2.74-3.72-4.34-3.1-.89.27-1.77.71-2.66,1.06a4.53,4.53,0,0,0-1.94,2.31c-.45.88-.8,2.48-1.33,3.27-.89,1-.89,3.55.17,4.34,2.66,2.22,4.43,5.14,6.47,7.71a35.63,35.63,0,0,0,5.49,5.49,29.65,29.65,0,0,1,4.34,5.05,12.42,12.42,0,0,0,1.68,2.12c2.13,2,2,4.87,2.84,7.53a25,25,0,0,1,.44,5.76,2.41,2.41,0,0,1-1.06,2.39c-.54.26-.45.71-.54,1.15a18.39,18.39,0,0,1-2.65,6.38,3.15,3.15,0,0,1-2.22,1.59,1.86,1.86,0,0,0-1,.62,9.6,9.6,0,0,1-3.45,2.48c-.36.18-.71.44-1.07.27a3.19,3.19,0,0,0-2.83.44c-2.66,1.5-7.09.35-10.89-1.95-.36-.27-5.58-5.23-5.76-5.49-1.86-2.57,2.83,2.12,1.06-.62a4.88,4.88,0,0,1-.71-2.48c0-1.06-.88-1.59-1.32-2.39-.18-.36-.62-.53-.71-1.06.35-.27,1.24-.71,1.77-.18.71.8.88.35,1.41.62s.62.53,1.33,1.06c1,.8,1.15,1.6,1.77,2.3.89,1.24,1.86,1.51,3.19,2.13,3.1,1.24,6.2,3.9,8.95,1.06a7.68,7.68,0,0,0,2-5.84,31.21,31.21,0,0,0-1.06-6.56,3.09,3.09,0,0,0-.62-1.33c-3.36-4.69-6.11-8.67-10.36-12.39-2.21-1.78-4.87-4.88-5.67-7.62-.35-1.42-1.24-2.66-1.41-4.07a5.11,5.11,0,0,1,.08-2.31c.71-2.48,1.07-5.13,2-7.52a16.93,16.93,0,0,1,6.73-8,4,4,0,0,1,3-.62c1.6.27,3.1-.35,4.7-.53A18.18,18.18,0,0,1,351.9,314.44Zm-9.48,31.71c.27-.09-.7-1.95-1.32-2.66-.89-1.24-1.86-1.59-2-2.21-1.24-.8-2.22-1.95-3.63-2.31C337,341.63,340.21,344.38,342.42,346.15Z"/><path class="cls-2" d="M376.17,316.21c.17.27.26.27.53.27,1.33-.27,2.21.71,3.19,1.24a2.49,2.49,0,0,1,1.24,2c.09,1.86.09,3.63,0,5.4v.53c.26,3.19-.09,6.46.44,9.74a77.12,77.12,0,0,1,1.24,12.05,1.51,1.51,0,0,0,.35,1.06c1.95-.27,4-.62,6-1,.09,0,.17,0,.17-.08,1.07-1.42,2.66-.8,4.08-1.07h.71c1.68-.17,1.5-.26,1.94-1.86.54-1.95-.17-3.8,0-5.75.62-6.11.09-12.22.27-18.42a22.83,22.83,0,0,0-.27-2.31c-.08-.53,0-1.15.45-1.32.79-.27,1-1.07,1.86-1.07.71.09.88.71,1,1.24a22.06,22.06,0,0,1,.53,4.25,11.09,11.09,0,0,0,.09,1.77c.18,2,.44,4.08.44,6.11s0,4.08.27,6.2c0,.18.18.36.62.45.18-5-.27-14.35-.27-15.41,0-2,1.6,2.39,1.6,3.89.18,3.28.26,6.47.62,9.66,0,.71-.18,2.92-.09,3.63.09,3.1-.09,6.2.27,9.3a23.34,23.34,0,0,1-.09,6c-.09.53.26,1.06.35,1.59a28.61,28.61,0,0,1,.36,7.27v1a25.07,25.07,0,0,1,.53,5.76c.08,1.06-.18,2.21-.09,3.36a2.72,2.72,0,0,1-1.06,1.95,3.89,3.89,0,0,0-1.07,1.86c-.17.44.89.53.27,1a6.49,6.49,0,0,1-2.22,1.6,7.69,7.69,0,0,0-1.77.8,2.91,2.91,0,0,1-1.5-3.28,1.38,1.38,0,0,0,.09-.8,35.22,35.22,0,0,1-.36-7.53c.09-1.5-.35-3-.26-4.51a41.14,41.14,0,0,0-.27-4.7,2.58,2.58,0,0,1,.53-2.48c.09-.08.09-.44.09-.44-1.06-.8-.53-1.86-.62-2.74-.09-.45-.27-.71-.71-.71a21.22,21.22,0,0,0-2.39.09,75,75,0,0,0-8.94.35,2.51,2.51,0,0,0-.8.18,4,4,0,0,0,0,2.3,8.18,8.18,0,0,1,0,2.92,1.24,1.24,0,0,0,.09.8,6.68,6.68,0,0,1,0,2.92,24.74,24.74,0,0,0-.36,5c0,1.33.18,2.21.09,3.54a8.72,8.72,0,0,0-.09,2.57c.45,1.06,0,2.13.18,3.19.09.53-.27.8-.8.8-1.77.17-4.78,1.33-5.31-.09-.09-.27-.53-.18-.8.62-.44,1.24-2.39.71-3.72.8a3.28,3.28,0,0,1-.53-1.78c0-2.48-.26-4.87-.35-7.26-.09-1.77.09-3.54.09-5.22-.18-2.75,0-6.29,0-9.13,0-.88-.18-.88-1.07-1.15s-2.12-.17-2.74-1.24a7.76,7.76,0,0,1,2.3-.79c1.15-.36,1.42-.8,1.33-1.95a102.24,102.24,0,0,1-.36-11.6c0-5.76.09-11.52,0-17.36a4,4,0,0,0-.17-1.77,3.14,3.14,0,0,1,.09-2.39c.26-.54.44-.71.88-.8C373.69,315.15,375.11,315.15,376.17,316.21Z"/><path class="cls-2" d="M426.83,317.37a9.6,9.6,0,0,1,2.39,5.84c.18,3.9.18,8.68.53,12.84.27,3,.27,6,.62,9a20.05,20.05,0,0,0,.53,3.28,19.47,19.47,0,0,1,0,7.53c-.53,3.54-.44,7.08-.62,10.54-.09,1.59.09,3.19-.71,4.69a2.44,2.44,0,0,0,.09,1.77c.09.53.44,1.07-.26,1.51-.27.18-.09.53.08.71.45.53.18,1-.08,1.5-.71,1.15-.71,1.15-1.78.45-.7-.45-1.5-.54-1.86,0-1.94,3-2.65.26-4.87.53a1.13,1.13,0,0,1-1.15-.89,9.3,9.3,0,0,1-.62-3.1c0-2.39.09-4.78.09-7.08,0-2.57-.53-5-.71-7.44-.53-6-.17-12-.53-17.89-.18-3.1.09-6.29,0-9.3-.18-3.63.09-8.24.18-11.87.09-1.33.09-1.33,1.5-1.33a1.73,1.73,0,0,1,.62-.09c.27-.62-.17-1.15,0-1.77.27-.44.89-.17,1.24-.62.18-.17.54-.35.71-.26C423.82,316.21,425.59,316,426.83,317.37Zm.71,28.51v2c0,.35.53,1.5.62,1.95l.17,1.95c.09-.36.09-.09.36-1.07a8.31,8.31,0,0,0,.09-2.48c0-.53-.27-1.77-.36-2.39l-.44-3.72A18.38,18.38,0,0,0,427.54,345.88Z"/><path class="cls-2" d="M457.29,316c.27,1.24,1.33,1.95,1.77,3.19,1.16,3.45,1.33,7.08,2.66,10.53,1.95,5.32,3.37,10.9,5.32,16.21.7,2,1.15,4.16,1.77,6.2,1,3.46,2,6.91,3,10.36.09.18.17.45.44.45a44.42,44.42,0,0,0-.44-13.2c-.44.62-.09,1.24-.18,1.86a14.15,14.15,0,0,1-.09,1.95c-.62-.18-.53-.62-.53-1,0-2.21-.09-4.51-.27-6.81,0-1.33.27-2.75.27-4.17,0-1.77-.18-3.45-.27-5.13a36.43,36.43,0,0,1-.17-5.32c.17-4.25.26-8.41.09-12.66a3.35,3.35,0,0,1,.88-1.86c.18-.27.62-.27.89-.27a4.2,4.2,0,0,1,2.57,2.3c.08,2.66.79,5.32.62,8.06s0,5.49-.09,8.33c0,2.12.26,4.25.09,6.46-.18,3.9.08,7.8,0,11.78,0,2.39.62,4.87.79,7.35.18,3.1.89,6.11,1.07,9.21,0,.89.26,2-.27,2.39-1.15.8-.44,1.6-.44,2.4,0,.44.09.79.09,1.24a2.54,2.54,0,0,1-1.6,2.56.65.65,0,0,1-1-.35c-.53-.71-1.15-.62-1.86-.71-1.69-.26-3.37.27-4.87-.62-1.07.53-1.86-.44-2.84-.53-1.15-.09-1.59-.8-1.86-1.77-.62-2.22-1.33-4.34-1.86-6.56-.79-3.45-2-6.64-2.83-10.09-1-4.69-2.57-9.21-4-13.82A94.6,94.6,0,0,1,451.27,333c-.35-2.21-1-4.43-1.42-6.64-.62.18-.44.53-.44.71-.18,7.35-.35,14.61-.35,22,0,5.22.53,10.45.62,15.76.09,2.93.62,5.85.79,8.77a47.71,47.71,0,0,1,.09,5.14c-1.24-.53-1.95-1.51-3.19-1.77-.44-.09-.7-.71-.62-1.24a4.84,4.84,0,0,0-.62-2.22,3.56,3.56,0,0,1-.44-1.95c-.35-4.16-.35-8.32-.53-12.57a17.76,17.76,0,0,0-.35-3.63,3.56,3.56,0,0,1,0-1c.35-5-.27-10.18-.18-15.23.09-5.76.09-11.42.09-17.18,0-1.15-.09-2.39-.18-3.63,0-.71,0-1.06,1-1.33,1.24-.26,2.4-.62,3.64-.09a2,2,0,0,0,1.41-.26c2-1,4.16-.71,6.2-1C456.94,315.68,457.29,315.77,457.29,316Zm15.94,58.89c-.35-.71-.44-1.5-1.5-1.42C471.64,375,471.64,375,473.23,374.84Z"/><path class="cls-2" d="M501.58,316.57a.74.74,0,0,0,.62,0c3.72-.62,7.52-.53,11.24-1.15,1-.09,1.95-.36,2.93-.36a5.24,5.24,0,0,1,4.6,3.1,24.49,24.49,0,0,1-6.11,1c-2-.09-4-.18-6-.09-1.86.09-3.72.62-5.58.71-.53,0-.8.35-1,.88-.62,2.57-.09,5.05.26,7.62.09.88,0,1.77,0,2.74a83.56,83.56,0,0,0,0,11.52c2.92-.45,5.76.35,8.59-.09,1.42-.27,2.22,1,3.37,1.77a3.59,3.59,0,0,1-2,1.06,9.26,9.26,0,0,0-2.57.62,21.77,21.77,0,0,1-6.38.89c-1.15.09-1.15.09-1.06,1.24.09,2.12.09,4.25,0,6.46a61.48,61.48,0,0,0-.26,7.09A8.11,8.11,0,0,1,502,364a18,18,0,0,0-.44,6.55c.17.89.53,1.15,1.33,1.06a7.23,7.23,0,0,1,1.94-.09.61.61,0,0,1,.45.62c-1,.89-2.75-.08-3.81,1.24a2,2,0,0,0,1.77-.08c3.1-.8,6.2-1.24,9.3-2.13,1.59-.44,3.27-.18,4.87-.53a1.61,1.61,0,0,1,1.24.35c.53.53,1.06,1,1.59,1.42-.53.71-1.5.35-2.12.8-.18.53.35.79.53,1.24.44.62.26,1.15-.53,1.15a12.48,12.48,0,0,0-4,.88,16.39,16.39,0,0,1-2.92.45,40.77,40.77,0,0,0-8.06.53c-.71.18-1.33.18-1.5,1.24-.09.71-.63.8-1.25.26s-1.32-.26-2-.17a58.65,58.65,0,0,1-10.36.71c-.53,0-1-.45-1.51-.62A.85.85,0,0,1,486,378c0-.53.26-.71.71-.8a25.83,25.83,0,0,0,4.43-1.41c0-2-.09-4.08,0-6.2.53-6.56.17-12.76.7-19.31.45-6.38.63-12.84.8-19.22.09-3.19-.17-6.37-.17-9.47,0-.8-.36-1.16-1.07-1.16-1.15,0-1-.62-2.12-.79a1.43,1.43,0,0,1-1.24-.89,26.07,26.07,0,0,1,4.25-1,8.75,8.75,0,0,0,.18-1.42c0-.89.08-1.59,1.23-1.42.09,0,.27,0,.27-.09,1.59-1.5,3.1-.62,4.69-.08C499.81,315.24,500.87,315.5,501.58,316.57Zm-9.39,59.07c1.42-.18,1.42-.18,1.24-1.15-.09-.62.09-2.13-.44-2.75C492,372.63,492.37,374.58,492.19,375.64Z"/><path class="cls-2" d="M122.42,371.28l5.71,27.31q-8,45.14-16,90.27c-2.08-.12-4.15-.26-6.23-.39Q114.13,429.88,122.42,371.28Z"/><path class="cls-2" d="M181.08,100.84Q161.94,208.5,142.79,316.17l-7.5-35.85Q148.21,189,161.11,97.77Z"/><path class="cls-2" d="M92.14,134.07a33.47,33.47,0,0,0-3.52,1.19c.38,2.49,1.49,8.62,1.89,10.5a24.6,24.6,0,0,1,.56,4.68c0,1-.49,1.16-1.19.14a3.87,3.87,0,0,1-.76-2.71,49.58,49.58,0,0,0-1.05-10,17.77,17.77,0,0,1-5.32,10.07c-.55.48-.93.25-.39-.55a31.5,31.5,0,0,0,4.84-11.41c-1.22.61-2.69,1.34-4.37,2.27-.58.28-1.16.33-2.18-.34-.79-.47-.72-1,0-1a40.75,40.75,0,0,0,6.77-2.47c-.56-2.85-.89-4.08-1.35-4.75a18.32,18.32,0,0,1-2.76,1.14c-.81.26-1.06-.16-.36-.56,2.84-1.69,4.49-3.65,4.61-4.3s.29-.9,1.78-.13,1.41,1.49.54,1.76a18.87,18.87,0,0,0-3.07,1.64c1.5.4,1.66.9,1.43,1.85a9.9,9.9,0,0,0,.23,2.88c.77-.36,1.43-.65,1.76-.85a2.17,2.17,0,0,1,2.23-.24C93,133.09,93,133.84,92.14,134.07Zm-.21,6.36a11.69,11.69,0,0,1-2.28-1.81c-.54-.49-.47-.67.23-.78a2.3,2.3,0,0,1,2.86,1.63C93,140.19,92.53,140.81,91.93,140.43Zm11.42,1c-.26-.35-.87-1.19-1.57-2.19-4.29,2.38-5.3,3.18-6.25,4.17-.5.56-.88.61-1.7-.43-.63-.8-.69-1.26-.15-1.76.4-.35.66-.73,1.08-2.28s2-8.62.81-10.67c-.62-1-.18-1.33,1.08-.85,1.81.71,2,1.3,1.67,2a5.44,5.44,0,0,0-.45,1.38,54.85,54.85,0,0,1-2.94,10.43,65,65,0,0,0,6.34-2.69c-.62-.9-1.29-1.9-1.78-2.67s-.44-1.08.28-.72c3.47,1.81,4.49,3.27,4.79,5.1C104.84,141.93,104,142.35,103.35,141.46Z"/><path class="cls-2" d="M86.62,165.47a2.14,2.14,0,0,0,2.33,1,13,13,0,0,0,3.1-1.11,24.39,24.39,0,0,0-.33-4c-.24-1.21-.64-1.53-1.28-1.41a2.54,2.54,0,0,0-1,.37l-.15-.2a1.79,1.79,0,0,1,1.64-1.66c1.1-.22,2.88.17,3.09,1.22.12.61-.15.8-.27,1.35a25.1,25.1,0,0,0-.15,3.59c2.37-1.24,3.75-2.44,4-3.82l.23-.08c1-.13,2.48-.42,2.67.54.16.8-.71,1.47-2.08,2.41a40.84,40.84,0,0,1-4.78,2.74c-.09,4.18-.64,11.94-.88,14.54-.3,4-.38,5-1.4,5.17-.45.09-.68-.23-.88-1.22-.09-.45-.17-1-.27-1.78a24.54,24.54,0,0,0,1.29-5.61A96,96,0,0,0,92.1,167a13,13,0,0,1-2.6.91,2.55,2.55,0,0,1-3.15-2.14Zm15.11,5.19a35.85,35.85,0,0,1,2.76-3.54,10,10,0,0,0-5.69,2.79l-.42-.41a10.11,10.11,0,0,1,6.71-4.36c1.59-.31,3,.24,3.16,1,.1.55-.15.7-.52.77s-.54.08-.81.13c-1.5.3-3.18,2.09-4.67,4Zm-1.43,3.58a8.21,8.21,0,0,0-.23,3.5c.71,3.55,4.08,2.88,6.39,2.43a11.69,11.69,0,0,0,1.93-.52c.53-.14.94-.42,1.16-.46.86-.17,2,.24,2.11,1,.19.93-1.12,1.35-3.4,1.8-4.74.94-8.16.82-9-3.34a7.8,7.8,0,0,1,.56-4.6Z"/><path class="cls-2" d="M106.61,192.88a1.9,1.9,0,0,0,1.06,0c1-.2,2.09-.41,2.3.54.14.71-.34,1.07-1.73,1.94a52,52,0,0,1-7.6,3.5c.12,3,.42,7.64.63,8.69.07.35.16.5.26.48s.13-.09.19-.17c2-2.42,4.85-4.48,7.18-4.95,3.86-.76,6.27,1.56,7,5.27,1,5.18-3.86,8.61-12.56,10.54l-.29-.78c7.77-2.24,11.69-5.54,10.92-9.41-.63-3.17-2-5.06-5.11-4.44-2.76.54-5.19,2.92-6.52,5.61-.17.43-.11,1.29-.72,1.41a2.09,2.09,0,0,1-2.11-1.75c-.12-.64.14-.89.18-1.63.1-1.35-.34-5.79-.46-8.39a18.63,18.63,0,0,1-2.48.69c-2.44.49-3.58-.62-4.07-2l.32-.37c.65.77,1.42,1.29,3.48.88.67-.14,1.67-.47,2.63-.79a35.52,35.52,0,0,0-.35-4c-.19-.83-.5-1.27-1.25-1.12a4.27,4.27,0,0,0-.88.34l-.09,0A1.77,1.77,0,0,1,98,191.16c1-.2,2.71-.1,2.92,1,.13.68-.23.95-.27,2,0,.67,0,2,0,3.1a22.7,22.7,0,0,0,5.07-2.5c.71-.54.94-1,.76-1.52Z"/><path class="cls-2" d="M99.42,227.84a1.39,1.39,0,0,1,1-.76c1-.2,2.85,1,3.16,2.57.14.7-.16,1.06-.29,1.65a30.41,30.41,0,0,0-.07,12.29c.42,2.11,1.12,3.57,1.53,3.49s1.41-5.24,1.79-7.24l.61.14c-.49,3.82-1,7.89-.9,8.66s.46,1,.62,1.87c.13.64,0,1.27-.42,1.35-1.18.24-3.4-2.39-4.45-7.67a52.8,52.8,0,0,1-.68-10.77,17.7,17.7,0,0,0-.13-3.6c-.21-1-.64-1.93-1.69-1.89Zm11.68-2.58a1.55,1.55,0,0,1,1.32-1.5c1.26-.24,2.84.41,3,1.3a3.28,3.28,0,0,1-.13,1.19,10.81,10.81,0,0,0,.29,2.47c.13.77.23,1.58.36,2.36,2.35-.93,2.52-1.5,2.6-2.21,1.42-.15,2.46-.09,2.62.71s-.45,1.12-1.76,1.81a25.08,25.08,0,0,1-3.13,1.35c.23,1.19.5,2.26.67,3.1a37.27,37.27,0,0,0,1.73,6.34c1.91.52,5.43,1.85,5.86,4a1,1,0,0,1-.58,1.15c-.33.06-.76-.15-1.32-.74a11,11,0,0,0-3.4-2.29c.12.48.27,1.25.35,1.67.38,2.18-.74,3.67-3.42,4.2-3.19.63-5.49-.71-6-3.24s1.35-4.26,4.14-4.81A9.69,9.69,0,0,1,117,242c-.5-1.67-1.47-5.73-2.06-8.71a20.31,20.31,0,0,1-3.34,1,4.07,4.07,0,0,1-3.92-1.35l.2-.58a3.84,3.84,0,0,0,3.16.51,18.37,18.37,0,0,0,3.57-1.11l-.57-2.88c-.57-2.88-.92-3.91-2.28-3.64a3.7,3.7,0,0,0-.5.17Zm6.28,18.31a6.32,6.32,0,0,0-2.92-.22c-2.11.42-3.56,1.67-3.23,3.33s2,2.22,4.3,1.78c2-.41,2.57-1.38,2.15-3.52C117.59,244.52,117.51,244.11,117.38,243.57Z"/><path class="cls-2" d="M127.41,267c-2.89.3-6,1.12-11.16,3a26.7,26.7,0,0,1-1.35,4.72c1.24-.34,4.3-1.35,6.8-2.34a5.48,5.48,0,0,0-1-2.06c-.61-.58-.25-1,.86-.74,1.76.45,1.79.91,1.56,1.42a2,2,0,0,0,0,.87c.9-.35,1.68-.67,2.08-.88a3.18,3.18,0,0,1,3-.06c.89.39.77,1.18-.71,1.34a30,30,0,0,0-4.15.82c.32,1.47,1,4.55,1.45,6.16a6.33,6.33,0,0,1-.46,5c-.35.73-.62.65-1.13.06a7.59,7.59,0,0,0-2.53-1.83c-.71-.36-.64-.71,0-.71,2,.09,2.46-.12,2.43-1.11a26.9,26.9,0,0,0-1.16-7.22,41.4,41.4,0,0,0-4.63,1.78,3.4,3.4,0,0,1-2.69.2,16.56,16.56,0,0,1-4.91,7c-1.1.92-1.23.68-.28-.55a29.71,29.71,0,0,0,5.39-11.31c-1.73.65-3.08,1.18-3.58,1.45-1.48.69-1.77.78-2.81.55s-1-.63-.12-.87,3.66-1.19,6.77-2.34a22,22,0,0,0,.46-2.62,8.17,8.17,0,0,1-2.72.31c-.64-.11-.83-.5-.06-.69.61-.16,1.91-.64,2.92-1,.1-.92.16-1.86.19-2.86-1.11.31-2.1.64-2.87.83a4.62,4.62,0,0,1-1.92.15c-.93-.15-.88-.49,0-.73,1-.3,3.33-1.06,4.82-1.55a7.87,7.87,0,0,0-.56-3.51c-.51-1-.33-1.54,1.31-1,1.21.36,1.45.71,1.14,1.67a13.39,13.39,0,0,0-.32,2.2c3.79-1.69,4.45-1.88,5.41-1.78s1.24.89.2,1.26-3.47,1.22-5.77,2c0,1-.14,1.92-.22,2.8,3.72-1.6,4.11-1.74,4.72-1.73,1.06,0,1.23.55.47,1.07a37.46,37.46,0,0,1-5.37,2.13c-.11.88-.24,1.74-.43,2.61,3.87-1.4,7.74-2.8,8.51-3.12a4.31,4.31,0,0,1,3.62-.28C129.87,266,129.62,266.71,127.41,267Zm-8.89,12.47a7.9,7.9,0,0,1-1.83-2.5c-.27-.51-.11-.71.44-.59,1.37.3,2,.76,2.33,1.77C119.76,279.37,119.11,279.86,118.52,279.42Z"/><path class="cls-2" d="M126.47,306.74a1.66,1.66,0,0,0,.59,1.15c.51.46.4,1.05-.41,1.31-.47.16-3.39,1.17-5.69,2.06.55,2.08-.48,2.06-1,.63-1-2.78-2.06-4.81-3-5.59s-1.06-1.42,1-1.09a23.19,23.19,0,0,0,6.08-2.63c.44-.46.85-.5,2.29-.23,1.25.22,1.48.84,1,1.36C126.78,304.39,126.61,304.92,126.47,306.74Zm-5-6.51a5.59,5.59,0,0,1-3.47.32c-.72-.23-.82-.44-.08-.68a25,25,0,0,0,3.49-1.46c1.82-1,3-1.29,3.73-1.17.63.1.77.68.24,1.11A18,18,0,0,1,121.42,300.23Zm11.22,4.22a65.47,65.47,0,0,1,1.23,6.91c.18,2.19,0,3.6-.78,4.64-.57.78-.85.87-1.3.16a17.1,17.1,0,0,0-2.57-2.85c-.78-.67-.68-.89.13-.72,1.89.39,2.4.16,2.4-.41a81.06,81.06,0,0,0-2.83-18.1c-.33-1-.64-1.23-1.49-1.16a29.4,29.4,0,0,0-7,2.51,1.5,1.5,0,0,1-1.73-.19c-1-.69-.95-.84,0-1,2.67-.46,7.63-2.41,8.44-3.23.44-.46.92-.45,2.17,0,2.07.75,2.22,1.06,1.77,2.31C130.69,294.33,130.9,297,132.64,304.45Zm-8.56-.49c-.75.28-3.15,1.25-5.06,2.13.44,1.11.91,2.38,1.46,3.87a39.44,39.44,0,0,0,4-1.79c.47-.26.62-1.09.35-3.43C124.73,304,124.52,303.8,124.08,304Z"/><path class="cls-2" d="M122.61,326.46a1.8,1.8,0,0,1,1.26-1.48c1.5-.3,3.17.5,3.36,1.5.1.48-.39.67-.42,2.08s-.06,2.8-.14,4.21a20.8,20.8,0,0,1,2.82-.92c3.86-.77,5,1.81,5.84,6.29.85,4.29,1,12-2.26,12.62-.56.11-.91-.42-1.27-1.21s-2.3-1.91-4-3l.25-.61c2.18,1,4,1.87,4.71,1.73.37-.08.63-.19,1-1.16.45-1.25.73-4.6-.08-8.7-.69-3.48-1.35-5.38-4-4.85a15.1,15.1,0,0,0-3,1.16,109.29,109.29,0,0,1-2,15.92c-.29,1.36-.63,2-1.06,2.11s-1-.37-1.24-1.62a5.48,5.48,0,0,1,.68-2.46c.9-2,1.9-8.69,2.12-13.19a19.82,19.82,0,0,0-2.45,1.55c-.26.22-.55.87-.9.94-1.23.25-2.38-1.32-2.61-2.48a1.51,1.51,0,0,1,.51-1.52l.12,0c0,.72.72,1.68,1.66,1.5a17.79,17.79,0,0,0,3.66-1.46,43.62,43.62,0,0,0-.19-5.91c-.2-1-.64-1.38-1.68-1.17a3,3,0,0,0-.53.14Zm11.13-2.57c3.39.69,4.71,2.29,4.89,3.22.11.55-.15,1-.47,1.09-.49.1-.73-.15-1-.65a8.6,8.6,0,0,0-3.59-3.08Zm1.33,4.63c5.05.76,7.65,5,8.31,8.33.3,1.53,0,2.56-.64,2.68-.48.1-1-.1-1.22-1.25-.77-3.87-2.51-7.75-6.64-9.06Zm1.27-7.24c3.41.65,4.73,2.25,4.92,3.18.1.55-.16,1-.46,1.09-.48.1-.75-.15-1.05-.69a8.66,8.66,0,0,0-3.61-3Z"/><path class="cls-2" d="M147.67,381.16c-1.4.21-1.74.08-3.08-1.22a42.32,42.32,0,0,1-6.85-7.75c.06,5.24-1.51,9.37-6.43,11.68-.82.36-1,.09-.22-.56,3.52-2.86,6-6.71,5-13.95-1,.43-2,.92-2.85,1.36-1.3.72-1.82.76-2.74.48s-1.14-.54-.05-1c1.33-.46,3.46-1.35,5.44-2.2-1-5.86-1.58-7.54-2.33-8.39-1.25-1.38-.5-1.66,1.3-1.29,1.42.29,1.73.59,1.59,1.71-.06.52,0,1.24.87,7.32a38.05,38.05,0,0,0,3.54-1.77c1.6-1.08,2.8-1.35,3.66-1,1.63.68,1.71,1.46-.14,1.86a46.27,46.27,0,0,0-6.88,2.19c.08.72.15,1.34.19,2a29.55,29.55,0,0,0,4.73,4.92c2.79,2.27,5.45,3,9.6,3.45,1,.09,1.22.56.25.88A35.48,35.48,0,0,1,147.67,381.16Z"/><path class="cls-2" d="M144,413.18a34,34,0,0,0-3-2.9,14.86,14.86,0,0,1-4.39,5.53c-.76.55-1,.25-.25-.55a29.08,29.08,0,0,0,3.72-5.8,12.07,12.07,0,0,0-1.77-1.34c-.64-.41-.77-.68-.84-1.7s-.09-1.74-.13-2.5a19.38,19.38,0,0,0-2.64,1.69c-.76.68-1.21.67-2.16.06-1.12-.71-1-1.26.15-1.36.87-.07,1.91-.44,4.59-1.54-.37-6.65-.7-8-1.41-9-.55-.62-.28-1.11.4-.91a4.94,4.94,0,0,1,1.69.83,1.36,1.36,0,0,1,.5,1.53c-.06.38-.13,2.72-.11,7l2.55-1.07a13.8,13.8,0,0,0-.3-1.67c-.22-.65,0-.79.74-.48,1.27.55,1.43,1.05,1.21,1.76a6.43,6.43,0,0,0-.15,1.52,19.41,19.41,0,0,1-.89,6.6c2.5,1.53,3.21,2.42,3.45,3.61S144.67,413.91,144,413.18Zm-5.65-9.82c0,1,0,2.09,0,3.28,0,.47,0,.63.38.79.65.31,1.21.63,1.72.93A20.76,20.76,0,0,0,141,402Zm16.36-2.18a32.06,32.06,0,0,0-4.35,1,29.27,29.27,0,0,1,1.47,5.3c.71,3.88.79,6.09-.29,8.1-.49.87-.75.82-1.1.32a12.55,12.55,0,0,0-2.49-2.43c-.68-.5-.71-.79.27-.59,2.18.44,2.5-.06,2.43-2.91a29.83,29.83,0,0,0-1.49-7.38A27.17,27.17,0,0,0,145.6,404c-1.33.63-1.78.75-2.33.5-.8-.41-.77-.65.08-.88.63-.19,3.11-1.15,5.41-2.07a4.28,4.28,0,0,0-1.4-2.15c-.81-.41-1-.54-1-.77s1-.47,1.6-.19a25.51,25.51,0,0,0,1.33-4.25c.19-.77,0-1-.77-.65a22.39,22.39,0,0,0-3.32,2.06,1.84,1.84,0,0,1-1.87.1c-1.05-.39-1.15-.57-.12-.87a20.7,20.7,0,0,0,5.1-2.38c.86-.7,1.16-.76,2.55-.2,1.69.66,1.82,1.3,1.11,1.81-.88.6-1.34,1.09-3.65,4.61a7.4,7.4,0,0,1,1.55,2.39c1.29-.56,2.39-1,2.93-1.28a3.38,3.38,0,0,1,3.26-.25C157.5,400.42,157,400.93,154.7,401.18Z"/><path class="cls-2" d="M159.19,429.72c.51-.1,1,0,1.07.48s-.62,1.26-1.68,2a33.82,33.82,0,0,1-5.52,2.89,9,9,0,0,0,4.3,3.74,1.91,1.91,0,0,1,1.58,1.49.91.91,0,0,1-.68,1.19c-.56.12-1.16-.36-1.75-.55a9.32,9.32,0,0,0-4.13,0c-4.53.89-5.63,3.24-5.25,5.16.5,2.53,3.05,3.15,7.61,2.25l.18,0a18.14,18.14,0,0,0,3.78-1.31c1.05-.21,2.06.12,2.21.89.18.93-2,1.72-5.51,2.42-5.92,1.18-9.09-.09-9.82-3.64-.54-2.85,2-5.74,6.55-6.71a14.53,14.53,0,0,1,3.29-.23l.08-.15a12,12,0,0,1-3.69-3.89,36.27,36.27,0,0,1-6.46,2.38,4.55,4.55,0,0,1-4.92-1.52l.26-.48a5,5,0,0,0,4.31.67,29.31,29.31,0,0,0,6.14-2.18c-.7-1.29-1.49-2.89-1.88-3.85a26,26,0,0,1-4.53,1.56,3.68,3.68,0,0,1-3.65-1.27l.21-.5a4,4,0,0,0,3,.54,24.55,24.55,0,0,0,4.43-1.54c-.35-.8-.82-1.87-1.08-2.52-.62-1.44-1.48-1.27-1.94-1.18a1.25,1.25,0,0,0-.92.55l-.18-.06c-.2-1,.43-1.92,2-2.27,1.29-.25,2.08.22,2.2.83.06.32.07.52.14.84a22.93,22.93,0,0,0,1.11,3.2c3.29-1.51,4-2.31,3.82-3.18a6.43,6.43,0,0,1,.66-.17c1.18-.23,1.84,0,1.94.49s-.34,1-1.27,1.61a33.88,33.88,0,0,1-4.68,2.52,26.29,26.29,0,0,0,1.86,3.79,17.91,17.91,0,0,0,3.88-2.23c.46-.32.71-.61.66-.89s-.17-.3-.43-.45l.27-.49a3.51,3.51,0,0,0,1.69.1Z"/><path class="cls-2" d="M145.53,462.66a1.87,1.87,0,0,0,2.18,1.33,9.39,9.39,0,0,0,2-.74c2-.93,8.2-3.58,11.75-4.79a3.47,3.47,0,0,0,1.67-1.13c2.33.08,3.3.48,3.5,1.47.1.52-.36.74-1.06.88s-1.33.16-2,.29c-2.87.57-5.82,4.62-6.69,7.68a16.16,16.16,0,0,0-.18,7.39c.9,4.54,3.48,5.33,6.61,5.24a14.16,14.16,0,0,1,2.07-.21,1.93,1.93,0,0,1,1.6,1.48c.11.54-.27.85-1.05,1-.24,0-.52.06-.82.09-6.71.4-8.92-1.89-10-7.24-1.22-6.14,1.66-11.73,5-15.12l-.05-.09c-3.06,1-9.58,4.06-10.65,5.57a2,2,0,0,1-1.11.82c-1.16.23-3-1.21-3.19-2.46a1.84,1.84,0,0,1,.18-1.47ZM162,465.89c3.43.69,4.58,2.15,4.76,3.08.11.55-.13,1-.45,1.09s-.73-.19-1-.69a8,8,0,0,0-3.48-2.94Zm2.22-3.3c3.42.69,4.55,2.19,4.74,3.12.11.54-.11,1-.43,1.05-.49.1-.74-.19-1.06-.69a7.77,7.77,0,0,0-3.47-2.9Z"/><path class="cls-2" d="M160,491.3a1.75,1.75,0,0,1,1.44-1.61c1.31-.26,3,.34,3.14,1.27a3.66,3.66,0,0,1-.1,1.28,16.76,16.76,0,0,0,.43,2.74c1.71-.5,3.38-.93,4.2-1.13a2.42,2.42,0,0,0,1.91-1.34c1.62.18,3.38.63,3.57,1.59.06.32-.32.63-.67.7-.83.16-1.92,0-3.36.16-.46.06-1.05.18-1.7.3-1.26.25-2.72.58-3.72.88.17.86.95,5.06,1.19,6a10.06,10.06,0,0,1,1.77,4.61c1,5-.54,9.35-5.76,12.35l-.45-.58a10.55,10.55,0,0,0,4.68-9.84,3.48,3.48,0,0,1-2.85,2.36c-2.38.47-4.53-1.36-5.08-4.15-.61-3.07.89-5.76,3.38-6.25a3.45,3.45,0,0,1,2.56.39c-.33-1.67-.7-3.36-1-4.47a39.83,39.83,0,0,0-8.16,3.35c-.6.38-.64.72-1.26.85a3.46,3.46,0,0,1-3-2.4,1.8,1.8,0,0,1,.2-1.33l.17,0a2.08,2.08,0,0,0,2.7,1.43c1.34-.26,7.69-2.52,9.13-3-.93-3.87-1.09-4.54-2.54-4.25a4.41,4.41,0,0,0-.71.2Zm5.65,13.18c-.27-1.34-1.55-3-3.42-2.65-1.53.31-2.59,2-2.06,4.67.45,2.24,2.17,3.23,3.41,3C165.88,509,166.15,507.17,165.62,504.48Z"/></svg>
