<svg id="Layer_1" data-name="Layer 1" xmlns="http://www.w3.org/2000/svg" viewBox="0 0 107.49 466.54"><defs><style>.cls-1{fill:#efefef;}</style></defs><title>Logo</title><path class="cls-1" d="M41.31,313.44l6.44,31.29q-9,51.74-18.11,103.45l-7-.44Q32,380.59,41.31,313.44Z"/><path class="cls-1" d="M107.49,3.51Q85.89,126.9,64.29,250.28L55.83,209.2,85,0Z"/><path class="cls-1" d="M9.88,49.74a3,3,0,0,1,2.58,1.86l1.44,2.91A5.51,5.51,0,0,1,14.27,57c0,.39-.45.48-.57.89-.1.58-.34,1.12-.48,1.71-.3-.06-.33-.44-.55-.57-.31.17,0,.62-.29.84,0,.06-.08.07-.15,0a5.22,5.22,0,0,1-1.68-3.64A5,5,0,0,0,10,54c-.43-1-1.9-2-2.69-1.44A15.71,15.71,0,0,0,6,53.49a2.74,2.74,0,0,0-.79,1.59,20.15,20.15,0,0,1-.34,2.13,2.44,2.44,0,0,0,.6,2.62,29.91,29.91,0,0,1,4.37,4,21.34,21.34,0,0,0,3.59,2.78,17.2,17.2,0,0,1,2.92,2.63,7.7,7.7,0,0,0,1.16,1.12c1.38,1,1.65,2.76,2.39,4.29a17.24,17.24,0,0,1,.9,3.46,1.58,1.58,0,0,1-.3,1.56c-.26.22-.16.48-.16.76a12.56,12.56,0,0,1-.7,4.15,1.76,1.76,0,0,1-1,1.19,1,1,0,0,0-.45.48,5.41,5.41,0,0,1-1.58,1.86c-.17.14-.33.34-.55.27a1.58,1.58,0,0,0-1.48.55c-1.26,1.19-3.78.94-6.1-.08-.22-.12-3.61-2.61-3.74-2.75-1.3-1.37,1.78,1,.5-.49a3.2,3.2,0,0,1-.66-1.43c-.12-.65-.66-.88-1-1.32-.14-.2-.4-.26-.51-.58.16-.19.59-.55.94-.28s.52.12.84.23.39.26.83.51c.62.39.81.85,1.22,1.22a3.64,3.64,0,0,0,2,1c1.82.44,3.79,1.74,4.95-.26a5.15,5.15,0,0,0,.43-3.77,21.49,21.49,0,0,0-1.32-3.87,2.08,2.08,0,0,0-.49-.75,40.67,40.67,0,0,0-7-6.49,11,11,0,0,1-3.94-4.06A26,26,0,0,1,.23,63.44,3.34,3.34,0,0,1,0,62a47.71,47.71,0,0,1,.23-4.79A10.24,10.24,0,0,1,3,51.71,2,2,0,0,1,4.53,51,8.6,8.6,0,0,0,7,50.23,8.59,8.59,0,0,1,9.88,49.74ZM4.23,84.67c-.66.45-1.08-.47-1.36-.92C3.59,83.67,3.81,84.3,4.23,84.67ZM8.4,70c.13-.08-.61-1.11-1-1.48-.62-.67-1.18-.78-1.35-1.14a7.18,7.18,0,0,0-2.22-1A18.67,18.67,0,0,0,8.4,70Z"/><path class="cls-1" d="M15.84,104.3c.27-.17,1,1.21,1.16,1.67-.25-1.34-.24-2.35.81-.43a30.07,30.07,0,0,1,1.56,2.78c.47,1.14,1.11,2.19,1.48,3.35.26.89.31.61.84,1.34.93,1.22,1.17,2.8,1.78,4.19A71,71,0,0,0,27,123.85a34,34,0,0,1,2.23,5.27c.19.47.19,1,.39,1.55a53.78,53.78,0,0,0,2.89,5.59A9.08,9.08,0,0,1,33.89,140c.08.65.16,1.36-.63,1.62a.48.48,0,0,1-.32.68c-.29-.23-.63-.22-1-.71-.14-.2-.46,0-.55-.29-.31-.55-1-.59-1-.09,0,1-1,.59-1.57.86-.36.23-.62.11-.8-.3-.86-1.68-1.71-3.3-2.42-5-.61-1.39-1.53-2.61-2.05-4.07a.79.79,0,0,0-1-.54c-1.84.46-3.31.57-5.17,1.2-.42.13-1.27.07-1.49.5s-.07,1-.12,1.47c0,1.06-.11,2,0,3.08l.31,3.78a12.81,12.81,0,0,1,.07,1.39c0,.66-.19.87-.94.79-.21,0-.76-1.14-.79-.24,0,.5-.64-.78-.7-1.32a50.73,50.73,0,0,1-.18-7.28v-.83c0-.78,0-.72-.7-.82a1.22,1.22,0,0,1-1-.42c.1-.52.56-.5.88-.61,1-.53,1-.24.86-1.5-.11-1.88.08-4.31-.08-6.18a65.46,65.46,0,0,1-.15-7.67,44.35,44.35,0,0,0-.08-4.9c-.07-1.66-.13-3.32-.24-4.92a2.42,2.42,0,0,0-.27-1.17c-.16-.36-.31-.89.12-1.2s.8-1,1.44-.77A2.22,2.22,0,0,0,15.84,104.3Zm-.68,9.5a11.57,11.57,0,0,1,.2,3.42c-.09,1.41.33,2.84.15,4.26a24.73,24.73,0,0,0,0,4.3c.15,1.87.21,3.75.27,5.64,1.56-.41,3.27-.79,4.78-1.18a2.76,2.76,0,0,0,.82-.38c.69-.3.71-.41.33-1.12-.66-1.16-1.06-2.48-1.64-3.71-.49-1-.76-2.2-1.31-3.27a21.74,21.74,0,0,1-1.6-4.05,22.16,22.16,0,0,0-1.85-4.56C15.13,113.41,15.08,113.64,15.16,113.8ZM24.28,121a6,6,0,0,0-1-2.37C22.94,119.08,24.12,120.65,24.28,121Z"/><path class="cls-1" d="M21.32,159.05a12.4,12.4,0,0,0,1.58,2,5.87,5.87,0,0,1,1.17,2c1.65,3.76,3.4,8.06,5,11.84.47,1.19.94,2.38,1.6,3.77a19.57,19.57,0,0,0,0-3.52c-.07-1.71-.29-3.4-.31-5.07-.06-1.89-.12-3.77-.07-5.62a22.76,22.76,0,0,1,.22-4.89c.2-.77.62-1.46,1.32-1.42l1.2.05a1.37,1.37,0,0,1,.78.24c.7.54.79.47,1-.51,0-.06,0-.07.11-.19.26.06.52.4.8,0,.11-.19.42-.14.68-.07s.28.17.43.19c1.78.28,2.16,1.77,2.51,3.32,0,.22,0,.44.06.61.77,2.75.86,5.63,1.33,8.39.42,2.21.89,4.46,1.5,6.64.54,1.79.9,3.73,1.44,5.53.69,2.38,1,4.84,1.51,7.25.24,1,.61,1.94.76,3s-.23,1.66-1.34,1.59c-.21.2-.06.46-.07.68a.68.68,0,0,1-.82.6,6.1,6.1,0,0,1-2.86-1,3,3,0,0,1-1.64-2.42,36.67,36.67,0,0,1-.88-4.63,13.32,13.32,0,0,0-.62-2.79c-.93-3.34-1.51-6.69-2.38-10-.84-3.13-1.39-6.32-2.37-9.43l-.23-.4a6.53,6.53,0,0,0-.31,2c-.08,1.41-.31,2.85-.29,4.24a48.57,48.57,0,0,0,.5,8.44c.11.59.08,1.21.15,1.87a6.24,6.24,0,0,0,.37,2.78c.46.86-.12,1.47-.34,2.12-.05.24-.31.17-.48.09a1.94,1.94,0,0,0-1-.1c0,.4,0,.72.52.63s.77.7,1.07,1c-.13.36-.33.35-.61.45-.79.26-1.76.39-2.12,0a2.35,2.35,0,0,0-1.16-.62,4.72,4.72,0,0,1-2.13-2.11c-1.77-3.07-3.5-6.2-5-9.43-.78-1.75-1.57-3.56-2.39-5.3a14.74,14.74,0,0,0-.87-1.73c.39,1,.11,2.15.5,3.19a35,35,0,0,1,.79,3.93c.5,2.13.88,4.41,1.43,6.54.5,1.85.95,3.72,1.53,5.51a14.29,14.29,0,0,1,.8,3.2,52,52,0,0,0,.92,5.4,1.24,1.24,0,0,1,.06.83c-.27.66-.59.83-1.39.54-.17.14-.06.45-.34.56-.06-.1-.22-.12-.25-.28l-.71-3-1.08-6.26a47.17,47.17,0,0,0-1.3-5.62,105.57,105.57,0,0,1-2.49-11.63c-.47-2.76-1.18-6-1.66-8.84a5.84,5.84,0,0,0-.27-1.17.75.75,0,0,1,.37-.91,2,2,0,0,1,1.59-.24c.3-.23.23-.61.38-.86.53-.88.6-1,1.59-.75a2.05,2.05,0,0,1,1.58,1,.25.25,0,0,0,.36.1c0-.5-.29-1-.13-1.48A.28.28,0,0,1,21.32,159.05Zm16.35,11.6a4.72,4.72,0,0,0-.76-3.49C36.67,168.49,37.39,169.42,37.67,170.65Z"/><path class="cls-1" d="M40.31,211.38a3,3,0,0,1,2.58,1.86l1.43,2.91a5.51,5.51,0,0,1,.38,2.49c0,.39-.46.48-.58.89-.09.58-.33,1.13-.47,1.71-.31-.05-.33-.44-.55-.57-.32.17,0,.62-.29.84,0,.06-.09.07-.15,0A5.16,5.16,0,0,1,41,217.84a5.07,5.07,0,0,0-.56-2.18c-.43-1-1.91-2-2.7-1.45a15.58,15.58,0,0,0-1.31.92,2.68,2.68,0,0,0-.79,1.6c-.14.58-.15,1.59-.34,2.12a2.46,2.46,0,0,0,.59,2.63,28.35,28.35,0,0,1,4.37,4,21.41,21.41,0,0,0,3.6,2.78,17.59,17.59,0,0,1,2.92,2.63A7.61,7.61,0,0,0,47.91,232c1.38,1,1.66,2.76,2.39,4.29a17.24,17.24,0,0,1,.9,3.46,1.55,1.55,0,0,1-.3,1.56c-.26.22-.16.48-.15.76a12.27,12.27,0,0,1-.71,4.15,1.7,1.7,0,0,1-1,1.19,1.07,1.07,0,0,0-.46.48A5.3,5.3,0,0,1,47,249.79c-.17.14-.33.34-.54.27a1.62,1.62,0,0,0-1.48.55c-1.26,1.19-3.79.94-6.11-.07-.22-.13-3.61-2.62-3.73-2.76-1.3-1.37,1.77,1,.5-.49a3.32,3.32,0,0,1-.67-1.43c-.12-.65-.66-.88-1-1.32-.13-.2-.39-.26-.5-.58.16-.19.59-.55.94-.28s.51.12.83.23.4.26.84.51c.62.39.8.85,1.22,1.22a3.58,3.58,0,0,0,2,1c1.82.44,3.8,1.74,5-.26a5.18,5.18,0,0,0,.43-3.76,21.61,21.61,0,0,0-1.33-3.88,2.07,2.07,0,0,0-.48-.75,41.1,41.1,0,0,0-7-6.49,11,11,0,0,1-3.93-4.06,21.72,21.72,0,0,1-1.23-2.33,3.52,3.52,0,0,1-.22-1.41c.1-1.58,0-3.23.24-4.79a10.28,10.28,0,0,1,2.72-5.53,2,2,0,0,1,1.56-.68,8.3,8.3,0,0,0,2.47-.8A8.5,8.5,0,0,1,40.31,211.38Zm-5.66,34.93c-.65.46-1.08-.47-1.36-.92C34,245.31,34.24,245.94,34.65,246.31Zm4.17-14.68c.13-.08-.6-1.11-1-1.48-.62-.66-1.19-.78-1.35-1.14a7.13,7.13,0,0,0-2.23-1A18.86,18.86,0,0,0,38.82,231.63Z"/><path class="cls-1" d="M41,268.15c.12.14.17.14.31.11.69-.3,1.28.21,1.87.43a1.57,1.57,0,0,1,.9,1.11c.26,1.13.46,2.2.62,3.29l.06.32c.51,1.92.69,3.94,1.36,5.88a54.38,54.38,0,0,1,2,7.21,1,1,0,0,0,.32.61c1-.36,2.08-.79,3.14-1.21,0,0,.09,0,.08-.07.41-1,1.35-.75,2.08-1.06l.38-.07c.89-.28.79-.32.84-1.33.07-1.24-.53-2.3-.66-3.5-.36-3.79-1.35-7.45-2-11.24-.08-.43-.27-.9-.41-1.37-.11-.32-.13-.7.09-.86.4-.24.4-.74.88-.83s.56.34.67.65a15.93,15.93,0,0,1,.77,2.54,8,8,0,0,0,.25,1.07c.33,1.22.71,2.43.94,3.67s.47,2.48.85,3.74c0,.11.14.2.39.21-.47-3-1.79-8.7-1.91-9.35-.23-1.24,1.14,1.29,1.31,2.21.47,2,.88,3.91,1.44,5.81.08.43.24,1.79.37,2.22.4,1.87.66,3.78,1.2,5.63a16.33,16.33,0,0,1,.65,3.67c0,.33.26.62.37.94a19.37,19.37,0,0,1,1,4.38l.12.59a17.22,17.22,0,0,1,.94,3.45c.17.63.16,1.36.34,2.05a1.8,1.8,0,0,1-.35,1.3,2.42,2.42,0,0,0-.36,1.24c0,.28.54.23.25.56a3.52,3.52,0,0,1-1,1.2,4,4,0,0,0-.87.66,1.89,1.89,0,0,1-1.18-1.84.94.94,0,0,0,0-.49,24.79,24.79,0,0,1-1-4.55c-.13-.92-.54-1.79-.66-2.72a27.73,27.73,0,0,0-.68-2.83,1.75,1.75,0,0,1,0-1.56c0-.06,0-.28,0-.28-.67-.37-.5-1.07-.65-1.6-.1-.26-.23-.41-.47-.36a11.27,11.27,0,0,0-1.28.29,38.57,38.57,0,0,0-4.79,1.13,1.51,1.51,0,0,0-.41.19,2.83,2.83,0,0,0,.27,1.4,5.63,5.63,0,0,1,.33,1.78.89.89,0,0,0,.14.47,4.52,4.52,0,0,1,.34,1.78,17.43,17.43,0,0,0,.37,3.05c.15.81.35,1.33.46,2.15a6.09,6.09,0,0,0,.24,1.57c.36.6.25,1.29.46,1.92a.4.4,0,0,1-.34.57c-.93.29-2.43,1.29-2.88.48-.07-.15-.3-.05-.35.46-.1.8-1.21.68-1.92.87a2.19,2.19,0,0,1-.49-1c-.29-1.51-.7-2.93-1-4.38-.26-1.07-.36-2.16-.55-3.19-.41-1.65-.73-3.82-1-5.55-.1-.54-.2-.52-.7-.59s-1.17.11-1.63-.47A4.12,4.12,0,0,1,42,290c.58-.33.68-.62.5-1.31a70.39,70.39,0,0,1-1.52-7c-.66-3.5-1.27-7-2-10.56a2.66,2.66,0,0,0-.3-1.06,2.23,2.23,0,0,1-.23-1.46c.09-.35.16-.48.39-.58A2.4,2.4,0,0,1,41,268.15Z"/><path class="cls-1" d="M58.87,321.31a6.3,6.3,0,0,1,2,3.31c.54,2.35,1.09,5.26,1.76,7.76.49,1.8.83,3.63,1.37,5.43a13,13,0,0,0,.66,1.94,13.51,13.51,0,0,1,.86,4.58c.12,2.21.57,4.36.87,6.47a7.25,7.25,0,0,1,.16,2.93,1.68,1.68,0,0,0,.25,1.07c.11.31.36.6,0,.94-.12.14,0,.34.13.42.3.28.2.58.12.93-.25.77-.25.77-.9.45-.44-.2-.88-.17-1,.19-.71,2-1.4.43-2.57.82-.27.11-.56-.12-.72-.43a6.07,6.07,0,0,1-.69-1.82c-.27-1.45-.5-2.92-.76-4.32-.3-1.56-.86-3-1.24-4.45-1-3.61-1.46-7.26-2.33-10.83-.45-1.87-.68-3.83-1.07-5.66-.51-2.19-.89-5-1.26-7.23-.11-.82-.11-.82.66-1a.71.71,0,0,1,.32-.11c.08-.41-.22-.69-.2-1.08s.46-.2.6-.5c.07-.13.24-.27.35-.24C57.11,320.91,58.05,320.62,58.87,321.31Zm3.65,17.27.23,1.24c0,.22.46.86.56,1.12l.32,1.17a6,6,0,0,0,.07-.68,5.81,5.81,0,0,0-.24-1.52c-.06-.32-.34-1.05-.46-1.42l-.67-2.21A13.5,13.5,0,0,0,62.52,338.58Z"/><path class="cls-1" d="M65.6,374.94c.28.72.94,1.05,1.32,1.76,1,2,1.53,4.17,2.64,6.14,1.66,3,3.07,6.28,4.73,9.32.61,1.17,1.09,2.41,1.66,3.59.92,2,1.89,4,2.81,6,.07.1.15.25.29.22a30.2,30.2,0,0,0-1.75-8c-.16.42.1.76.12,1.15a9.49,9.49,0,0,1,.18,1.19c-.36,0-.36-.32-.4-.54-.25-1.34-.57-2.74-.93-4.12-.15-.81-.17-1.69-.33-2.56-.2-1.08-.49-2.08-.73-3.1a23.23,23.23,0,0,1-.7-3.21c-.4-2.6-.82-5.15-1.41-7.71a2.16,2.16,0,0,1,.27-1.22c.06-.18.3-.23.45-.26a2.44,2.44,0,0,1,1.65,1.14c.35,1.61,1,3.16,1.25,4.84s.63,3.34.91,5.08c.24,1.29.63,2.56.79,3.92.35,2.39.94,4.73,1.35,7.17.27,1.45.89,2.9,1.27,4.39.45,1.87,1.18,3.63,1.63,5.49.1.54.37,1.22.13,1.48-.53.61-.06,1,0,1.5,0,.27.14.48.19.75a1.6,1.6,0,0,1-.56,1.72c-.21.21-.43.09-.57-.11-.37-.38-.69-.26-1.09-.24-.94,0-1.78.5-2.7.11-.51.44-1-.08-1.59,0s-1-.32-1.21-.89c-.58-1.28-1.21-2.51-1.75-3.8-.83-2-1.86-3.83-2.69-5.85-1.06-2.76-2.44-5.35-3.73-8A64,64,0,0,1,64.3,386c-.44-1.31-1-2.6-1.52-3.9-.32.17-.18.37-.16.48.75,4.49,1.48,8.92,2.32,13.39.6,3.18,1.49,6.31,2.14,9.53.39,1.77,1,3.49,1.44,5.25.28,1,.42,2,.63,3.12-.73-.2-1.22-.72-1.92-.75-.25,0-.46-.36-.48-.69a3.23,3.23,0,0,0-.59-1.29A2.43,2.43,0,0,1,65.7,410c-.67-2.49-1.14-5-1.72-7.59a12.3,12.3,0,0,0-.61-2.18,2.3,2.3,0,0,1-.11-.59c-.39-3.11-1.31-6.17-1.84-9.25-.61-3.51-1.26-7-1.92-10.46-.13-.7-.32-1.45-.51-2.19-.08-.43-.13-.65.37-.91a2.76,2.76,0,0,1,2-.42,1,1,0,0,0,.73-.31c1-.8,2.17-.85,3.24-1.22C65.38,374.81,65.58,374.83,65.6,374.94ZM81,409.15c-.27-.4-.41-.87-1-.71C80.11,409.42,80.11,409.42,81,409.15Z"/><path class="cls-1" d="M79.15,429.07a6.23,6.23,0,0,1,2,3.31c.55,2.35,1.09,5.26,1.76,7.76.49,1.8.83,3.64,1.37,5.43a14.26,14.26,0,0,0,.66,1.94,13.81,13.81,0,0,1,.87,4.58c.11,2.21.57,4.36.87,6.48a7.37,7.37,0,0,1,.15,2.92,1.72,1.72,0,0,0,.25,1.07c.11.31.36.6,0,.94-.12.14,0,.34.13.43.3.27.21.57.13.92-.26.77-.26.77-.91.45-.43-.2-.87-.17-1,.19-.71,2-1.41.43-2.57.82-.28.11-.57-.12-.73-.42a6.72,6.72,0,0,1-.69-1.83c-.27-1.45-.5-2.91-.76-4.32-.29-1.56-.85-3-1.23-4.45-1-3.61-1.47-7.26-2.34-10.83-.45-1.87-.67-3.83-1.07-5.66-.51-2.19-.89-5-1.26-7.23-.1-.82-.1-.82.66-1a.91.91,0,0,1,.33-.11c.07-.41-.23-.68-.21-1.08s.46-.2.6-.5c.08-.13.25-.27.36-.24C77.4,428.67,78.33,428.39,79.15,429.07Zm3.65,17.27.24,1.24c0,.22.45.87.55,1.12l.32,1.17a6,6,0,0,0,.07-.68,5.87,5.87,0,0,0-.23-1.52c-.07-.32-.35-1.05-.47-1.42L82.61,444A13.5,13.5,0,0,0,82.8,446.34Z"/></svg>
