<svg id="Layer_1" data-name="Layer 1" xmlns="http://www.w3.org/2000/svg" viewBox="0 0 445 421.34"><defs><style>.cls-1{fill:#e8868f;}.cls-2{fill:#fff;}</style></defs><title>logo_1</title><circle class="cls-1" cx="160.61" cy="217.46" r="160.12"/><path class="cls-2" d="M112,270.43c-1.33.53-1.78-1.06-2.13-1.86C111.24,268.66,111.42,269.72,112,270.43Zm21.87-53.76a5.18,5.18,0,0,1,4,3.72l1.59,5.05c.53,1.42,0,2.74-.18,4.07-.09.62-1,.62-1.33,1.24-.35.89-1,1.69-1.41,2.57-.53-.18-.45-.8-.8-1.06-.62.18-.27,1-.8,1.24-.09.09-.18.09-.26-.09a7.69,7.69,0,0,1-1.77-6.29,7.37,7.37,0,0,0-.27-3.63c-.44-1.68-2.75-3.72-4.34-3.1-.89.27-1.77.71-2.66,1.06a4.53,4.53,0,0,0-1.94,2.31c-.45.88-.8,2.48-1.33,3.27-.89,1-.89,3.55.17,4.34,2.66,2.22,4.43,5.14,6.47,7.71a35.63,35.63,0,0,0,5.49,5.49,29.65,29.65,0,0,1,4.34,5.05,12.82,12.82,0,0,0,1.68,2.12c2.13,2,2,4.87,2.84,7.53a25,25,0,0,1,.44,5.76,2.41,2.41,0,0,1-1.06,2.39c-.54.26-.45.71-.54,1.15a18.26,18.26,0,0,1-2.65,6.37,3.13,3.13,0,0,1-2.22,1.6,1.86,1.86,0,0,0-1,.62,9.6,9.6,0,0,1-3.45,2.48c-.36.18-.71.44-1.07.26a3.19,3.19,0,0,0-2.83.45c-2.66,1.5-7.09.35-10.89-2-.36-.27-5.58-5.23-5.76-5.49-1.86-2.57,2.83,2.12,1.06-.62a4.88,4.88,0,0,1-.71-2.48c0-1.06-.88-1.6-1.32-2.39-.18-.36-.63-.53-.71-1.06.35-.27,1.24-.71,1.77-.18.71.79.88.35,1.41.62s.62.53,1.33,1.06c1,.8,1.15,1.59,1.77,2.3.89,1.24,1.86,1.51,3.19,2.13,3.1,1.24,6.2,3.9,8.95,1.06a7.68,7.68,0,0,0,2-5.84A31.21,31.21,0,0,0,130.1,261a3.09,3.09,0,0,0-.62-1.33c-3.36-4.69-6.11-8.68-10.36-12.39-2.21-1.78-4.87-4.88-5.67-7.62-.35-1.42-1.24-2.66-1.41-4.08a5.07,5.07,0,0,1,.08-2.3c.71-2.48,1.07-5.13,2-7.53a17,17,0,0,1,6.73-8,4,4,0,0,1,3-.62c1.6.27,3.1-.35,4.7-.53A18.18,18.18,0,0,1,133.91,216.67Zm-9.48,31.71c.27-.09-.7-1.95-1.32-2.66-.89-1.24-1.86-1.59-2-2.21-1.24-.8-2.22-1.95-3.63-2.31C119,243.86,122.22,246.61,124.43,248.38Z"/><path class="cls-2" d="M168.54,216.49c.53-.17,1.33,2.22,1.51,3,0-2.22.35-3.81,1.59-.45a46.09,46.09,0,0,1,1.86,4.87c.44,1.95,1.24,3.81,1.51,5.76.17,1.51.35,1.06,1.06,2.39,1.24,2.22,1.15,4.78,1.77,7.17a103.87,103.87,0,0,0,4,11.61,49.86,49.86,0,0,1,2.21,9c.18.8,0,1.68.18,2.57a79,79,0,0,0,3.27,9.74,13.31,13.31,0,0,1,1.33,6.29c-.09,1.06-.18,2.21-1.68,2.39a.78.78,0,0,1-.8,1c-.44-.44-1.06-.53-1.5-1.41-.18-.36-.8-.18-.89-.62-.35-1-1.59-1.24-1.77-.45-.35,1.6-2,.62-3.1.89a.89.89,0,0,1-1.33-.71c-1-2.92-1.95-5.76-2.66-8.59-.62-2.39-1.86-4.6-2.3-7.09a1.39,1.39,0,0,0-1.59-1.15c-3.46.18-6.11-.08-9.66.36-.79.09-2.3-.27-2.83.35s-.44,1.51-.71,2.31a49.25,49.25,0,0,0-1.06,4.87l-.71,6.11a21.14,21.14,0,0,1-.35,2.21c-.18,1.06-.62,1.33-1.95,1-.36-.08-1-2-1.33-.62-.18.8-.89-1.41-.8-2.3a73.64,73.64,0,0,1,2.13-11.6l.26-1.33c.18-1.24.18-1.15-1-1.5-.62-.18-1.33-.27-1.68-1,.35-.79,1.15-.62,1.77-.71,2-.53,1.77-.08,2-2.12.45-3,1.6-6.82,1.95-9.83a96,96,0,0,1,2.31-12.22,61.25,61.25,0,0,0,1.5-7.8c.44-2.65.89-5.31,1.24-7.88a3.6,3.6,0,0,0-.09-1.95c-.17-.62-.26-1.5.62-1.86s1.77-1.41,2.84-.79A4.44,4.44,0,0,0,168.54,216.49Zm-4.43,14.88a16.49,16.49,0,0,1-.79,5.49c-.62,2.22-.36,4.61-1.16,6.82a34.83,34.83,0,0,0-1.41,6.82c-.36,3-.89,6-1.42,9,2.92-.18,6.11-.27,8.95-.45a5.06,5.06,0,0,0,1.59-.35c1.33-.27,1.42-.44,1-1.68-.79-2-1.06-4.26-1.68-6.38-.53-1.77-.62-3.72-1.24-5.58a30.58,30.58,0,0,1-1.5-6.91,31.78,31.78,0,0,0-1.78-7.79C164.2,230.75,164,231.11,164.11,231.37ZM178,245.45c.17-.62-.62-3.8-1.07-4.07C176.25,242.09,177.84,244.92,178,245.45Z"/><path class="cls-2" d="M210,216.49a19,19,0,0,0,2.13,3.72,8.86,8.86,0,0,1,1.41,3.55c1.68,6.46,3.37,13.81,5,20.28.44,2,.89,4.07,1.6,6.46a29.36,29.36,0,0,0,1.15-5.58c.44-2.74.62-5.49,1.15-8.14.53-3,1.06-6,1.77-8.95.53-2.48.89-5.4,2-7.7.62-1.16,1.59-2.13,2.83-1.86l2.13.44a2.56,2.56,0,0,1,1.32.62c1.07,1.06,1.24,1,1.86-.53,0-.09.09-.09.27-.27.44.18.8.8,1.42.27.26-.27.79-.09,1.24.09.26.08.44.35.71.44,3.1,1,3.27,3.45,3.36,6,0,.35-.09.71-.09,1,.45,4.61-.35,9.21-.44,13.73,0,3.63.09,7.35.44,11,.36,3,.36,6.2.71,9.21.44,4,.09,8,.27,12a45.93,45.93,0,0,1,.35,5c-.18,1.86-1,2.57-2.92,2.12-.44.27-.27.71-.36,1.07a1.31,1.31,0,0,1-1.68.71c-2-.27-3.28-1.42-4.78-2.4a4.6,4.6,0,0,1-2.13-4.34,55.22,55.22,0,0,1,0-7.61,20.15,20.15,0,0,0-.17-4.61c-.54-5.58-.45-11.07-.89-16.65-.44-5.22-.35-10.45-1.06-15.67l-.27-.71a10,10,0,0,0-1.24,3.1c-.62,2.21-1.5,4.43-2,6.64-.88,4.52-1.94,8.95-1.94,13.55,0,1-.27,1.95-.36,3-.18,1.51-.88,3-.26,4.52s-.71,2.3-1.33,3.28c-.18.35-.62.17-.89,0a3.73,3.73,0,0,0-1.68-.45c-.18.62-.18,1.15.71,1.15s1.15,1.33,1.59,1.87c-.35.53-.71.44-1.24.53-1.5.17-3.27.09-3.81-.62-.71-.89-.88-.8-1.86-1.33a7.74,7.74,0,0,1-3.1-4c-2.12-5.4-4.16-10.89-5.75-16.47-.8-3-1.6-6.11-2.48-9.12a22.82,22.82,0,0,0-1-3c.36,1.77-.53,3.45-.17,5.22.35,2.13,0,4.25.09,6.47.17,3.54.08,7.26.35,10.8.27,3.1.44,6.2.89,9.21a21.63,21.63,0,0,1,.35,5.32,72.63,72.63,0,0,0-.18,8.85,1.79,1.79,0,0,1-.17,1.33c-.71,1-1.33,1.15-2.66.44-.36.18-.27.71-.8.8-.09-.18-.35-.27-.35-.53l-.27-5,.18-10.27a65.83,65.83,0,0,0-.44-9.3,156.2,156.2,0,0,1-.54-19.22c.09-4.52-.08-9.92,0-14.53a7.45,7.45,0,0,0-.08-1.94c-.09-.71.35-1.07,1-1.33a4.05,4.05,0,0,1,2.92.09c.62-.27.62-.89,1-1.24,1.24-1.24,1.41-1.42,3.1-.71a3.56,3.56,0,0,1,2.48,2,.49.49,0,0,0,.62.26c.17-.8-.18-1.68.26-2.39C209.72,216.05,209.9,216.23,210,216.49Zm25.33,23.3c.8-1.77.71-4.7-.18-5.76C234.26,236.07,235.23,237.75,235.32,239.79Z"/><path class="cls-2" d="M253.57,270.43c-1.33.53-1.78-1.06-2.13-1.86C252.77,268.66,253,269.72,253.57,270.43Zm21.87-53.76a5.18,5.18,0,0,1,4,3.72l1.59,5.05c.53,1.42,0,2.74-.18,4.07-.09.62-1,.62-1.33,1.24-.35.89-1,1.69-1.41,2.57-.53-.18-.44-.8-.8-1.06-.62.18-.26,1-.8,1.24-.08.09-.17.09-.26-.09a7.69,7.69,0,0,1-1.77-6.29,7.26,7.26,0,0,0-.27-3.63c-.44-1.68-2.74-3.72-4.34-3.1-.88.27-1.77.71-2.65,1.06a4.5,4.5,0,0,0-1.95,2.31c-.45.88-.8,2.48-1.33,3.27-.89,1-.89,3.55.18,4.34,2.65,2.22,4.42,5.14,6.46,7.71a35.63,35.63,0,0,0,5.49,5.49,29.21,29.21,0,0,1,4.34,5.05,12.82,12.82,0,0,0,1.68,2.12c2.13,2,2,4.87,2.84,7.53a25,25,0,0,1,.44,5.76,2.41,2.41,0,0,1-1.06,2.39c-.53.26-.45.71-.53,1.15a18.47,18.47,0,0,1-2.66,6.37,3.13,3.13,0,0,1-2.22,1.6,1.86,1.86,0,0,0-1,.62,9.52,9.52,0,0,1-3.45,2.48c-.36.18-.71.44-1.07.26a3.19,3.19,0,0,0-2.83.45c-2.66,1.5-7.08.35-10.89-2-.36-.27-5.58-5.23-5.76-5.49-1.86-2.57,2.83,2.12,1.06-.62a4.88,4.88,0,0,1-.71-2.48c0-1.06-.88-1.6-1.32-2.39-.18-.36-.62-.53-.71-1.06.35-.27,1.24-.71,1.77-.18.71.79.88.35,1.42.62s.62.53,1.32,1.06c1,.8,1.16,1.59,1.78,2.3.88,1.24,1.86,1.51,3.18,2.13,3.1,1.24,6.2,3.9,9,1.06a7.69,7.69,0,0,0,2-5.84,31.87,31.87,0,0,0-1.07-6.56,3.09,3.09,0,0,0-.62-1.33c-3.36-4.69-6.11-8.68-10.36-12.39-2.21-1.78-4.87-4.88-5.67-7.62-.35-1.42-1.24-2.66-1.41-4.08a5.07,5.07,0,0,1,.08-2.3c.71-2.48,1.07-5.13,2-7.53a17,17,0,0,1,6.73-8,4,4,0,0,1,3-.62c1.6.27,3.1-.35,4.7-.53A18.18,18.18,0,0,1,275.44,216.67ZM266,248.38c.27-.09-.7-1.95-1.32-2.66-.89-1.24-1.86-1.59-2-2.21-1.24-.8-2.21-1.95-3.63-2.31C260.56,243.86,263.75,246.61,266,248.38Z"/><path class="cls-2" d="M299.71,218.44c.18.27.26.27.53.27,1.33-.27,2.21.71,3.19,1.24a2.49,2.49,0,0,1,1.24,2c.09,1.86.09,3.63,0,5.4v.53c.26,3.19-.09,6.46.44,9.74a77.12,77.12,0,0,1,1.24,12,1.5,1.5,0,0,0,.36,1.07c1.94-.27,4-.62,6-1,.09,0,.18,0,.18-.09,1.06-1.41,2.65-.79,4.07-1.06h.71c1.68-.17,1.5-.26,1.95-1.86.53-1.95-.18-3.81,0-5.75.62-6.11.08-12.23.26-18.42,0-.71-.18-1.51-.26-2.31-.09-.53,0-1.15.44-1.33.79-.26,1-1.06,1.86-1.06.71.09.88.71,1,1.24a21.3,21.3,0,0,1,.53,4.25,11.09,11.09,0,0,0,.09,1.77c.18,2,.45,4.08.45,6.11s0,4.08.26,6.2c0,.18.18.36.62.45.18-5-.27-14.35-.27-15.41,0-2,1.6,2.39,1.6,3.89.18,3.28.27,6.47.62,9.66,0,.71-.18,2.92-.09,3.63.09,3.1-.09,6.2.27,9.3a23.34,23.34,0,0,1-.09,6c-.09.53.26,1.06.35,1.59a28.56,28.56,0,0,1,.36,7.26v1a25.07,25.07,0,0,1,.53,5.76c.09,1.06-.18,2.21-.09,3.36a2.72,2.72,0,0,1-1.06,1.95,4,4,0,0,0-1.07,1.86c-.17.44.89.53.27,1a6.55,6.55,0,0,1-2.21,1.6,8.16,8.16,0,0,0-1.78.79,2.9,2.9,0,0,1-1.5-3.27,1.38,1.38,0,0,0,.09-.8,35.88,35.88,0,0,1-.36-7.53c.09-1.5-.35-3-.26-4.51a41.14,41.14,0,0,0-.27-4.7,2.61,2.61,0,0,1,.53-2.48c.09-.09.09-.44.09-.44-1.06-.8-.53-1.86-.62-2.75-.09-.44-.26-.7-.71-.7-.79,0-1.59,0-2.39.08a77.16,77.16,0,0,0-8.94.36,2.57,2.57,0,0,0-.8.18,4.09,4.09,0,0,0,0,2.3,8.18,8.18,0,0,1,0,2.92,1.24,1.24,0,0,0,.09.8,6.53,6.53,0,0,1,0,2.92,24.74,24.74,0,0,0-.36,5c0,1.33.18,2.21.09,3.54a8.72,8.72,0,0,0-.09,2.57c.45,1.06,0,2.13.18,3.19.09.53-.26.8-.8.8-1.77.17-4.78,1.32-5.31-.09-.09-.27-.53-.18-.8.62-.44,1.24-2.39.71-3.72.79a3.22,3.22,0,0,1-.53-1.77c0-2.48-.26-4.87-.35-7.26-.09-1.77.09-3.54.09-5.22-.18-2.75,0-6.29,0-9.13,0-.88-.18-.88-1.07-1.15s-2.12-.17-2.74-1.24a7.76,7.76,0,0,1,2.3-.79c1.15-.36,1.42-.8,1.33-2a102.23,102.23,0,0,1-.35-11.6c0-5.76.08-11.52,0-17.36a4,4,0,0,0-.18-1.77,3.14,3.14,0,0,1,.09-2.39c.26-.54.44-.71.88-.8C297.23,217.38,298.65,217.38,299.71,218.44Z"/><path class="cls-2" d="M350.37,219.59a9.65,9.65,0,0,1,2.39,5.85c.18,3.9.18,8.68.53,12.84.27,3,.27,6,.62,9a20.05,20.05,0,0,0,.53,3.28,19.47,19.47,0,0,1,0,7.53c-.53,3.54-.44,7.08-.62,10.54-.09,1.59.09,3.19-.71,4.69a2.49,2.49,0,0,0,.09,1.77c.09.53.45,1.07-.26,1.51-.27.18-.09.53.09.71.44.53.17,1-.09,1.5-.71,1.15-.71,1.15-1.77.44-.71-.44-1.51-.53-1.86,0-1.95,3-2.66.27-4.87.54a1.14,1.14,0,0,1-1.16-.89,9.56,9.56,0,0,1-.62-3.1c0-2.39.09-4.78.09-7.08,0-2.57-.53-5-.71-7.44-.53-6-.17-12-.53-17.89-.18-3.1.09-6.29,0-9.3-.18-3.63.09-8.24.18-11.87.09-1.33.09-1.33,1.51-1.33a1.68,1.68,0,0,1,.62-.09c.26-.62-.18-1.15,0-1.77.26-.44.88-.17,1.23-.62.18-.17.54-.35.71-.26C347.36,218.44,349.13,218.27,350.37,219.59Zm.71,28.52v2c0,.35.53,1.5.62,1.95l.17,1.94a10.5,10.5,0,0,0,.36-1.06,8.31,8.31,0,0,0,.09-2.48c0-.53-.27-1.77-.36-2.39l-.44-3.72A18.38,18.38,0,0,0,351.08,248.11Z"/><path class="cls-2" d="M380.83,218.18c.27,1.24,1.33,1.95,1.78,3.18,1.15,3.46,1.32,7.09,2.65,10.54,1.95,5.32,3.37,10.9,5.32,16.21.7,2,1.15,4.16,1.77,6.2,1,3.45,2,6.91,3,10.36.09.18.18.44.44.44a44.36,44.36,0,0,0-.44-13.19c-.44.62-.09,1.24-.18,1.86a14.15,14.15,0,0,1-.09,1.95c-.62-.18-.53-.62-.53-1,0-2.21-.09-4.51-.26-6.82,0-1.32.26-2.74.26-4.16,0-1.77-.18-3.45-.26-5.14a34.92,34.92,0,0,1-.18-5.31c.18-4.25.26-8.41.09-12.66a3.35,3.35,0,0,1,.88-1.86c.18-.27.62-.27.89-.27a4.17,4.17,0,0,1,2.57,2.3c.09,2.66.79,5.32.62,8.06s0,5.49-.09,8.33c0,2.12.26,4.25.09,6.46-.18,3.9.08,7.8,0,11.78,0,2.39.62,4.87.79,7.35.18,3.1.89,6.11,1.07,9.21,0,.89.26,2-.27,2.39-1.15.8-.44,1.6-.44,2.4,0,.44.09.79.09,1.23a2.53,2.53,0,0,1-1.6,2.57.65.65,0,0,1-1-.35c-.53-.71-1.15-.62-1.86-.71-1.68-.27-3.37.27-4.87-.62-1.07.53-1.86-.44-2.84-.53-1.15-.09-1.59-.8-1.86-1.77-.62-2.22-1.33-4.34-1.86-6.56-.79-3.45-2-6.64-2.83-10.09-1-4.7-2.57-9.21-4-13.82a94.6,94.6,0,0,1-2.92-10.89c-.35-2.21-1-4.43-1.41-6.64-.62.17-.45.53-.45.71-.17,7.35-.35,14.61-.35,22,0,5.22.53,10.45.62,15.76.09,2.93.62,5.85.79,8.77a47.71,47.71,0,0,1,.09,5.14c-1.24-.53-1.94-1.51-3.18-1.77-.45-.09-.71-.71-.62-1.24a5,5,0,0,0-.62-2.22,3.48,3.48,0,0,1-.45-1.95c-.35-4.16-.35-8.32-.53-12.57a17.76,17.76,0,0,0-.35-3.63,3.56,3.56,0,0,1,0-1c.35-5-.27-10.18-.18-15.23.09-5.76.09-11.42.09-17.18,0-1.15-.09-2.39-.18-3.63,0-.71,0-1.06,1-1.33a5.65,5.65,0,0,1,3.63-.09,2,2,0,0,0,1.41-.26c2-1,4.17-.71,6.2-1C380.48,217.91,380.83,218,380.83,218.18Zm15.95,58.89c-.36-.71-.45-1.5-1.51-1.42C395.18,277.25,395.18,277.25,396.78,277.07Z"/><path class="cls-2" d="M425.12,218.8a.74.74,0,0,0,.62,0c3.72-.62,7.53-.53,11.25-1.15,1-.09,1.94-.36,2.92-.36a5.24,5.24,0,0,1,4.6,3.1,24.4,24.4,0,0,1-6.11,1c-2-.08-4-.17-6-.08-1.86.08-3.72.62-5.58.71-.53,0-.8.35-1,.88-.62,2.57-.09,5,.26,7.62.09.88,0,1.77,0,2.74a85.17,85.17,0,0,0,0,11.52c2.92-.45,5.76.35,8.59-.09,1.42-.27,2.22,1,3.37,1.77a3.59,3.59,0,0,1-1.95,1.06,9.26,9.26,0,0,0-2.57.62,21.77,21.77,0,0,1-6.38.89c-1.15.09-1.15.09-1.06,1.24.09,2.12.09,4.25,0,6.46a61.48,61.48,0,0,0-.26,7.09,7.81,7.81,0,0,1-.27,2.48,18,18,0,0,0-.44,6.55c.17.89.53,1.15,1.33,1.06a7.27,7.27,0,0,1,1.94-.09.61.61,0,0,1,.45.62c-1,.89-2.75-.09-3.81,1.24a2,2,0,0,0,1.77-.08c3.1-.8,6.2-1.25,9.3-2.13,1.59-.44,3.28-.18,4.87-.53a1.6,1.6,0,0,1,1.24.35c.53.53,1.06,1,1.59,1.42-.53.71-1.5.35-2.12.8-.18.53.35.79.53,1.24.44.62.27,1.15-.53,1.15a12.48,12.48,0,0,0-4,.88,16.25,16.25,0,0,1-2.92.45,40.82,40.82,0,0,0-8.06.53c-.71.17-1.33.17-1.5,1.24-.09.71-.62.79-1.24.26s-1.33-.26-2-.17a57.65,57.65,0,0,1-10.36.7c-.53,0-1-.44-1.51-.62a.84.84,0,0,1-.53-.88c0-.53.27-.71.71-.8a25.06,25.06,0,0,0,4.43-1.42c0-2-.09-4.07,0-6.19.53-6.56.17-12.76.71-19.31.44-6.38.62-12.84.79-19.22.09-3.19-.17-6.38-.17-9.47,0-.8-.36-1.16-1.07-1.16-1.15,0-1-.62-2.12-.79a1.43,1.43,0,0,1-1.24-.89,26.07,26.07,0,0,1,4.25-1,8.75,8.75,0,0,0,.18-1.42c0-.89.08-1.59,1.24-1.42.08,0,.26,0,.26-.09,1.6-1.5,3.1-.62,4.7-.08C423.35,217.47,424.41,217.73,425.12,218.8Zm-9.39,59.07c1.42-.18,1.42-.18,1.24-1.15-.09-.62.09-2.13-.44-2.75C415.55,274.86,415.91,276.81,415.73,277.87Z"/><path class="cls-2" d="M46,273.51l5.72,27.31q-8,45.14-16.06,90.27c-2.08-.12-4.15-.26-6.23-.39Q37.67,332.11,46,273.51Z"/><path class="cls-2" d="M104.62,3.06Q85.48,110.73,66.33,218.4l-7.5-35.85Q71.75,91.28,84.65,0Z"/><path class="cls-2" d="M15.69,36.3a32.92,32.92,0,0,0-3.53,1.19c.38,2.49,1.49,8.62,1.89,10.5a24.6,24.6,0,0,1,.56,4.68c0,1-.49,1.16-1.19.14a3.87,3.87,0,0,1-.76-2.71,49.58,49.58,0,0,0-1.05-10A17.71,17.71,0,0,1,6.29,50.13c-.55.48-.93.25-.39-.55a31.32,31.32,0,0,0,4.84-11.41c-1.22.61-2.69,1.33-4.37,2.27-.58.28-1.16.33-2.18-.34-.79-.47-.72-1,0-1a41.1,41.1,0,0,0,6.78-2.47c-.57-2.85-.9-4.08-1.36-4.76A18.5,18.5,0,0,1,6.82,33c-.81.26-1.06-.16-.36-.56,2.84-1.69,4.49-3.65,4.61-4.3s.29-.9,1.78-.13,1.41,1.49.55,1.76a18.41,18.41,0,0,0-3.08,1.64c1.5.4,1.66.9,1.43,1.84A9.88,9.88,0,0,0,12,36.16c.77-.35,1.43-.64,1.76-.84A2.19,2.19,0,0,1,16,35.07C16.58,35.32,16.5,36.07,15.69,36.3Zm-.22,6.36a11.69,11.69,0,0,1-2.28-1.81c-.54-.49-.47-.67.24-.78a2.29,2.29,0,0,1,2.85,1.63C16.51,42.42,16.07,43,15.47,42.66Zm11.43,1c-.27-.35-.88-1.19-1.58-2.19C21,43.88,20,44.68,19.07,45.67c-.5.56-.88.61-1.7-.43-.63-.81-.69-1.26-.15-1.76.4-.35.66-.74,1.08-2.28s2-8.62.81-10.67c-.62-1-.18-1.33,1.08-.85,1.81.71,2,1.3,1.67,2A5.14,5.14,0,0,0,21.42,33a55.48,55.48,0,0,1-3,10.43,67.62,67.62,0,0,0,6.34-2.69c-.62-.91-1.29-1.9-1.78-2.67s-.43-1.08.28-.72c3.47,1.81,4.49,3.27,4.79,5.1S27.57,44.58,26.9,43.69Z"/><path class="cls-2" d="M10.16,67.7a2.14,2.14,0,0,0,2.33,1,13,13,0,0,0,3.1-1.11,24.32,24.32,0,0,0-.33-4C15,62.32,14.62,62,14,62.12a2.54,2.54,0,0,0-1,.37l-.15-.2a1.79,1.79,0,0,1,1.64-1.66c1.1-.22,2.88.16,3.09,1.22.12.61-.15.79-.27,1.35a25.1,25.1,0,0,0-.15,3.59c2.37-1.24,3.75-2.44,4-3.82l.23-.08c1-.13,2.48-.42,2.67.54.16.8-.71,1.47-2.08,2.41a42.32,42.32,0,0,1-4.78,2.74c-.09,4.17-.64,11.93-.87,14.54-.31,3.95-.39,5-1.4,5.17-.46.09-.69-.23-.89-1.22-.08-.45-.17-1-.26-1.78A24.48,24.48,0,0,0,15,79.68a96,96,0,0,0,.63-10.44,12.29,12.29,0,0,1-2.6.92A2.55,2.55,0,0,1,9.89,68Zm15.11,5.19A34.71,34.71,0,0,1,28,69.35a10,10,0,0,0-5.69,2.79l-.42-.42a10.12,10.12,0,0,1,6.72-4.35c1.58-.32,3,.24,3.15,1,.1.55-.14.7-.52.77s-.54.08-.81.13c-1.5.3-3.18,2.09-4.67,4Zm-1.43,3.58a8.21,8.21,0,0,0-.23,3.5c.71,3.55,4.08,2.88,6.39,2.43a11.42,11.42,0,0,0,1.93-.52c.53-.14,1-.42,1.16-.46.86-.17,2,.24,2.12,1,.18.92-1.13,1.35-3.41,1.8-4.74.94-8.16.82-9-3.34a7.8,7.8,0,0,1,.56-4.6Z"/><path class="cls-2" d="M30.15,95.11a1.9,1.9,0,0,0,1.06,0c1-.2,2.09-.41,2.3.54.14.71-.34,1.07-1.73,1.94a52,52,0,0,1-7.6,3.5c.12,3,.42,7.63.63,8.69.07.35.16.5.27.48s.12-.09.18-.17c2-2.42,4.85-4.48,7.18-5,3.86-.76,6.27,1.56,7,5.27,1,5.18-3.86,8.61-12.55,10.53l-.3-.77c7.77-2.24,11.69-5.54,10.92-9.41-.63-3.17-2-5.06-5.11-4.44-2.76.54-5.19,2.92-6.52,5.61-.17.43-.11,1.29-.72,1.41a2.09,2.09,0,0,1-2.1-1.75c-.13-.64.13-.89.17-1.63.1-1.35-.33-5.79-.46-8.39a18.23,18.23,0,0,1-2.48.69c-2.44.49-3.58-.62-4.07-2l.32-.37c.65.77,1.42,1.28,3.48.88.67-.14,1.67-.47,2.63-.79a35.52,35.52,0,0,0-.35-4c-.19-.83-.5-1.27-1.25-1.12a4.27,4.27,0,0,0-.88.34l-.09,0a1.78,1.78,0,0,1,1.46-1.75c1-.2,2.71-.1,2.92,1,.13.68-.23,1-.27,2,0,.67,0,2,0,3.1A22.57,22.57,0,0,0,29.24,97c.7-.53.93-1,.75-1.51Z"/><path class="cls-2" d="M23,130.07a1.39,1.39,0,0,1,1-.76c1-.2,2.85,1,3.16,2.57.14.7-.15,1.06-.29,1.65a30.41,30.41,0,0,0-.07,12.29c.42,2.11,1.12,3.57,1.53,3.49s1.41-5.24,1.79-7.24l.62.14c-.5,3.82-1.06,7.89-.91,8.66s.46,1,.63,1.87c.12.64,0,1.27-.43,1.35-1.18.23-3.4-2.39-4.45-7.67a52.84,52.84,0,0,1-.68-10.77,17.7,17.7,0,0,0-.13-3.6c-.21-1.05-.64-1.93-1.68-1.89Zm11.68-2.58A1.56,1.56,0,0,1,36,126c1.26-.25,2.84.41,3,1.3a2.89,2.89,0,0,1-.13,1.19,10.47,10.47,0,0,0,.3,2.47c.12.77.22,1.58.35,2.36,2.35-.93,2.52-1.5,2.6-2.21,1.42-.15,2.46-.09,2.62.71s-.45,1.12-1.76,1.81A25.08,25.08,0,0,1,39.83,135c.24,1.19.5,2.26.67,3.1a38.25,38.25,0,0,0,1.73,6.34c1.91.52,5.43,1.85,5.86,4a1,1,0,0,1-.58,1.15c-.32.06-.76-.15-1.32-.74a11,11,0,0,0-3.4-2.29c.12.48.27,1.25.35,1.66.38,2.19-.74,3.68-3.42,4.21-3.19.63-5.49-.71-6-3.24s1.35-4.26,4.14-4.81a9.69,9.69,0,0,1,2.62-.15c-.5-1.67-1.47-5.73-2.06-8.71a20.31,20.31,0,0,1-3.34,1,4.06,4.06,0,0,1-3.92-1.36l.2-.57a3.85,3.85,0,0,0,3.16.51A18.37,18.37,0,0,0,38.1,134l-.57-2.88c-.57-2.88-.92-3.91-2.28-3.64a3.7,3.7,0,0,0-.5.17Zm6.28,18.31a6.32,6.32,0,0,0-2.92-.22c-2.11.42-3.56,1.67-3.23,3.33s2,2.22,4.3,1.78c2-.41,2.57-1.38,2.15-3.52C41.13,146.75,41.05,146.34,40.92,145.8Z"/><path class="cls-2" d="M51,169.17c-2.89.31-6,1.13-11.16,3a25.88,25.88,0,0,1-1.35,4.72c1.24-.34,4.3-1.35,6.81-2.34a5.47,5.47,0,0,0-1-2.06c-.61-.58-.25-1,.86-.74,1.76.45,1.8.91,1.56,1.42a2.22,2.22,0,0,0,0,.87c.9-.35,1.68-.67,2.08-.88a3.16,3.16,0,0,1,3-.06c.89.39.77,1.18-.71,1.34a30,30,0,0,0-4.15.82c.32,1.47,1,4.55,1.45,6.16a6.33,6.33,0,0,1-.46,5c-.35.73-.62.65-1.13.05a7.71,7.71,0,0,0-2.53-1.82c-.71-.36-.64-.71.05-.71,2,.09,2.46-.12,2.43-1.11a26.5,26.5,0,0,0-1.16-7.22,41.4,41.4,0,0,0-4.63,1.78,3.4,3.4,0,0,1-2.69.2,16.56,16.56,0,0,1-4.91,7c-1.1.91-1.23.67-.28-.55a29.57,29.57,0,0,0,5.39-11.31c-1.73.65-3.08,1.18-3.58,1.45-1.48.69-1.77.78-2.81.55s-1-.63-.12-.87,3.66-1.19,6.77-2.34a22.39,22.39,0,0,0,.46-2.62,8.17,8.17,0,0,1-2.72.31c-.64-.11-.83-.51-.06-.69.61-.16,1.91-.64,2.92-1,.1-.92.16-1.86.19-2.86-1.11.31-2.1.64-2.87.83a4.62,4.62,0,0,1-1.92.15c-.92-.15-.88-.49,0-.73s3.32-1.06,4.81-1.55a8,8,0,0,0-.56-3.52c-.51-1-.33-1.53,1.31-1,1.21.36,1.45.71,1.14,1.67a14.63,14.63,0,0,0-.32,2.19c3.79-1.68,4.45-1.87,5.41-1.77s1.24.89.2,1.26-3.46,1.22-5.77,2c-.05,1-.14,1.92-.22,2.8,3.72-1.6,4.11-1.74,4.72-1.73,1.06,0,1.23.55.47,1.07a37.46,37.46,0,0,1-5.37,2.13c-.11.88-.24,1.74-.43,2.61,3.87-1.4,7.74-2.8,8.51-3.12a4.31,4.31,0,0,1,3.62-.28C53.41,168.22,53.16,168.94,51,169.17Zm-8.89,12.47a7.72,7.72,0,0,1-1.83-2.49c-.27-.52-.11-.71.44-.59,1.37.3,2,.76,2.33,1.77C43.3,181.6,42.65,182.09,42.06,181.64Z"/><path class="cls-2" d="M50,209a1.66,1.66,0,0,0,.59,1.15c.51.46.4,1-.41,1.31-.47.16-3.39,1.17-5.69,2.06.55,2.08-.48,2.06-1,.63-1-2.78-2.06-4.81-3-5.59s-1.06-1.42,1-1.09a22.82,22.82,0,0,0,6.08-2.64c.44-.45.85-.5,2.3-.22,1.24.22,1.47.84,1,1.36C50.32,206.61,50.15,207.15,50,209Zm-5-6.51a5.59,5.59,0,0,1-3.47.32c-.72-.23-.81-.44-.08-.69a25.73,25.73,0,0,0,3.5-1.45c1.81-1,2.94-1.29,3.72-1.17.63.1.77.67.25,1.11A18.41,18.41,0,0,1,45,202.46Zm11.22,4.22a65.47,65.47,0,0,1,1.23,6.91c.19,2.19,0,3.6-.78,4.64-.57.78-.85.87-1.3.16a17.1,17.1,0,0,0-2.57-2.85c-.78-.67-.68-.89.13-.72,1.89.39,2.4.16,2.4-.41a81.06,81.06,0,0,0-2.83-18.1c-.33-1-.64-1.24-1.49-1.17a30,30,0,0,0-7,2.52,1.5,1.5,0,0,1-1.73-.19c-1-.69-1-.84,0-1,2.66-.46,7.62-2.41,8.43-3.23.44-.46.92-.45,2.17,0,2.08.75,2.22,1.06,1.77,2.31C54.23,196.56,54.45,199.18,56.18,206.68Zm-8.56-.49c-.75.28-3.15,1.25-5.06,2.13.44,1.11.91,2.38,1.46,3.87a39.44,39.44,0,0,0,4-1.79c.48-.26.62-1.09.35-3.43C48.27,206.26,48.06,206,47.62,206.19Z"/><path class="cls-2" d="M46.15,228.69a1.78,1.78,0,0,1,1.26-1.48c1.5-.3,3.17.5,3.36,1.5.1.48-.39.67-.42,2.07s-.06,2.81-.14,4.22a20.8,20.8,0,0,1,2.82-.92c3.86-.77,5,1.81,5.84,6.29.85,4.29,1,12-2.26,12.62-.56.11-.91-.42-1.27-1.21s-2.29-1.91-4-3l.24-.61c2.18,1,4,1.86,4.71,1.73.38-.08.63-.19,1-1.16.45-1.25.73-4.6-.08-8.7-.69-3.48-1.35-5.38-4-4.85a15.1,15.1,0,0,0-3,1.16,109.29,109.29,0,0,1-2,15.92c-.29,1.36-.63,2-1.06,2.11s-1-.37-1.24-1.62a5.75,5.75,0,0,1,.68-2.46c.9-2,1.9-8.69,2.12-13.19a19.82,19.82,0,0,0-2.45,1.55c-.26.22-.55.87-.9.94-1.23.25-2.38-1.32-2.61-2.48a1.53,1.53,0,0,1,.51-1.53l.12,0c0,.72.72,1.68,1.66,1.5a18.08,18.08,0,0,0,3.67-1.46,45.25,45.25,0,0,0-.2-5.91c-.2-1-.63-1.38-1.68-1.17a3,3,0,0,0-.53.14Zm11.13-2.57c3.39.69,4.71,2.29,4.89,3.22.11.54-.15,1-.47,1.09-.49.1-.73-.15-1.05-.65a8.62,8.62,0,0,0-3.59-3.09Zm1.33,4.62c5,.77,7.65,5,8.31,8.34.3,1.53,0,2.56-.64,2.68-.48.1-1-.1-1.22-1.25-.77-3.87-2.51-7.75-6.64-9.06Zm1.27-7.23c3.41.65,4.73,2.25,4.92,3.18.11.55-.16,1-.46,1.09-.48.09-.75-.15-1.05-.69a8.66,8.66,0,0,0-3.61-3Z"/><path class="cls-2" d="M71.21,283.39c-1.4.21-1.74.08-3.08-1.22a42.08,42.08,0,0,1-6.85-7.76c.06,5.25-1.51,9.38-6.43,11.69-.82.36-1,.09-.22-.56,3.52-2.86,6-6.71,5-14-1,.43-2,.92-2.85,1.36-1.3.72-1.82.76-2.74.48s-1.14-.54,0-1c1.33-.46,3.46-1.35,5.44-2.21-1-5.85-1.58-7.53-2.33-8.38-1.25-1.38-.5-1.66,1.3-1.29,1.42.28,1.73.59,1.59,1.71-.06.52,0,1.23.87,7.31a36.26,36.26,0,0,0,3.54-1.76c1.6-1.08,2.8-1.35,3.66-1,1.64.68,1.71,1.46-.14,1.86A46.27,46.27,0,0,0,61,270.94c.08.72.15,1.34.19,2a29.55,29.55,0,0,0,4.73,4.92c2.79,2.27,5.45,3,9.6,3.45,1,.09,1.22.55.26.88A36,36,0,0,1,71.21,283.39Z"/><path class="cls-2" d="M67.53,315.41a34,34,0,0,0-3-2.9A14.86,14.86,0,0,1,60.15,318c-.76.55-1,.25-.25-.55a28.64,28.64,0,0,0,3.72-5.8,11.57,11.57,0,0,0-1.77-1.34c-.63-.41-.77-.68-.83-1.7s-.1-1.74-.14-2.5a20.05,20.05,0,0,0-2.64,1.69c-.76.68-1.21.67-2.16.06-1.12-.71-1-1.26.15-1.36.87-.07,1.91-.44,4.59-1.54-.37-6.65-.7-8-1.41-9-.54-.62-.28-1.11.4-.91a5.09,5.09,0,0,1,1.7.83,1.37,1.37,0,0,1,.49,1.53c-.06.38-.13,2.72-.1,7l2.54-1.07a13.8,13.8,0,0,0-.3-1.67c-.22-.66,0-.79.74-.48,1.28.55,1.43,1.05,1.21,1.76a6.5,6.5,0,0,0-.14,1.52,19.63,19.63,0,0,1-.9,6.6c2.51,1.53,3.21,2.42,3.45,3.6S68.21,316.14,67.53,315.41Zm-5.65-9.82c0,1,0,2.09,0,3.28,0,.46,0,.62.38.79a19.11,19.11,0,0,1,1.72.93,21.07,21.07,0,0,0,.49-6.39Zm16.36-2.18a30.22,30.22,0,0,0-4.34,1,30.17,30.17,0,0,1,1.46,5.3c.72,3.88.79,6.09-.29,8.1-.49.87-.75.82-1.1.32a12.55,12.55,0,0,0-2.49-2.43c-.68-.5-.71-.79.27-.59,2.18.44,2.5-.06,2.44-2.91a30.34,30.34,0,0,0-1.5-7.38,27.17,27.17,0,0,0-3.55,1.43c-1.33.63-1.78.75-2.33.49-.8-.4-.77-.64.08-.87.63-.2,3.11-1.15,5.41-2.07a4.28,4.28,0,0,0-1.4-2.15c-.81-.41-1-.54-1-.77s1-.47,1.61-.19a26.4,26.4,0,0,0,1.32-4.25c.19-.77,0-1-.76-.65a22.42,22.42,0,0,0-3.33,2.06,1.87,1.87,0,0,1-1.87.1c-1-.39-1.14-.57-.12-.87a20.7,20.7,0,0,0,5.1-2.38c.86-.7,1.16-.76,2.55-.2,1.69.66,1.82,1.3,1.11,1.81-.88.6-1.34,1.09-3.65,4.61a7.56,7.56,0,0,1,1.56,2.39c1.28-.56,2.39-1,2.92-1.28a3.38,3.38,0,0,1,3.26-.25C81,302.65,80.5,303.16,78.24,303.41Z"/><path class="cls-2" d="M82.73,332c.51-.1,1,0,1.07.48s-.62,1.25-1.67,2a34.4,34.4,0,0,1-5.53,2.89A8.93,8.93,0,0,0,80.91,341a1.91,1.91,0,0,1,1.57,1.48.91.91,0,0,1-.68,1.2c-.56.12-1.16-.37-1.75-.55a9.32,9.32,0,0,0-4.13,0c-4.53.89-5.63,3.24-5.25,5.16.51,2.53,3,3.15,7.61,2.25l.18,0a18.14,18.14,0,0,0,3.78-1.31c1.05-.21,2.06.12,2.21.89.19.93-2,1.72-5.51,2.42-5.92,1.18-9.09-.09-9.82-3.64-.54-2.85,2-5.74,6.55-6.72A14.41,14.41,0,0,1,79,341.9l.09-.15a12,12,0,0,1-3.7-3.89,36.27,36.27,0,0,1-6.46,2.38A4.55,4.55,0,0,1,64,338.72l.26-.48a5,5,0,0,0,4.31.67,29.31,29.31,0,0,0,6.14-2.18,42.28,42.28,0,0,1-1.87-3.85,26.39,26.39,0,0,1-4.54,1.56,3.68,3.68,0,0,1-3.65-1.27l.21-.5a4,4,0,0,0,3,.54,24.55,24.55,0,0,0,4.43-1.54c-.35-.8-.81-1.87-1.08-2.52-.62-1.44-1.48-1.27-1.94-1.18a1.25,1.25,0,0,0-.92.55l-.18-.06c-.2-1,.43-1.92,2-2.27,1.29-.25,2.08.22,2.2.83.06.32.08.52.14.84a22.93,22.93,0,0,0,1.11,3.2c3.29-1.51,4-2.31,3.82-3.18.24-.08.45-.12.66-.17,1.18-.23,1.84,0,1.94.48s-.34,1-1.27,1.62a33.88,33.88,0,0,1-4.68,2.52,25.41,25.41,0,0,0,1.87,3.79,18,18,0,0,0,3.87-2.23c.46-.32.71-.61.66-.9s-.17-.29-.43-.44l.27-.49a3.51,3.51,0,0,0,1.69.1Z"/><path class="cls-2" d="M69.07,364.89a1.87,1.87,0,0,0,2.18,1.33,9.64,9.64,0,0,0,2.06-.74c2-.93,8.2-3.59,11.74-4.79a3.54,3.54,0,0,0,1.67-1.13c2.33.07,3.3.48,3.5,1.47.1.52-.36.74-1.06.88s-1.33.16-2,.29c-2.86.57-5.82,4.62-6.69,7.68a16.16,16.16,0,0,0-.18,7.39c.9,4.54,3.48,5.33,6.61,5.24A14.16,14.16,0,0,1,89,382.3a1.92,1.92,0,0,1,1.6,1.48c.11.54-.27.85-1,1a8,8,0,0,1-.82.1c-6.71.4-8.92-1.89-10-7.24-1.21-6.14,1.66-11.73,5-15.12l0-.09c-3.06,1-9.58,4.06-10.65,5.57a2,2,0,0,1-1.11.82c-1.16.23-3-1.21-3.19-2.46a1.84,1.84,0,0,1,.18-1.47Zm16.43,3.23c3.42.69,4.57,2.15,4.75,3.08.11.55-.13,1-.45,1.09s-.73-.19-1-.69a7.94,7.94,0,0,0-3.47-2.94Zm2.21-3.3c3.42.69,4.55,2.19,4.74,3.12.11.54-.11,1-.43,1.05-.49.1-.74-.19-1.06-.69a7.77,7.77,0,0,0-3.47-2.9Z"/><path class="cls-2" d="M83.51,393.53A1.78,1.78,0,0,1,85,391.91c1.31-.26,3,.35,3.15,1.28a3.89,3.89,0,0,1-.11,1.28,16.76,16.76,0,0,0,.43,2.74c1.71-.5,3.38-.93,4.2-1.13a2.41,2.41,0,0,0,1.91-1.34c1.62.18,3.38.63,3.57,1.59.06.32-.32.63-.67.7-.83.16-1.92,0-3.36.16-.46.06-1,.18-1.7.3-1.26.25-2.72.58-3.72.88.17.86.95,5.06,1.19,6A10.16,10.16,0,0,1,91.62,409c1,5-.55,9.35-5.77,12.35l-.45-.58a10.55,10.55,0,0,0,4.68-9.84,3.5,3.5,0,0,1-2.85,2.36c-2.38.47-4.53-1.36-5.08-4.15-.61-3.07.89-5.76,3.38-6.26a3.5,3.5,0,0,1,2.56.4c-.33-1.67-.69-3.36-1-4.47A39.83,39.83,0,0,0,79,402.15c-.6.38-.64.72-1.26.85-1,.16-2.78-1.15-3-2.4a1.79,1.79,0,0,1,.21-1.33l.16,0a2.08,2.08,0,0,0,2.7,1.43c1.34-.27,7.69-2.52,9.13-3-.93-3.87-1.09-4.54-2.54-4.25a4.41,4.41,0,0,0-.71.2Zm5.65,13.18c-.27-1.34-1.55-3-3.42-2.65-1.53.31-2.59,2-2.06,4.67.45,2.24,2.18,3.23,3.41,3C89.42,411.25,89.69,409.4,89.16,406.71Z"/></svg>
