<svg id="Layer_1" data-name="Layer 1" xmlns="http://www.w3.org/2000/svg" viewBox="0 0 75 75"><defs><style>.cls-1{fill:#fcfcfc;}</style></defs><title>logo</title><path class="cls-1" d="M17.86,50.17l1,4.91Q17.45,63.2,16,71.31l-1.11-.07Z"/><path class="cls-1" d="M28.24,1.55,21.46,40.27l-1.32-6.45Q22.42,17.41,24.71,1Z"/><path class="cls-1" d="M12.92,8.81a.48.48,0,0,1,.41.29l.22.46a.76.76,0,0,1,.06.39c0,.06-.07.08-.09.14a2.68,2.68,0,0,1-.07.27s0-.07-.09-.09,0,.1,0,.13h0A.87.87,0,0,1,13,9.83a.86.86,0,0,0-.09-.35c-.07-.15-.3-.31-.42-.22l-.21.14a.45.45,0,0,0-.12.25,3.26,3.26,0,0,1,0,.33.38.38,0,0,0,.09.42,4.07,4.07,0,0,1,.68.63,2.84,2.84,0,0,0,.57.43,3,3,0,0,1,.46.42,1,1,0,0,0,.18.17c.21.16.26.44.37.68a2.38,2.38,0,0,1,.14.54.23.23,0,0,1,0,.24s0,.08,0,.12a1.74,1.74,0,0,1-.11.65.26.26,0,0,1-.16.19.27.27,0,0,0-.07.08.78.78,0,0,1-.25.29s-.05.05-.08,0a.23.23,0,0,0-.23.09,1,1,0,0,1-1,0,6.36,6.36,0,0,1-.59-.43c-.2-.21.28.16.08-.07a.48.48,0,0,1-.1-.23c0-.1-.11-.14-.16-.21s-.06,0-.08-.09.09-.08.15,0,.08,0,.13,0a1.17,1.17,0,0,1,.13.08.85.85,0,0,1,.19.19.64.64,0,0,0,.31.15c.29.07.6.27.78,0a.87.87,0,0,0,.07-.59,3.64,3.64,0,0,0-.21-.61.36.36,0,0,0-.08-.12,6.59,6.59,0,0,0-1.1-1,1.7,1.7,0,0,1-.62-.63c0-.13-.15-.24-.19-.37a.56.56,0,0,1,0-.22,6.19,6.19,0,0,1,0-.75,1.6,1.6,0,0,1,.43-.87A.34.34,0,0,1,12.08,9a1.36,1.36,0,0,0,.39-.12A1.42,1.42,0,0,1,12.92,8.81ZM12,14.29c-.11.07-.17-.07-.22-.14C11.94,14.14,12,14.23,12,14.29Zm.65-2.3s-.09-.18-.16-.23-.19-.13-.21-.18a1,1,0,0,0-.35-.16A3,3,0,0,0,12.69,12Z"/><path class="cls-1" d="M13.86,17.37s.15.19.18.26c0-.21,0-.36.13-.06a3.62,3.62,0,0,1,.24.43,4,4,0,0,1,.23.53c0,.14,0,.09.14.21a3.54,3.54,0,0,1,.28.66c.16.36.35.7.54,1a5.17,5.17,0,0,1,.35.83c0,.07,0,.16.06.24.14.3.29.59.46.88a1.31,1.31,0,0,1,.22.57c0,.11,0,.22-.1.26a.08.08,0,0,1-.05.11s-.1,0-.15-.12-.07,0-.09,0-.15-.09-.16,0-.16.09-.24.13-.1,0-.13-.05c-.13-.26-.27-.52-.38-.77s-.24-.41-.32-.64a.12.12,0,0,0-.15-.09c-.29.07-.52.09-.82.19-.06,0-.2,0-.23.08s0,.15,0,.23a3.84,3.84,0,0,0,0,.48l.05.6c0,.06,0,.14,0,.21s0,.14-.15.13-.12-.18-.12,0-.1-.12-.11-.21a7.27,7.27,0,0,1,0-1.14v-.13c0-.12,0-.11-.11-.13s-.12,0-.16-.07.09-.07.14-.09.14,0,.13-.24,0-.67,0-1a9.62,9.62,0,0,1,0-1.2,6.6,6.6,0,0,0,0-.77l0-.77a.37.37,0,0,0-.05-.18c0-.06,0-.14,0-.19s.13-.16.23-.12A.38.38,0,0,0,13.86,17.37Zm-.11,1.49a1.64,1.64,0,0,1,0,.54c0,.22.06.44,0,.67a3.75,3.75,0,0,0,0,.67c0,.29,0,.59,0,.89l.75-.19a.31.31,0,0,0,.13-.06c.11,0,.11-.06,0-.17s-.16-.39-.25-.59-.12-.34-.21-.51a3.06,3.06,0,0,1-.25-.63,3.62,3.62,0,0,0-.29-.72A.11.11,0,0,0,13.75,18.86ZM15.18,20a.89.89,0,0,0-.16-.37C15,19.69,15.16,19.94,15.18,20Z"/><path class="cls-1" d="M14.72,26a1.61,1.61,0,0,0,.25.32,1.11,1.11,0,0,1,.18.32c.26.59.53,1.26.78,1.86.08.18.15.37.26.59a3.28,3.28,0,0,0,0-.55c0-.27,0-.54-.05-.8s0-.59,0-.88a3.29,3.29,0,0,1,0-.77c0-.12.09-.23.2-.22h.19a.31.31,0,0,1,.13,0c.1.09.12.08.14-.08l0,0s.08.07.13,0,.06,0,.1,0a.15.15,0,0,1,.07,0c.28,0,.34.27.39.52a.31.31,0,0,1,0,.09,12.07,12.07,0,0,1,.21,1.32c.07.35.14.7.24,1s.14.59.22.87.15.76.24,1.13a4.05,4.05,0,0,1,.12.47c0,.18,0,.26-.21.25s0,.07,0,.11a.11.11,0,0,1-.13.09.93.93,0,0,1-.45-.15.47.47,0,0,1-.26-.38,5.86,5.86,0,0,1-.13-.73,3,3,0,0,0-.1-.43c-.15-.53-.24-1-.37-1.58s-.22-1-.38-1.48l0-.06a.93.93,0,0,0-.05.32c0,.22-.05.44-.05.66a8.41,8.41,0,0,0,.08,1.33c0,.09,0,.19,0,.29a.9.9,0,0,0,0,.43c.08.14,0,.23,0,.34s-.05,0-.07,0a.29.29,0,0,0-.16,0c0,.06,0,.11.09.09s.12.11.16.16-.05.05-.09.07-.28.06-.34,0-.08-.06-.18-.1a.75.75,0,0,1-.33-.33,16,16,0,0,1-.78-1.48c-.13-.27-.25-.56-.38-.83,0-.09-.08-.18-.13-.27.06.16,0,.34.07.5a6,6,0,0,1,.13.61c.08.34.14.7.22,1s.15.58.24.86a2.25,2.25,0,0,1,.13.51,7.74,7.74,0,0,0,.14.84.15.15,0,0,1,0,.13c0,.11-.09.14-.22.09s0,.07,0,.09,0,0,0-.05l-.11-.47-.17-1a8.63,8.63,0,0,0-.2-.88,16.11,16.11,0,0,1-.4-1.83c-.07-.43-.18-.94-.26-1.38a.65.65,0,0,0,0-.19c0-.06,0-.1.06-.14a.32.32,0,0,1,.25,0s0-.09.06-.13.09-.16.25-.12a.34.34,0,0,1,.25.16s0,0,.05,0,0-.16,0-.23A0,0,0,0,1,14.72,26Zm2.56,1.82a.7.7,0,0,0-.12-.55C17.13,27.44,17.24,27.59,17.28,27.78Z"/><path class="cls-1" d="M17.7,34.17a.47.47,0,0,1,.4.29l.23.46a.89.89,0,0,1,.06.39c0,.06-.08.08-.09.14s-.06.18-.08.27,0-.07-.08-.09,0,.1-.05.13,0,0,0,0a.84.84,0,0,1-.27-.58.84.84,0,0,0-.08-.34c-.07-.15-.3-.31-.43-.22a.9.9,0,0,0-.2.14A.41.41,0,0,0,17,35a3.26,3.26,0,0,1-.05.33.4.4,0,0,0,.09.42,4.13,4.13,0,0,1,.69.63,3.21,3.21,0,0,0,.56.43,3,3,0,0,1,.46.42,1.45,1.45,0,0,0,.18.17c.22.16.26.44.38.68a4.26,4.26,0,0,1,.14.54.26.26,0,0,1-.05.24.11.11,0,0,0,0,.12,2,2,0,0,1-.12.65c0,.09-.07.17-.15.19a.2.2,0,0,0-.08.08.85.85,0,0,1-.24.29s-.06,0-.09,0-.16,0-.23.09a1,1,0,0,1-1,0s-.57-.4-.59-.43c-.2-.21.28.16.08-.07a.6.6,0,0,1-.1-.23c0-.1-.1-.14-.16-.21s-.06,0-.08-.09.1-.08.15,0,.08,0,.13,0a1.17,1.17,0,0,1,.13.08c.1.06.13.13.2.19a.57.57,0,0,0,.3.15c.29.07.6.27.78,0a.81.81,0,0,0,.07-.59,3.64,3.64,0,0,0-.21-.61.36.36,0,0,0-.08-.12,6.59,6.59,0,0,0-1.1-1,1.61,1.61,0,0,1-.61-.63,3.35,3.35,0,0,1-.2-.37.56.56,0,0,1,0-.22c0-.25,0-.51,0-.75a1.66,1.66,0,0,1,.42-.87.38.38,0,0,1,.25-.11,1.46,1.46,0,0,0,.39-.12A1.33,1.33,0,0,1,17.7,34.17Zm-.89,5.48c-.1.07-.17-.07-.21-.14S16.75,39.59,16.81,39.65Zm.65-2.3s-.09-.18-.16-.23-.18-.13-.21-.18a1,1,0,0,0-.35-.16A3.4,3.4,0,0,0,17.46,37.35Z"/><path class="cls-1" d="M17.81,43.08a.06.06,0,0,0,.05,0c.11-.05.2,0,.29.06a.24.24,0,0,1,.14.18,4.59,4.59,0,0,1,.1.51v0c.08.3.11.62.21.93A8.18,8.18,0,0,1,18.93,46a.16.16,0,0,0,.05.09,4.94,4.94,0,0,0,.49-.19h0c.06-.15.21-.12.32-.16l.06,0c.14,0,.13-.05.14-.2a3.15,3.15,0,0,0-.11-.55c0-.6-.21-1.17-.31-1.77,0-.06,0-.14-.06-.21a.14.14,0,0,1,0-.14c.07,0,.07-.11.14-.13s.09.06.11.11a2.52,2.52,0,0,1,.12.39.85.85,0,0,0,0,.17c.05.19.11.38.15.58a5.43,5.43,0,0,0,.13.58s0,0,.06,0c-.07-.48-.28-1.37-.3-1.47s.18.2.21.35c.07.31.13.61.22.91,0,.07,0,.28.06.35.06.29.1.59.19.88a2.82,2.82,0,0,1,.1.58s0,.09.06.14A3.29,3.29,0,0,1,21,47l0,.09a3.29,3.29,0,0,1,.14.54c0,.1,0,.22.06.33a.26.26,0,0,1-.06.2.41.41,0,0,0,0,.19s.08,0,0,.09a.6.6,0,0,1-.16.19l-.14.1a.31.31,0,0,1-.19-.28.11.11,0,0,0,0-.08,4.57,4.57,0,0,1-.17-.71c0-.15-.08-.29-.1-.43a3.69,3.69,0,0,0-.11-.45.29.29,0,0,1,0-.24s0,0,0,0-.08-.17-.1-.26,0-.06-.07-.05l-.2,0a7,7,0,0,0-.76.18l-.06,0a.54.54,0,0,0,0,.22.64.64,0,0,1,.05.28.09.09,0,0,0,0,.07.82.82,0,0,1,.05.28,3.14,3.14,0,0,0,.06.48c0,.13.05.21.07.34a.57.57,0,0,0,0,.24,1.73,1.73,0,0,1,.07.31.05.05,0,0,1,0,.08c-.15,0-.38.21-.45.08s0,0-.06.07-.19.11-.3.14a.35.35,0,0,1-.08-.16c0-.24-.11-.46-.16-.69s-.06-.34-.09-.5-.11-.6-.16-.87c0-.08,0-.08-.11-.09s-.18,0-.26-.08A.93.93,0,0,1,18,46.5c.09,0,.1-.1.07-.21-.1-.37-.17-.72-.24-1.1-.1-.55-.19-1.1-.31-1.66a.38.38,0,0,0,0-.16.31.31,0,0,1,0-.23c0-.06,0-.08.06-.09A.36.36,0,0,1,17.81,43.08Z"/><path class="cls-1" d="M20.61,51.42a1,1,0,0,1,.31.52c.08.37.17.82.27,1.21s.13.58.22.86a1.51,1.51,0,0,0,.1.3,2.3,2.3,0,0,1,.14.72c0,.35.09.68.13,1a1,1,0,0,1,0,.45.24.24,0,0,0,0,.17s0,.1,0,.15,0,0,0,.07,0,.09,0,.14,0,.12-.14.07-.14,0-.16,0c-.11.32-.22.07-.4.13s-.09,0-.11-.07a.69.69,0,0,1-.11-.28c0-.23-.08-.46-.12-.68s-.14-.46-.2-.7c-.15-.56-.23-1.14-.36-1.7-.07-.29-.11-.6-.17-.88s-.14-.79-.2-1.14c0-.13,0-.13.11-.15l0,0c0-.06,0-.11,0-.17s.07,0,.09-.08,0,0,.05,0S20.48,51.31,20.61,51.42Zm.57,2.71,0,.19a1.51,1.51,0,0,0,.09.18l.05.18a.87.87,0,0,1,0-.11,1.07,1.07,0,0,0,0-.23c0-.05,0-.17-.07-.23l-.11-.34A2.87,2.87,0,0,0,21.18,54.13Z"/><path class="cls-1" d="M21.67,59.83c0,.12.14.17.2.28.16.31.24.65.42,1,.26.48.48,1,.74,1.46l.26.57c.14.31.3.62.44.94,0,0,0,0,.05,0a4.61,4.61,0,0,0-.28-1.25c0,.07,0,.12,0,.18s0,.13,0,.19-.06,0-.06-.09c0-.21-.09-.43-.15-.64s0-.27-.05-.4-.08-.33-.12-.49-.08-.33-.11-.5c-.06-.41-.13-.81-.22-1.21a.42.42,0,0,1,0-.2s.05,0,.07,0a.4.4,0,0,1,.26.18,7.1,7.1,0,0,1,.2.76c0,.27.1.53.14.8s.1.4.13.61c.05.38.14.75.21,1.13,0,.23.14.45.2.69s.18.57.25.86c0,.08.06.19,0,.23s0,.16,0,.24l0,.11a.24.24,0,0,1-.09.27s-.07,0-.09,0-.11,0-.17,0-.28.08-.42,0-.17,0-.25,0-.15,0-.19-.14-.19-.39-.28-.59-.29-.61-.42-.92-.38-.84-.58-1.26a9.73,9.73,0,0,1-.45-1c-.07-.21-.16-.41-.24-.61a0,0,0,0,0,0,.07c.12.71.23,1.4.36,2.1.1.5.24,1,.34,1.5.06.28.16.55.22.82a3.26,3.26,0,0,1,.1.49c-.11,0-.19-.11-.3-.12s-.07,0-.07-.1a.58.58,0,0,0-.1-.21.33.33,0,0,1-.07-.17c-.1-.4-.18-.79-.27-1.2a2.9,2.9,0,0,0-.09-.34.13.13,0,0,1,0-.09c-.06-.49-.21-1-.29-1.45l-.3-1.64c0-.11-.05-.23-.08-.35s0-.1.06-.14a.46.46,0,0,1,.3-.07.17.17,0,0,0,.12,0,1.39,1.39,0,0,1,.51-.2S21.66,59.81,21.67,59.83Zm2.4,5.37c0-.06-.06-.14-.15-.11S23.94,65.24,24.07,65.2Z"/><path class="cls-1" d="M23.79,68.32a1.07,1.07,0,0,1,.31.52c.08.37.17.83.28,1.22s.13.57.21.85a2.81,2.81,0,0,0,.1.31,2.19,2.19,0,0,1,.14.72c0,.34.09.68.14,1a1.19,1.19,0,0,1,0,.46.33.33,0,0,0,0,.17s.06.09,0,.15,0,0,0,.06,0,.09,0,.15,0,.12-.14.07-.14,0-.16,0c-.11.32-.22.07-.4.13a.1.1,0,0,1-.11-.07.92.92,0,0,1-.11-.29L24,73.14c-.05-.25-.13-.47-.19-.7-.16-.57-.23-1.14-.37-1.7-.07-.29-.11-.6-.17-.89s-.14-.79-.2-1.13c0-.13,0-.13.11-.15a.06.06,0,0,1,.05,0c0-.07,0-.11,0-.17s.07,0,.09-.08a.08.08,0,0,1,.06,0C23.52,68.26,23.66,68.22,23.79,68.32ZM24.36,71l0,.2s.07.13.09.18l.05.18a.75.75,0,0,1,0-.11,1.07,1.07,0,0,0,0-.24s-.05-.16-.07-.22l-.11-.35A2.73,2.73,0,0,0,24.36,71Z"/></svg>
