<svg id="Layer_1" data-name="Layer 1" xmlns="http://www.w3.org/2000/svg" viewBox="0 0 1922.01 170"><defs><style>.cls-1{fill:#333232;opacity:0.9;}</style></defs><title>navbar_v2</title><path class="cls-1" d="M1921.69,168.4c-33.79,10.81-73.73-36.74-160-36.08-74.24.56-85.37,36.08-160,36.08-75.08,0-84.55-35.94-160-36.08-75.08-.15-84.57,35.41-160,35.41s-84.92-35.56-160-35.41c-75.45.14-84.92,36.09-160,36.08-75.27,0-84.85-36.08-160-36.08S717,168.4,641.69,168.4s-84.85-36.08-160-36.08-84.85,36.08-160,36.08c-74.63,0-85.76-35.53-160-36.08-86.24-.65-126,46.87-160,36.08C-23,160.56-38.15,124,.69,0h1921C1961.16,123.94,1946.24,160.55,1921.69,168.4Z"/></svg>
