<svg id="Layer_1" data-name="Layer 1" xmlns="http://www.w3.org/2000/svg" viewBox="0 0 1910.01 240"><title>navbar_mobile</title><path d="M3190.87,235.8c-67.58,21.62-147.46-73.48-320-72.17-148.48,1.12-170.74,72.16-320,72.17-150.16,0-169.11-71.88-320-72.17-150.15-.28-169.14,70.84-320,70.84s-169.85-71.12-320-70.84c-150.89.29-169.84,72.18-320,72.17-150.53,0-169.69-72.17-320-72.17s-169.48,72.17-320,72.17-169.69-72.17-320-72.17c-150.52,0-169.69,72.17-320,72.17-149.25,0-171.52-71.06-320-72.17-172.47-1.29-252.11,93.76-320,72.17-49.32-15.68-79.69-88.87-2-336.8h3842C3269.81,146.87,3240,220.1,3190.87,235.8Z"/></svg>
