<svg id="Layer_1" data-name="Layer 1" xmlns="http://www.w3.org/2000/svg" viewBox="0 0 1910.01 120"><title>navbar_v2</title><path d="M1915.69,118.4c-33.79,10.81-73.73-36.74-160-36.08-74.24.56-85.37,36.08-160,36.08-75.08,0-84.55-35.94-160-36.08-75.08-.15-84.57,35.41-160,35.41s-84.92-35.56-160-35.41c-75.45.14-84.92,36.09-160,36.08-75.27,0-84.85-36.08-160-36.08S711,118.4,635.69,118.4s-84.85-36.08-160-36.08-84.85,36.08-160,36.08c-74.63,0-85.76-35.53-160-36.08-86.24-.65-126,46.87-160,36.08C-29,110.56-44.15,74-5.31-50h1921C1955.16,73.94,1940.24,110.55,1915.69,118.4Z"/></svg>
