<svg id="Layer_1" data-name="Layer 1" xmlns="http://www.w3.org/2000/svg" viewBox="0 0 212.6 212.6"><defs><style>.cls-1{fill:#fff;}.cls-2{fill:#cf5967;}.cls-3{fill:#ee7489;}</style></defs><title>nigiri_icon</title><path class="cls-1" d="M209.09,103c2.4,56.71-42.55,104-100.41,105.71S3.19,166.88,2.28,111.57,46.32,8.94,102.68,5.86,206.68,46.27,209.09,103Z"/><path class="cls-2" d="M136,9.32l36,44.33c5.94,7.11,8.21,17.85,5.92,28.09l-5.69,25.58A91.71,91.71,0,0,1,185.32,121a25.8,25.8,0,0,0,6.44,3.54L204.45,77c-.62-2.59-1.21-5.16-1.74-7.72a26.14,26.14,0,0,0-4-9.5C182.25,35.7,160.41,17.47,136,9.32Z"/><path class="cls-2" d="M127.52,68.14,79.5,9.78A118.42,118.42,0,0,0,45.68,28.22L85.79,71.41C91.24,77.1,94.15,85.76,94,94.79c13-3.86,26-5.66,38.52-4.36C134.14,82.24,132.23,73.67,127.52,68.14Z"/><path class="cls-2" d="M168.61,58.2,127,6.78a82,82,0,0,0-38.76.35c-1,.26-2,.58-3.06.87l45.6,55.36c5.89,6.9,8.32,17.5,6.54,27.7A70.38,70.38,0,0,1,168,104l5.27-23.73C175,72.24,173.27,63.79,168.61,58.2Z"/><path class="cls-2" d="M206.78,87l-10.31,38.56a1.7,1.7,0,0,0,.39,0,20.84,20.84,0,0,0,7.26-4.49c3.76-3.62,4.43-8.86,4.27-14.1C208.18,100.19,208.27,93.6,206.78,87Z"/><path class="cls-2" d="M40.56,88,14,63.06q-3,4.55-5.72,9.37a11.4,11.4,0,0,0-.92,2c-4.23,12-4.92,24.88-3.9,37.83,2.63,8,7.48,14.42,14.16,16.88l1.7.65c4.21.42,8.68-.72,13.16-3.69S41.79,120,46.58,117l.34-1.34C49.62,105.25,47,93.88,40.56,88Z"/><path class="cls-2" d="M82.76,76.61,41.19,31.86A146.3,146.3,0,0,0,17.46,58.05L43.33,82.36c7.39,6.8,10.81,19.19,8.92,31.27A209.56,209.56,0,0,1,89.19,96.34C89.6,88.75,87.3,81.36,82.76,76.61Z"/><path class="cls-3" d="M43.33,82.36,17.46,58.05c-1.17,1.64-2.33,3.3-3.45,5L40.56,88c6.44,5.91,9.06,17.28,6.36,27.71L46.58,117q2.82-1.72,5.67-3.39C54.14,101.55,50.72,89.16,43.33,82.36Z"/><path class="cls-3" d="M85.79,71.41,45.68,28.22c-1.51,1.18-3,2.38-4.49,3.64L82.76,76.61c4.54,4.75,6.84,12.14,6.43,19.73q2.41-.82,4.85-1.55C94.15,85.76,91.24,77.1,85.79,71.41Z"/><path class="cls-3" d="M130.79,63.36,85.19,8c-1.92.54-3.81,1.14-5.69,1.78l48,58.36c4.71,5.53,6.62,14.1,5,22.29,1.6.16,3.18.37,4.77.63C139.11,80.86,136.68,70.26,130.79,63.36Z"/><path class="cls-3" d="M191.76,124.51a17.29,17.29,0,0,0,4.71,1L206.78,87c-.74-3.33-1.55-6.65-2.33-10Z"/><path class="cls-3" d="M172,53.65,136,9.32a91.16,91.16,0,0,0-9-2.54l41.6,51.42c4.66,5.59,6.43,14,4.64,22.09L168,104c1.42,1,2.81,2.14,4.2,3.3l5.69-25.58C180.16,71.5,177.89,60.76,172,53.65Z"/></svg>
