<svg id="Layer_1" data-name="Layer 1" xmlns="http://www.w3.org/2000/svg" viewBox="0 0 212.6 212.6"><defs><style>.cls-1{fill:#fff;}.cls-2{fill:#adbda3;}.cls-3{fill:#59827e;}.cls-4{fill:#cf5967;}.cls-5{fill:#ee7489;}.cls-6{fill:none;stroke:#143b64;stroke-miterlimit:10;stroke-width:5px;}.cls-7{fill:#e5b5bf;}</style></defs><title>uramaki_icon</title><path class="cls-1" d="M203.09,100.93c2.26,53.74-40.1,98.59-94.63,100.18S9,161.5,8.17,109.08,49.68,11.82,102.8,8.91,200.83,47.2,203.09,100.93Z"/><path class="cls-2" d="M104.77,89.64c11.22-14.32,16.65-29.57,19-45.81a6.89,6.89,0,0,0-6-7.89,82.11,82.11,0,0,0-9.34-.58A73.19,73.19,0,0,0,37,93.23a17.73,17.73,0,0,0,16.84,21.44C71.52,115,92.29,105.57,104.77,89.64Z"/><path class="cls-3" d="M140.27,42.61a10.8,10.8,0,0,0-15,6.72c-5.14,17.17-11.42,35.21-3.7,52.94,7.33,16.79,24.78,26.61,42.33,34.19a10.84,10.84,0,0,0,14.68-6.88,73.22,73.22,0,0,0-38.34-87Z"/><path class="cls-4" d="M61.48,140.37l11.57-25.92A72.54,72.54,0,0,1,57,117.87L44.66,142.2c7.89,15.35,20.72,27.93,36.42,34.53l-18-23A13,13,0,0,1,61.48,140.37Z"/><path class="cls-4" d="M111.91,139.26,126,113.83a70,70,0,0,1-7.54-10.56,9.66,9.66,0,0,0-9-4.56l-21.09,41.9a10.2,10.2,0,0,0,1.2,11l24.15,29.67a81.44,81.44,0,0,0,20.61-4.81l-20.56-22.06A13,13,0,0,1,111.91,139.26Z"/><path class="cls-4" d="M85.87,139.34l20.15-40a13.35,13.35,0,0,0-1.48.58l-13.88,6.64a99,99,0,0,1-14,6.63L64.05,141.51A10.18,10.18,0,0,0,65.32,152L86.1,178.6a63.53,63.53,0,0,0,22.42,3.11c.61,0,1.21-.08,1.82-.12L87.4,153.42A13.06,13.06,0,0,1,85.87,139.34Z"/><path class="cls-4" d="M42.66,138c.15.34.31.67.47,1l10.58-20.91C44.41,118.84,38.85,129.39,42.66,138Z"/><path class="cls-4" d="M140.76,152.11l13.84,13c1.75-1.38,3.43-2.85,5-4.38,7.06-6.76,5.47-18.88-3.35-23.09a84.28,84.28,0,0,1-12.46-7.38l-5.11,9.65A10.22,10.22,0,0,0,140.76,152.11Z"/><path class="cls-4" d="M136.24,138.56l5.31-10A99.65,99.65,0,0,1,128,116.08l-13.58,24.54a10.19,10.19,0,0,0,1.46,11.91l21.31,22.85a75.5,75.5,0,0,0,15.19-8.59l-13.49-12.63A13,13,0,0,1,136.24,138.56Z"/><path class="cls-5" d="M140.76,152.11a10.22,10.22,0,0,1-2-12.24l5.11-9.65c-.77-.55-1.53-1.12-2.28-1.69l-5.31,10a13,13,0,0,0,2.6,15.6l13.49,12.63c.77-.56,1.53-1.13,2.27-1.72Z"/><path class="cls-5" d="M114.37,140.62,128,116.08c-.68-.76-1.33-1.5-2-2.25l-14.08,25.43a13,13,0,0,0,1.87,15.18l20.56,22.06c.94-.36,1.88-.73,2.8-1.12l-21.31-22.85A10.19,10.19,0,0,1,114.37,140.62Z"/><path class="cls-5" d="M88.38,140.61l21.09-41.9a12.37,12.37,0,0,0-3.45.6l-20.15,40a13.06,13.06,0,0,0,1.53,14.08l22.94,28.17c1.14-.07,2.27-.16,3.39-.28L89.58,151.64A10.2,10.2,0,0,1,88.38,140.61Z"/><path class="cls-5" d="M54.12,118.07l-.41.05L43.13,139c.49,1.07,1,2.13,1.53,3.17L57,117.87C56,118,55.08,118,54.12,118.07Z"/><path class="cls-5" d="M64.05,141.51,76.7,113.16c-1.21.46-2.43.89-3.65,1.29L61.48,140.37a13,13,0,0,0,1.63,13.31l18,23c1.65.69,3.32,1.32,5,1.87L65.32,152A10.18,10.18,0,0,1,64.05,141.51Z"/><path class="cls-6" d="M182.74,105.28C184.48,146.44,152,180.8,110.25,182s-76.16-30.35-76.82-70.5S65.22,37,105.92,34.79,181,64.12,182.74,105.28Z"/><path class="cls-4" d="M110.31,14.27a90.68,90.68,0,0,1,20.33,2.54,13,13,0,0,1,4.5-8,99,99,0,0,0-22.89-3.36A10.21,10.21,0,0,0,110.31,14.27Z"/><path class="cls-4" d="M86.55,17.05a94.44,94.44,0,0,1,17.65-2.66c1.08-.06,2.15-.09,3.23-.11a13,13,0,0,1,1.45-8.88q-2.56,0-5.16.15A104.12,104.12,0,0,0,87.54,7.73,10.2,10.2,0,0,0,86.55,17.05Z"/><path class="cls-4" d="M173.69,41.4a90.89,90.89,0,0,1,11.69,14.65,13,13,0,0,1,8-3.89,99.34,99.34,0,0,0-11.79-15.28l-3.81,1.51A10.12,10.12,0,0,0,173.69,41.4Z"/><path class="cls-4" d="M133.38,17.52a89,89,0,0,1,19.26,7.85,13,13,0,0,1,6.72-5.26l1.17-.4a97.59,97.59,0,0,0-21.91-9.88A10.16,10.16,0,0,0,133.38,17.52Z"/><path class="cls-4" d="M186.93,58.54a91,91,0,0,1,9.68,22.8,13,13,0,0,1,7.61-5.54A99.6,99.6,0,0,0,195,54.85l-1,.07A10.2,10.2,0,0,0,186.93,58.54Z"/><path class="cls-4" d="M155.09,26.78a91.18,91.18,0,0,1,14.73,10.88c.63.58,1.25,1.16,1.86,1.75a13,13,0,0,1,5.1-3.63l2.74-1.09c-1.22-1.22-2.47-2.42-3.75-3.58a100.07,100.07,0,0,0-12.21-9.47l-3.3,1.13A10.24,10.24,0,0,0,155.09,26.78Z"/><path class="cls-4" d="M198.36,83.91l-.74,1.51a94.92,94.92,0,0,1,2.21,16.76c.06,1.51.09,3,.08,4.51a13,13,0,0,1,8.82,1.85c.05-2.23,0-4.48-.06-6.73A103.07,103.07,0,0,0,205,78.5,10.18,10.18,0,0,0,198.36,83.91Z"/><path class="cls-4" d="M62.92,26.41a95.48,95.48,0,0,1,20.9-8.64A13,13,0,0,1,84,8.58,104,104,0,0,0,61.88,17,10.15,10.15,0,0,0,62.92,26.41Z"/><path class="cls-4" d="M33.08,52.27a97.63,97.63,0,0,1,11.8-12.85,12.92,12.92,0,0,1-5.5-6.91A106.12,106.12,0,0,0,25,48.28,10.19,10.19,0,0,0,33.08,52.27Z"/><path class="cls-4" d="M10.28,95.44l4.51-.52a91.48,91.48,0,0,1,5.54-20.25L19,74.85a13,13,0,0,1-7.66-1.32A99.45,99.45,0,0,0,5.85,95,10.3,10.3,0,0,0,10.28,95.44Z"/><path class="cls-4" d="M18.59,72.07l3-.41a95.71,95.71,0,0,1,9.52-16.74,13,13,0,0,1-7.77-4.27,104,104,0,0,0-11,20.26A10.23,10.23,0,0,0,18.59,72.07Z"/><path class="cls-4" d="M122.23,196.53a97.45,97.45,0,0,1-12.74,1.22,99.55,99.55,0,0,1-19.92-1.43A13,13,0,0,1,83,203.79l-.35.18a107.11,107.11,0,0,0,23.85,2.67c1.07,0,2.14,0,3.22,0,3.25-.1,6.47-.35,9.65-.73l.18-.19A10.16,10.16,0,0,0,122.23,196.53Z"/><path class="cls-4" d="M149.11,187.87A93.28,93.28,0,0,1,125,196a13,13,0,0,1-1.63,9.27,102.35,102.35,0,0,0,30-9.65A10.18,10.18,0,0,0,149.11,187.87Z"/><path class="cls-4" d="M86.77,195.79a93.54,93.54,0,0,1-25.13-9,13,13,0,0,1-7.54,5.94,101.6,101.6,0,0,0,24.39,10.18l3.3-1.63A10.2,10.2,0,0,0,86.77,195.79Z"/><path class="cls-4" d="M178.15,165.1c-.87,1-1.76,2-2.69,3a92.58,92.58,0,0,1-23.64,18.34,13,13,0,0,1,4.2,7.8,101.38,101.38,0,0,0,25.92-20.11c.25-.26.48-.53.72-.8A10.21,10.21,0,0,0,178.15,165.1Z"/><path class="cls-4" d="M199.84,109.55a90.47,90.47,0,0,1-5.25,27.22,13,13,0,0,1,7.57,5.07,99.09,99.09,0,0,0,6.44-30l-.75-.55A10.23,10.23,0,0,0,199.84,109.55Z"/><path class="cls-4" d="M193.58,139.43a90.89,90.89,0,0,1-13.64,23.49,13.06,13.06,0,0,1,5.19,7.64,100.13,100.13,0,0,0,15.7-25.44A10.18,10.18,0,0,0,193.58,139.43Z"/><path class="cls-4" d="M22.55,146.75a86.32,86.32,0,0,1-7.46-22.92,13,13,0,0,1-8.56,2.49,94.9,94.9,0,0,0,7.54,23.26l1.25,0A10.19,10.19,0,0,0,22.55,146.75Z"/><path class="cls-4" d="M14.59,120.57a85.1,85.1,0,0,1-.83-10.5,89.23,89.23,0,0,1,.64-12.28l-3.81.43a13,13,0,0,1-5.09-.43,100.39,100.39,0,0,0-.6,12.43A96.64,96.64,0,0,0,6,123.45,10.17,10.17,0,0,0,14.59,120.57Z"/><path class="cls-4" d="M36.51,167.25a88.28,88.28,0,0,1-12.62-17.9,13.07,13.07,0,0,1-8.42,3.05,96.46,96.46,0,0,0,11,16.79l4.55-.13A10.24,10.24,0,0,0,36.51,167.25Z"/><path class="cls-4" d="M59.18,185.44A92.66,92.66,0,0,1,41,171.89c-.87-.83-1.72-1.69-2.55-2.56a13,13,0,0,1-7.35,2.53l-2.31.07c1.93,2.19,4,4.32,6.09,6.36a102,102,0,0,0,15.94,12.45l2.28-.63A10.2,10.2,0,0,0,59.18,185.44Z"/><path class="cls-4" d="M47.11,37.45a98.58,98.58,0,0,1,13.37-9.63,13,13,0,0,1-2-9.06A106.41,106.41,0,0,0,41.72,30.45,10.15,10.15,0,0,0,47.11,37.45Z"/><path class="cls-5" d="M31.12,54.92c.64-.89,1.29-1.78,2-2.65a10.19,10.19,0,0,1-8-4c-.58.78-1.14,1.57-1.69,2.37A13,13,0,0,0,31.12,54.92Z"/><path class="cls-5" d="M44.88,39.42c.74-.66,1.48-1.32,2.23-2a10.15,10.15,0,0,1-5.39-7c-.79.67-1.57,1.36-2.34,2.06A12.92,12.92,0,0,0,44.88,39.42Z"/><path class="cls-5" d="M19,74.85l1.37-.18c.41-1,.83-2,1.27-3l-3,.41a10.23,10.23,0,0,1-6.27-1.16c-.35.86-.69,1.74-1,2.62A13,13,0,0,0,19,74.85Z"/><path class="cls-5" d="M10.59,98.22l3.81-.43c.11-1,.24-1.92.39-2.87l-4.51.52A10.3,10.3,0,0,1,5.85,95c-.13.94-.25,1.89-.35,2.84A13,13,0,0,0,10.59,98.22Z"/><path class="cls-5" d="M60.48,27.82c.81-.48,1.62-.95,2.44-1.41a10.15,10.15,0,0,1-1-9.46c-1.14.58-2.27,1.18-3.38,1.81A13,13,0,0,0,60.48,27.82Z"/><path class="cls-5" d="M199.91,106.69c0,1,0,1.91-.07,2.86a10.23,10.23,0,0,1,8,1.78l.75.55c.06-1.11.1-2.22.13-3.34A13,13,0,0,0,199.91,106.69Z"/><path class="cls-5" d="M130.64,16.81c.92.22,1.83.46,2.74.71a10.16,10.16,0,0,1,5.24-7.69q-1.73-.54-3.48-1A13,13,0,0,0,130.64,16.81Z"/><path class="cls-5" d="M107.43,14.28c.61,0,1.23,0,1.85,0l1,0a10.21,10.21,0,0,1,1.94-8.82c-1.12,0-2.24,0-3.37,0A13,13,0,0,0,107.43,14.28Z"/><path class="cls-5" d="M83.82,17.77c.91-.26,1.82-.49,2.73-.72a10.2,10.2,0,0,1,1-9.32c-1.2.27-2.4.54-3.59.85A13,13,0,0,0,83.82,17.77Z"/><path class="cls-5" d="M15.09,123.83c-.19-1.08-.35-2.17-.5-3.26A10.17,10.17,0,0,1,6,123.45c.15,1,.31,1.92.49,2.87A13,13,0,0,0,15.09,123.83Z"/><path class="cls-5" d="M22.55,146.75a10.19,10.19,0,0,1-7.23,2.85l-1.25,0c.45.95.92,1.89,1.4,2.82a13.07,13.07,0,0,0,8.42-3.05C23.43,148.48,23,147.62,22.55,146.75Z"/><path class="cls-5" d="M38.45,169.33c-.66-.68-1.3-1.38-1.94-2.08A10.24,10.24,0,0,1,31,169.06l-4.55.13c.75.92,1.53,1.83,2.32,2.74l2.31-.07A13,13,0,0,0,38.45,169.33Z"/><path class="cls-5" d="M61.64,186.79c-.83-.43-1.65-.89-2.46-1.35a10.2,10.2,0,0,1-6.08,4.67l-2.28.63c1.08.69,2.18,1.35,3.28,2A13,13,0,0,0,61.64,186.79Z"/><path class="cls-5" d="M89.57,196.32c-.94-.16-1.87-.34-2.8-.53a10.2,10.2,0,0,1-5,5.49l-3.3,1.63c1.39.38,2.78.74,4.19,1.06l.35-.18A13,13,0,0,0,89.57,196.32Z"/><path class="cls-5" d="M125,196c-.92.17-1.85.34-2.78.49a10.16,10.16,0,0,1-2.65,9.15l-.18.19c1.33-.16,2.66-.35,4-.56A13,13,0,0,0,125,196Z"/><path class="cls-5" d="M151.82,186.46c-.89.49-1.8,1-2.71,1.41a10.18,10.18,0,0,1,4.23,7.79c.9-.45,1.8-.92,2.68-1.4A13,13,0,0,0,151.82,186.46Z"/><path class="cls-7" d="M118.11,174.86l.15.06-.05-.16Z"/><path class="cls-5" d="M179.94,162.92c-.59.73-1.18,1.46-1.79,2.18a10.21,10.21,0,0,1,4.51,8.25c.84-.92,1.67-1.85,2.47-2.79A13.06,13.06,0,0,0,179.94,162.92Z"/><path class="cls-5" d="M194.59,136.77c-.32.9-.66,1.78-1,2.66a10.18,10.18,0,0,1,7.25,5.69c.46-1.08.91-2.18,1.33-3.28A13,13,0,0,0,194.59,136.77Z"/><path class="cls-5" d="M196.61,81.34c.37,1.35.7,2.71,1,4.08l.74-1.51A10.18,10.18,0,0,1,205,78.5c-.25-.9-.52-1.8-.79-2.7A13,13,0,0,0,196.61,81.34Z"/><path class="cls-5" d="M185.38,56.05c.53.82,1.05,1.65,1.55,2.49A10.2,10.2,0,0,1,194,54.92l1-.07c-.53-.91-1.06-1.8-1.62-2.69A13,13,0,0,0,185.38,56.05Z"/><path class="cls-5" d="M171.68,39.41c.68.65,1.35,1.32,2,2a10.12,10.12,0,0,1,4.12-3l3.81-1.51q-1-1.11-2.1-2.19l-2.74,1.09A13,13,0,0,0,171.68,39.41Z"/><path class="cls-5" d="M152.64,25.37c.82.46,1.64.93,2.45,1.41a10.24,10.24,0,0,1,5.17-4l3.3-1.13c-1-.66-2-1.31-3-1.93l-1.17.4A13,13,0,0,0,152.64,25.37Z"/></svg>
