<svg id="Layer_1" data-name="Layer 1" xmlns="http://www.w3.org/2000/svg" viewBox="0 0 212.6 212.6"><defs><style>.cls-1{fill:#fff;}.cls-2{fill:none;stroke:#143b64;stroke-miterlimit:10;stroke-width:9px;}.cls-3{fill:#154853;}.cls-4{fill:#59827e;}.cls-5{fill:#ea8891;}.cls-6{fill:#e5b5bf;}</style></defs><title>futomaki_icon</title><path class="cls-1" d="M205.34,102.21c2.3,54.63-40.77,100.22-96.2,101.84S8.06,163.78,7.18,110.49,49.38,11.61,103.39,8.65,203,47.58,205.34,102.21Z"/><path class="cls-2" d="M205.34,102.21c2.3,54.63-40.77,100.22-96.2,101.84S8.06,163.78,7.18,110.49,49.38,11.61,103.39,8.65,203,47.58,205.34,102.21Z"/><path class="cls-3" d="M104.21,89.65c11.4-14.56,16.93-30.06,19.36-46.58a7,7,0,0,0-6-8,82.77,82.77,0,0,0-9.5-.59A74.42,74.42,0,0,0,35.26,93.3a18,18,0,0,0,17.12,21.79C70.41,115.38,91.52,105.84,104.21,89.65Z"/><path class="cls-4" d="M140.3,41.84a11,11,0,0,0-15.22,6.83c-5.23,17.45-11.61,35.79-3.76,53.81,7.45,17.07,25.19,27.06,43,34.77a11,11,0,0,0,14.92-7,74.44,74.44,0,0,0-39-88.41Z"/><path class="cls-5" d="M60.2,141.22,72,114.87a73.88,73.88,0,0,1-16.33,3.48L43.1,143.08c8,15.61,21.06,28.4,37,35.11L61.85,154.75A13.19,13.19,0,0,1,60.2,141.22Z"/><path class="cls-5" d="M111.47,140.09l14.31-25.85a70.73,70.73,0,0,1-7.67-10.74c-1.83-3.24-5.44-4.75-9.12-4.64l-21.45,42.6a10.38,10.38,0,0,0,1.22,11.22l24.56,30.17a83.17,83.17,0,0,0,21-4.9l-20.91-22.42A13.21,13.21,0,0,1,111.47,140.09Z"/><path class="cls-5" d="M85,140.18l20.49-40.7a13.72,13.72,0,0,0-1.5.59l-14.12,6.74a100,100,0,0,1-14.18,6.75L62.81,142.38A10.35,10.35,0,0,0,64.1,153l21.13,27.09A64.66,64.66,0,0,0,108,183.24c.62,0,1.23-.07,1.85-.11L86.55,154.48A13.24,13.24,0,0,1,85,140.18Z"/><path class="cls-5" d="M41.06,138.83c.15.34.32.68.48,1L52.3,118.6C42.84,119.33,37.19,130.06,41.06,138.83Z"/><path class="cls-5" d="M140.8,153.16l14.07,13.17c1.77-1.41,3.48-2.89,5.12-4.46,7.17-6.87,5.57-19.19-3.4-23.46a85.24,85.24,0,0,1-12.67-7.51l-5.2,9.82A10.39,10.39,0,0,0,140.8,153.16Z"/><path class="cls-5" d="M136.2,139.38l5.4-10.19a101.18,101.18,0,0,1-13.82-12.67l-13.82,25a10.37,10.37,0,0,0,1.49,12.11l21.67,23.23a76.45,76.45,0,0,0,15.44-8.73l-13.71-12.84A13.26,13.26,0,0,1,136.2,139.38Z"/><path class="cls-6" d="M140.8,153.16a10.39,10.39,0,0,1-2.08-12.44l5.2-9.82c-.79-.56-1.56-1.14-2.32-1.71l-5.4,10.19a13.26,13.26,0,0,0,2.65,15.86l13.71,12.84c.78-.57,1.55-1.15,2.31-1.75Z"/><path class="cls-6" d="M114,141.47l13.82-25c-.69-.76-1.36-1.52-2-2.28l-14.31,25.85a13.21,13.21,0,0,0,1.89,15.44L134.27,178q1.44-.54,2.85-1.14l-21.67-23.23A10.37,10.37,0,0,1,114,141.47Z"/><path class="cls-6" d="M87.54,141.46,109,98.86a12.82,12.82,0,0,0-3.51.62L85,140.18a13.24,13.24,0,0,0,1.56,14.3l23.32,28.65c1.16-.07,2.31-.17,3.45-.28L88.76,152.68A10.38,10.38,0,0,1,87.54,141.46Z"/><path class="cls-6" d="M52.72,118.55l-.42,0L41.54,139.86c.5,1.09,1,2.16,1.56,3.22l12.53-24.73C54.66,118.43,53.69,118.51,52.72,118.55Z"/><path class="cls-6" d="M62.81,142.38l12.87-28.82c-1.24.47-2.48.91-3.72,1.31L60.2,141.22a13.19,13.19,0,0,0,1.65,13.53l18.28,23.44q2.5,1,5.1,1.9L64.1,153A10.35,10.35,0,0,1,62.81,142.38Z"/></svg>
