<svg id="Layer_1" data-name="Layer 1" xmlns="http://www.w3.org/2000/svg" viewBox="0 0 212.6 212.6"><defs><style>.cls-1{fill:#fff;}.cls-2{fill:none;stroke:#143b64;stroke-miterlimit:10;stroke-width:9px;}.cls-3{fill:#ea8891;}.cls-4{fill:#e5b5bf;}</style></defs><title>hosomaki_icon</title><path class="cls-1" d="M205.34,102.21c2.3,54.63-40.77,100.22-96.2,101.84S8.06,163.78,7.18,110.49,49.38,11.61,103.39,8.65,203,47.58,205.34,102.21Z"/><path class="cls-2" d="M205.34,102.21c2.3,54.63-40.77,100.22-96.2,101.84S8.06,163.78,7.18,110.49,49.38,11.61,103.39,8.65,203,47.58,205.34,102.21Z"/><path class="cls-3" d="M61.91,107.67,76,73.67a76.48,76.48,0,0,1-18.27,4.77L43.2,110.82c8.21,19.79,21.72,35.38,38.43,42.74L63.15,124.94A19.09,19.09,0,0,1,61.91,107.67Z"/><path class="cls-3" d="M118,104.09l17.9-32.18a79.79,79.79,0,0,1-7.63-13.07c-1.78-4-5.72-5.82-9.85-5.67L91.74,106.81c-2.22,4.67-2,10.2.65,14l24.22,35.91a90.42,90.42,0,0,0,22.7-7.65l-20.5-26.06C114.89,118.07,114.53,110.43,118,104.09Z"/><path class="cls-3" d="M89,105.3,114.39,54a13.84,13.84,0,0,0-1.73.74L96.42,63.22a119.88,119.88,0,0,1-16.19,8.71L64.71,109.05a14.89,14.89,0,0,0,1,13.52l21.29,33a55.94,55.94,0,0,0,24,2.13c.66-.08,1.32-.2,2-.3L89.88,123.24C86.56,118.33,86.21,111.27,89,105.3Z"/><path class="cls-3" d="M41.09,105.38c.15.44.33.88.49,1.32l12.5-27.87C43.58,80,37.06,94.11,41.09,105.38Z"/><path class="cls-3" d="M148.7,118.67l13.8,15q3.1-2.7,6-5.65c8.54-8.58,8.23-23.09-1.08-27.81a77.11,77.11,0,0,1-13.09-8.54l-6.67,12C144.87,108.82,145.31,115,148.7,118.67Z"/><path class="cls-3" d="M145,102.21,152,89.67a99.36,99.36,0,0,1-14.08-15l-17.3,31c-2.69,5-2.42,11,.65,14.86l21.23,27a103.22,103.22,0,0,0,17.39-11.63l-13.45-14.62C142.07,116.59,141.49,108.72,145,102.21Z"/><path class="cls-4" d="M148.7,118.67c-3.39-3.69-3.83-9.85-1-15l6.67-12c-.81-.65-1.6-1.32-2.38-2L145,102.21c-3.54,6.51-3,14.38,1.36,19.08l13.45,14.62c.9-.73,1.79-1.48,2.66-2.24Z"/><path class="cls-4" d="M120.57,105.69l17.3-31c-.7-.92-1.37-1.84-2-2.75L118,104.09c-3.42,6.34-3.06,14,.86,19l20.5,26.06c1.05-.51,2.1-1,3.14-1.58l-21.23-27C118.15,116.64,117.88,110.66,120.57,105.69Z"/><path class="cls-4" d="M91.74,106.81l26.63-53.64a13.51,13.51,0,0,0-4,.78L89,105.3c-2.82,6-2.47,13,.85,17.94l23.05,34.15c1.23-.18,2.46-.39,3.68-.62L92.39,120.86C89.78,117,89.52,111.48,91.74,106.81Z"/><path class="cls-4" d="M54.54,78.76c-.15,0-.3.06-.46.07L41.58,106.7c.51,1.39,1.05,2.77,1.62,4.12L57.77,78.44C56.7,78.57,55.62,78.69,54.54,78.76Z"/><path class="cls-4" d="M64.71,109.05,80.23,71.93c-1.39.62-2.79,1.2-4.19,1.74l-14.13,34a19.09,19.09,0,0,0,1.24,17.27l18.48,28.62a53.22,53.22,0,0,0,5.32,2l-21.29-33A14.89,14.89,0,0,1,64.71,109.05Z"/></svg>
