<svg id="Layer_1" data-name="Layer 1" xmlns="http://www.w3.org/2000/svg" viewBox="0 0 212.6 212.6"><defs><style>.cls-1{fill:#fff;}.cls-2{fill:#cf5967;}.cls-3{fill:#ee7489;}</style></defs><title>nigiri_icon</title><path class="cls-1" d="M208.23,105.63c2.42,57-42.8,104.65-101,106.34S1.11,169.92.19,114.28,44.49,11,101.19,7.94A101.59,101.59,0,0,1,208.23,105.63Z"/><path class="cls-2" d="M136.52,9.3l36.22,44.62c6,7.16,8.26,18,6,28.27L173,107.93a92.94,92.94,0,0,1,13.23,13.74,25.53,25.53,0,0,0,6.48,3.57l12.77-47.82c-.62-2.6-1.22-5.2-1.75-7.77a26.3,26.3,0,0,0-4-9.56C183.11,35.85,161.13,17.5,136.52,9.3Z"/><path class="cls-2" d="M128,68.5,79.69,9.76a119,119,0,0,0-34,18.56L86,71.79c5.48,5.73,8.41,14.45,8.3,23.54,13.08-3.89,26.16-5.7,38.77-4.4C134.68,82.7,132.76,74.07,128,68.5Z"/><path class="cls-2" d="M169.37,58.5,127.51,6.74a82.54,82.54,0,0,0-39,.35c-1,.27-2.06.59-3.09.88l45.9,55.71c5.93,7,8.38,17.62,6.58,27.89a70.93,70.93,0,0,1,30.86,13.05l5.3-23.89C175.85,72.62,174.06,64.12,169.37,58.5Z"/><path class="cls-2" d="M207.8,87.44l-10.38,38.81a1.26,1.26,0,0,0,.39,0,20.74,20.74,0,0,0,7.31-4.52c3.78-3.63,4.46-8.91,4.29-14.19C209.21,100.76,209.29,94.12,207.8,87.44Z"/><path class="cls-2" d="M40.49,88.46,13.77,63.39Q10.77,68,8,72.82a12.32,12.32,0,0,0-.93,2c-4.25,12.1-4.94,25-3.91,38.07,2.64,8.08,7.52,14.52,14.25,17l1.71.66a20.24,20.24,0,0,0,13.24-3.72c4.62-3.12,9.36-6.19,14.18-9.16l.35-1.34C49.61,105.85,47,94.41,40.49,88.46Z"/><path class="cls-2" d="M83,77,41.13,32A147.84,147.84,0,0,0,17.24,58.34l26,24.47c7.44,6.84,10.89,19.32,9,31.47a211.55,211.55,0,0,1,37.18-17.4C89.86,89.25,87.54,81.8,83,77Z"/><path class="cls-3" d="M43.28,82.81l-26-24.47c-1.18,1.66-2.34,3.33-3.47,5L40.49,88.46c6.49,6,9.12,17.39,6.41,27.89l-.35,1.34q2.84-1.72,5.71-3.41C54.17,102.13,50.72,89.65,43.28,82.81Z"/><path class="cls-3" d="M86,71.79,45.65,28.32q-2.3,1.77-4.52,3.66L83,77c4.57,4.77,6.89,12.22,6.47,19.85q2.43-.82,4.88-1.55C94.43,86.24,91.5,77.52,86,71.79Z"/><path class="cls-3" d="M131.31,63.68,85.41,8c-1.92.55-3.83,1.14-5.72,1.79L128,68.5c4.74,5.57,6.66,14.2,5.07,22.43,1.61.17,3.21.38,4.8.64C139.69,81.3,137.24,70.64,131.31,63.68Z"/><path class="cls-3" d="M192.68,125.24a17.82,17.82,0,0,0,4.74,1L207.8,87.44c-.75-3.36-1.57-6.7-2.35-10Z"/><path class="cls-3" d="M172.74,53.92,136.52,9.3a92.22,92.22,0,0,0-9-2.56L169.37,58.5c4.69,5.62,6.48,14.12,4.68,22.23l-5.3,23.89c1.42,1,2.83,2.15,4.22,3.31l5.73-25.74C181,71.88,178.72,61.08,172.74,53.92Z"/></svg>
