<svg id="Layer_1" data-name="Layer 1" xmlns="http://www.w3.org/2000/svg" viewBox="0 0 212.6 212.6"><defs><style>.cls-1{fill:#fff;}.cls-2{fill:#cf5967;}.cls-3{fill:#ee7489;}</style></defs><title>nigiri_icon</title><path class="cls-1" d="M208.23,103.74c2.42,54.63-42.8,100.23-101,101.85S1.11,165.31.19,112s44.3-98.88,101-101.84S205.82,49.11,208.23,103.74Z"/><path class="cls-2" d="M136.52,11.49l36.22,42.73c6,6.86,8.26,17.21,6,27.08L173,106a91.21,91.21,0,0,1,13.23,13.16,25.84,25.84,0,0,0,6.48,3.41l12.77-45.79c-.62-2.49-1.22-5-1.75-7.44a24.62,24.62,0,0,0-4-9.16C183.11,36.92,161.13,19.34,136.52,11.49Z"/><path class="cls-2" d="M128,68.18,79.69,11.93a120.51,120.51,0,0,0-34,17.78L86,71.34c5.48,5.49,8.41,13.84,8.3,22.54,13.08-3.72,26.16-5.46,38.77-4.21C134.68,81.78,132.76,73.52,128,68.18Z"/><path class="cls-2" d="M169.37,58.61,127.51,9a86,86,0,0,0-39,.34c-1,.25-2.06.56-3.09.84l45.9,53.36c5.93,6.66,8.38,16.87,6.58,26.71a72.4,72.4,0,0,1,30.86,12.49l5.3-22.88C175.85,72.14,174.06,64,169.37,58.61Z"/><path class="cls-2" d="M207.8,86.32l-10.38,37.17a1.68,1.68,0,0,0,.39,0,21,21,0,0,0,7.31-4.33c3.78-3.48,4.46-8.53,4.29-13.59C209.21,99.08,209.29,92.73,207.8,86.32Z"/><path class="cls-2" d="M40.49,87.3l-26.72-24q-3,4.38-5.76,9a11.43,11.43,0,0,0-.93,1.93c-4.25,11.58-4.94,24-3.91,36.46,2.64,7.73,7.52,13.91,14.25,16.28l1.71.63a20.88,20.88,0,0,0,13.24-3.56c4.62-3,9.36-5.93,14.18-8.77L46.9,114C49.61,104,47,93,40.49,87.3Z"/><path class="cls-2" d="M83,76.36,41.13,33.22A143.37,143.37,0,0,0,17.24,58.46l26,23.43c7.44,6.56,10.89,18.51,9,30.14A215.65,215.65,0,0,1,89.44,95.37C89.86,88.06,87.54,80.93,83,76.36Z"/><path class="cls-3" d="M43.28,81.89l-26-23.43q-1.77,2.37-3.47,4.83l26.72,24C47,93,49.61,104,46.9,114l-.35,1.29q2.84-1.67,5.71-3.27C54.17,100.4,50.72,88.45,43.28,81.89Z"/><path class="cls-3" d="M86,71.34,45.65,29.71q-2.3,1.7-4.52,3.51L83,76.36c4.57,4.57,6.89,11.7,6.47,19q2.43-.8,4.88-1.49C94.43,85.18,91.5,76.83,86,71.34Z"/><path class="cls-3" d="M131.31,63.58,85.41,10.22q-2.88.78-5.72,1.71L128,68.18c4.74,5.34,6.66,13.6,5.07,21.49,1.61.16,3.21.36,4.8.62C139.69,80.45,137.24,70.24,131.31,63.58Z"/><path class="cls-3" d="M192.68,122.52a17.76,17.76,0,0,0,4.74,1L207.8,86.32c-.75-3.21-1.57-6.41-2.35-9.59Z"/><path class="cls-3" d="M172.74,54.22,136.52,11.49q-4.46-1.44-9-2.45l41.86,49.57c4.69,5.38,6.48,13.53,4.68,21.29l-5.3,22.88q2.13,1.48,4.22,3.17L178.7,81.3C181,71.43,178.72,61.08,172.74,54.22Z"/></svg>
