<svg id="Layer_1" data-name="Layer 1" xmlns="http://www.w3.org/2000/svg" viewBox="0 0 208.81 211.96"><defs><style>.cls-1{fill:#fae6e6;}.cls-2{fill:none;stroke:#143b64;stroke-miterlimit:10;stroke-width:9px;}.cls-3{fill:#fae4ce;}.cls-4{fill:#f9f1e7;}.cls-5{fill:#cf5967;}.cls-6{fill:#ee7489;}.cls-7{fill:#ea8891;}.cls-8{fill:#e5b5bf;}</style></defs><title>sashimi_icon</title><ellipse class="cls-1" cx="110.13" cy="102.41" rx="45.63" ry="34.94"/><path class="cls-2" d="M201.17,100.43c2.25,53.33-39.8,97.83-93.9,99.4S8.61,160.53,7.76,108.52,48.94,12,101.66,9.12,198.92,47.11,201.17,100.43Z"/><path class="cls-3" d="M14.76,156.36l5-55.86c.69-9.09,6.45-18.14,15.09-23.68L56.41,63a90.8,90.8,0,0,1,.09-18.63,25,25,0,0,0-2.12-6.94L12.85,61.65c-1.34,2.23-2.69,4.44-4.07,6.59a25.47,25.47,0,0,0-3.71,9.37C.19,105.83,3.1,133.71,14.76,156.36Z"/><path class="cls-3" d="M61.06,121.28l-6.14,74a118,118,0,0,0,36.51,10.66L92.75,148c.06-7.75,3.94-15.8,10.21-22-11.81-6.34-22.22-14.12-30.17-23.73C66.06,106.85,61.53,114.15,61.06,121.28Z"/><path class="cls-3" d="M25.25,99.65l-5.91,64.7A82.15,82.15,0,0,0,46.93,191c.91.53,1.84,1,2.76,1.52l5.78-70.23c.58-8.9,6.13-18,14.39-23.83A70.15,70.15,0,0,1,57.12,68.17L37.12,81C30.33,85.4,25.79,92.52,25.25,99.65Z"/><path class="cls-3" d="M18,53.1,51.75,33.42a1.5,1.5,0,0,0-.29-.27,20.52,20.52,0,0,0-8.2-1.91c-5.13-.1-9.19,3.09-12.68,6.85C26.12,42.91,21.54,47.44,18,53.1Z"/><path class="cls-3" d="M136,167.89l1.66,35.79q5.2-1.1,10.46-2.55a10.9,10.9,0,0,0,2-.76c11.23-5.43,20.54-13.91,28.7-23.63,3.64-7.42,4.61-15.25,1.58-21.6-.26-.54-.5-1.09-.75-1.64a20.12,20.12,0,0,0-11.82-6.57c-5.36-1-10.78-2.17-16.18-3.45l-1.16.69C141.48,149.56,135.53,159.29,136,167.89Z"/><path class="cls-3" d="M98.45,146.47,97.1,206.52a144,144,0,0,0,34.71-1.75l-1.59-34.9c-.56-9.87,5.53-20.88,15.15-28a209,209,0,0,1-37.92-13.63C102,133.27,98.5,140,98.45,146.47Z"/><path class="cls-4" d="M130.22,169.87l1.59,34.9c1.95-.33,3.9-.68,5.87-1.09L136,167.89c-.49-8.6,5.46-18.33,14.51-23.72l1.16-.69c-2.11-.51-4.22-1-6.32-1.58C135.75,149,129.66,160,130.22,169.87Z"/><path class="cls-4" d="M92.75,148l-1.32,57.95c1.88.23,3.76.43,5.67.58l1.35-60.05c0-6.46,3.5-13.2,9-18.2-1.52-.74-3-1.5-4.49-2.29C96.69,132.19,92.81,140.24,92.75,148Z"/><path class="cls-4" d="M55.47,122.33l-5.78,70.23q2.58,1.42,5.23,2.72l6.14-74c.47-7.13,5-14.43,11.73-19q-1.53-1.83-2.93-3.75C61.6,104.36,56.05,113.43,55.47,122.33Z"/><path class="cls-4" d="M54.38,37.39a17,17,0,0,0-2.63-4L18,53.1c-1.76,2.84-3.47,5.71-5.18,8.55Z"/><path class="cls-4" d="M19.77,100.5l-5,55.86a91.23,91.23,0,0,0,4.58,8l5.91-64.7C25.79,92.52,30.33,85.4,37.12,81l20-12.87c-.29-1.7-.53-3.44-.71-5.21L34.86,76.82C26.22,82.36,20.46,91.41,19.77,100.5Z"/><path class="cls-5" d="M133.41,6.92l36,43c5.94,6.91,8.26,17.39,6.07,27.41l-5.44,25a90.34,90.34,0,0,1,13.11,13.24,25.28,25.28,0,0,0,6.41,3.41l12.21-46.53c-.63-2.52-1.24-5-1.78-7.53a25.38,25.38,0,0,0-4-9.25C179.44,32.34,157.68,14.69,133.41,6.92Z"/><path class="cls-5" d="M125.48,64.46,77.49,7.8A117.77,117.77,0,0,0,44.14,26.08L84.19,68c5.43,5.52,8.38,14,8.33,22.79,12.84-3.87,25.7-5.74,38.12-4.56C132.14,78.2,130.19,69.83,125.48,64.46Z"/><path class="cls-5" d="M166.1,54.44,124.52,4.5a82.33,82.33,0,0,0-38.38.64c-1,.26-2,.58-3,.87l45.57,53.75c5.89,6.71,8.38,17.05,6.68,27a70.27,70.27,0,0,1,30.46,12.43l5-23.23C172.58,68.1,170.75,59.86,166.1,54.44Z"/><path class="cls-5" d="M204.11,82.24,194.19,120a1.7,1.7,0,0,0,.39,0,20.59,20.59,0,0,0,7.15-4.45c3.7-3.55,4.32-8.68,4.12-13.81C205.6,95.17,205.63,88.72,204.11,82.24Z"/><path class="cls-5" d="M39.52,84.51,13,60.37q-2.91,4.47-5.6,9.2a12.06,12.06,0,0,0-.9,2C2.45,83.32,1.86,95.9,3,108.54c2.66,7.82,7.51,14,14.15,16.4l1.69.62a20.09,20.09,0,0,0,13-3.71c4.52-3.06,9.16-6.08,13.88-9l.33-1.31C48.61,101.33,45.94,90.24,39.52,84.51Z"/><path class="cls-5" d="M81.23,73.09,39.73,29.67A144,144,0,0,0,16.41,55.45L42.22,79c7.37,6.58,10.85,18.67,9.06,30.49A207.9,207.9,0,0,1,87.73,92.32C88.09,84.9,85.76,77.69,81.23,73.09Z"/><path class="cls-6" d="M42.22,79,16.41,55.45c-1.14,1.61-2.28,3.24-3.37,4.92L39.52,84.51c6.42,5.73,9.09,16.82,6.5,27l-.33,1.31c1.85-1.13,3.72-2.25,5.59-3.35C53.07,97.68,49.59,85.59,42.22,79Z"/><path class="cls-6" d="M84.19,68l-40-41.9c-1.49,1.16-3,2.35-4.41,3.59l41.5,43.42c4.53,4.6,6.86,11.81,6.5,19.23q2.4-.82,4.79-1.55C92.57,81.94,89.62,73.5,84.19,68Z"/><path class="cls-6" d="M128.68,59.76,83.11,6c-1.89.55-3.76,1.14-5.62,1.79l48,56.66c4.71,5.37,6.66,13.74,5.16,21.75,1.58.14,3.16.34,4.72.58C137.06,76.81,134.57,66.47,128.68,59.76Z"/><path class="cls-6" d="M189.52,119.06a17.71,17.71,0,0,0,4.67,1l9.92-37.77c-.76-3.25-1.58-6.49-2.38-9.71Z"/><path class="cls-6" d="M169.37,50l-36-43a89.18,89.18,0,0,0-8.89-2.42L166.1,54.44c4.65,5.42,6.48,13.66,4.76,21.55l-5,23.23c1.41,1,2.8,2.07,4.18,3.19l5.44-25C177.63,67.35,175.31,56.87,169.37,50Z"/><path class="cls-7" d="M155.75,197.46l-55.86-5c-9.08-.69-18.14-6.45-23.68-15.08L62.36,155.81a90.2,90.2,0,0,1-18.64-.09,25.37,25.37,0,0,0-6.94,2.12l24.27,41.53c2.22,1.34,4.43,2.69,6.58,4.07A25.54,25.54,0,0,0,77,207.15C105.23,212,133.1,209.13,155.75,197.46Z"/><path class="cls-7" d="M120.67,151.17l74,6.13a117.76,117.76,0,0,0,10.66-36.51l-58-1.31c-7.75-.07-15.8-4-22-10.22-6.34,11.81-14.11,22.22-23.72,30.18C106.25,146.16,113.54,150.7,120.67,151.17Z"/><path class="cls-7" d="M99,187l64.7,5.92a82.28,82.28,0,0,0,26.69-27.6c.54-.9,1-1.84,1.53-2.76l-70.23-5.78c-8.91-.58-18-6.13-23.84-14.39a70.3,70.3,0,0,1-30.32,12.75l12.86,20C84.79,181.89,91.91,186.43,99,187Z"/><path class="cls-7" d="M52.49,194.19,32.81,160.47a1.42,1.42,0,0,0-.26.29,20.7,20.7,0,0,0-1.92,8.2c-.1,5.13,3.09,9.2,6.85,12.68C42.31,186.1,46.84,190.69,52.49,194.19Z"/><path class="cls-7" d="M167.28,76.2l35.79-1.65q-1.09-5.22-2.55-10.47a12.27,12.27,0,0,0-.75-2c-5.44-11.23-13.92-20.53-23.64-28.69-7.41-3.65-15.24-4.62-21.6-1.59-.54.26-1.09.5-1.63.75a20.14,20.14,0,0,0-6.58,11.82c-1,5.36-2.17,10.78-3.45,16.18l.69,1.16C149,70.74,158.69,76.69,167.28,76.2Z"/><path class="cls-7" d="M145.86,113.77l60,1.36a144.48,144.48,0,0,0-1.74-34.71L169.26,82c-9.87.56-20.88-5.53-28-15.14a208.48,208.48,0,0,1-13.63,37.92C132.66,110.27,139.4,113.72,145.86,113.77Z"/><path class="cls-8" d="M169.26,82l34.91-1.58c-.34-2-.69-3.91-1.1-5.87L167.28,76.2c-8.59.49-18.33-5.46-23.72-14.51l-.69-1.16q-.75,3.16-1.58,6.33C148.38,76.47,159.39,82.56,169.26,82Z"/><path class="cls-8" d="M147.38,119.48l58,1.31c.23-1.88.43-3.76.58-5.66l-60-1.36c-6.46,0-13.2-3.5-18.2-9-.74,1.51-1.5,3-2.29,4.48C131.58,115.53,139.63,119.41,147.38,119.48Z"/><path class="cls-8" d="M121.73,156.75,192,162.53q1.42-2.58,2.71-5.23l-74-6.13c-7.13-.47-14.42-5-19-11.73-1.23,1-2.48,2-3.76,2.92C103.75,150.62,112.82,156.17,121.73,156.75Z"/><path class="cls-8" d="M36.78,157.84a17.55,17.55,0,0,0-4,2.63l19.68,33.72c2.84,1.76,5.72,3.47,8.56,5.18Z"/><path class="cls-8" d="M99.89,192.45l55.86,5a89.7,89.7,0,0,0,8-4.57L99,187c-7.13-.54-14.25-5.08-18.61-11.87l-12.86-20c-1.71.29-3.44.52-5.21.7l13.85,21.56C81.75,186,90.81,191.76,99.89,192.45Z"/></svg>
