<svg id="Layer_1" data-name="Layer 1" xmlns="http://www.w3.org/2000/svg" viewBox="0 0 212.6 212.6"><defs><style>.cls-1{fill:#fff;}.cls-2{fill:#adbda3;}.cls-3{fill:#59827e;}.cls-4{fill:#cf5967;}.cls-5{fill:#ee7489;}.cls-6{fill:none;stroke:#143b64;stroke-miterlimit:10;stroke-width:5px;}.cls-7{fill:#e5b5bf;}</style></defs><title>uramaki_icon</title><path class="cls-1" d="M204.17,101.13C206.47,155.76,163.39,201.35,108,203S6.88,162.7,6,109.41,48.2,10.53,102.21,7.57,201.86,46.5,204.17,101.13Z"/><path class="cls-2" d="M104.21,89.64c11.41-14.55,16.93-30,19.36-46.57a7,7,0,0,0-6-8,82.77,82.77,0,0,0-9.5-.59A74.42,74.42,0,0,0,35.26,93.29a18,18,0,0,0,17.12,21.8C70.41,115.38,91.52,105.84,104.21,89.64Z"/><path class="cls-3" d="M140.3,41.84a11,11,0,0,0-15.22,6.83c-5.23,17.45-11.61,35.79-3.76,53.81,7.45,17.07,25.19,27.06,43,34.77a11,11,0,0,0,14.92-7,74.44,74.44,0,0,0-39-88.41Z"/><path class="cls-4" d="M60.2,141.22,72,114.87a73.37,73.37,0,0,1-16.34,3.47L43.1,143.08c8,15.61,21.06,28.39,37,35.11L61.85,154.75A13.19,13.19,0,0,1,60.2,141.22Z"/><path class="cls-4" d="M111.47,140.09l14.31-25.85a70.59,70.59,0,0,1-7.66-10.74c-1.83-3.24-5.45-4.75-9.13-4.64l-21.45,42.6a10.4,10.4,0,0,0,1.22,11.22l24.56,30.17a83.17,83.17,0,0,0,21-4.9l-20.9-22.43A13.18,13.18,0,0,1,111.47,140.09Z"/><path class="cls-4" d="M85,140.18l20.48-40.7a13.72,13.72,0,0,0-1.5.59l-14.11,6.74a101.79,101.79,0,0,1-14.19,6.75L62.81,142.38A10.36,10.36,0,0,0,64.1,153l21.13,27.09A64.66,64.66,0,0,0,108,183.24c.62,0,1.23-.07,1.85-.11L86.55,154.48A13.22,13.22,0,0,1,85,140.18Z"/><path class="cls-4" d="M41.06,138.83l.48,1L52.3,118.6C42.84,119.33,37.19,130.06,41.06,138.83Z"/><path class="cls-4" d="M140.8,153.15l14.07,13.18c1.77-1.41,3.48-2.89,5.12-4.46,7.18-6.87,5.57-19.19-3.4-23.46a85.76,85.76,0,0,1-12.67-7.51l-5.2,9.82A10.37,10.37,0,0,0,140.8,153.15Z"/><path class="cls-4" d="M136.2,139.38l5.4-10.2a101.14,101.14,0,0,1-13.82-12.66l-13.82,25a10.37,10.37,0,0,0,1.49,12.11l21.67,23.23a76.45,76.45,0,0,0,15.44-8.73l-13.71-12.84A13.27,13.27,0,0,1,136.2,139.38Z"/><path class="cls-5" d="M140.8,153.15a10.37,10.37,0,0,1-2.08-12.43l5.2-9.82c-.79-.56-1.55-1.14-2.32-1.72l-5.4,10.2a13.27,13.27,0,0,0,2.65,15.86l13.71,12.84c.78-.57,1.55-1.15,2.31-1.75Z"/><path class="cls-5" d="M114,141.47l13.82-25c-.69-.76-1.36-1.52-2-2.28l-14.31,25.85a13.18,13.18,0,0,0,1.9,15.43L134.27,178c1-.37,1.91-.74,2.85-1.14l-21.67-23.23A10.37,10.37,0,0,1,114,141.47Z"/><path class="cls-5" d="M87.54,141.46,109,98.86a12.82,12.82,0,0,0-3.51.62L85,140.18a13.22,13.22,0,0,0,1.55,14.3l23.32,28.65c1.16-.07,2.31-.17,3.45-.28L88.76,152.68A10.4,10.4,0,0,1,87.54,141.46Z"/><path class="cls-5" d="M52.72,118.55l-.42,0L41.54,139.86c.5,1.08,1,2.16,1.56,3.22l12.53-24.74C54.66,118.43,53.69,118.51,52.72,118.55Z"/><path class="cls-5" d="M62.81,142.38l12.87-28.82c-1.24.47-2.47.9-3.71,1.31L60.2,141.22a13.19,13.19,0,0,0,1.65,13.53l18.28,23.44q2.5,1,5.1,1.9L64.1,153A10.36,10.36,0,0,1,62.81,142.38Z"/><path class="cls-6" d="M183.48,105.55c1.76,41.84-31.23,76.77-73.7,78s-77.43-30.85-78.1-71.67,32.33-75.74,73.7-78S181.72,63.7,183.48,105.55Z"/><path class="cls-4" d="M109.84,13a91.33,91.33,0,0,1,20.67,2.58,13.21,13.21,0,0,1,4.58-8.14,101.07,101.07,0,0,0-23.27-3.42A10.36,10.36,0,0,0,109.84,13Z"/><path class="cls-4" d="M85.69,15.85a96.59,96.59,0,0,1,17.94-2.71c1.1-.06,2.19-.09,3.28-.11a13.28,13.28,0,0,1,1.48-9c-1.74,0-3.49.06-5.25.16A104.9,104.9,0,0,0,86.7,6.38,10.33,10.33,0,0,0,85.69,15.85Z"/><path class="cls-4" d="M174.28,40.6a92.76,92.76,0,0,1,11.88,14.89,13.25,13.25,0,0,1,8.16-4,100.83,100.83,0,0,0-12-15.53l-3.87,1.53A10.39,10.39,0,0,0,174.28,40.6Z"/><path class="cls-4" d="M133.29,16.32a90.6,90.6,0,0,1,19.59,8A13.23,13.23,0,0,1,159.7,19l1.2-.41a99.92,99.92,0,0,0-22.27-10A10.37,10.37,0,0,0,133.29,16.32Z"/><path class="cls-4" d="M187.74,58a92.81,92.81,0,0,1,9.83,23.17,13.2,13.2,0,0,1,7.74-5.62A102,102,0,0,0,196,54.27l-1,.07A10.38,10.38,0,0,0,187.74,58Z"/><path class="cls-4" d="M155.37,25.74a93,93,0,0,1,15,11.06c.64.59,1.27,1.18,1.89,1.78a13.09,13.09,0,0,1,5.19-3.69l2.78-1.1c-1.23-1.25-2.51-2.46-3.81-3.65A103.18,103.18,0,0,0,164,20.51l-3.35,1.15A10.35,10.35,0,0,0,155.37,25.74Z"/><path class="cls-4" d="M199.35,83.82l-.75,1.54a96.91,96.91,0,0,1,2.25,17c.06,1.53.09,3.06.08,4.58a13.17,13.17,0,0,1,9,1.88c0-2.27,0-4.55-.06-6.84a105.21,105.21,0,0,0-3.72-23.7A10.39,10.39,0,0,0,199.35,83.82Z"/><path class="cls-4" d="M61.66,25.37a97,97,0,0,1,21.25-8.79A13.26,13.26,0,0,1,83,7.23a106.12,106.12,0,0,0-22.43,8.51A10.35,10.35,0,0,0,61.66,25.37Z"/><path class="cls-4" d="M31.33,51.65a99.5,99.5,0,0,1,12-13.06,13.12,13.12,0,0,1-5.6-7,108.11,108.11,0,0,0-14.58,16A10.34,10.34,0,0,0,31.33,51.65Z"/><path class="cls-4" d="M8.14,95.54,12.73,95a92.93,92.93,0,0,1,5.64-20.59l-1.4.19a13.25,13.25,0,0,1-7.79-1.34A102,102,0,0,0,3.64,95,10.47,10.47,0,0,0,8.14,95.54Z"/><path class="cls-4" d="M16.59,71.78l3.06-.41a96.59,96.59,0,0,1,9.69-17A13.2,13.2,0,0,1,21.43,50,106.09,106.09,0,0,0,10.22,70.6,10.34,10.34,0,0,0,16.59,71.78Z"/><path class="cls-4" d="M122,198.31A98.94,98.94,0,0,1,109,199.55a100.58,100.58,0,0,1-20.25-1.45,13.25,13.25,0,0,1-6.65,7.6l-.36.18A108.83,108.83,0,0,0,106,208.59c1.09,0,2.19,0,3.28,0,3.3-.1,6.58-.35,9.81-.74l.19-.19A10.34,10.34,0,0,0,122,198.31Z"/><path class="cls-4" d="M149.28,189.51a94.59,94.59,0,0,1-24.5,8.3,13.22,13.22,0,0,1-1.65,9.43,104,104,0,0,0,30.46-9.81A10.36,10.36,0,0,0,149.28,189.51Z"/><path class="cls-4" d="M85.91,197.56a95.6,95.6,0,0,1-25.55-9.14,13.2,13.2,0,0,1-7.66,6A103.37,103.37,0,0,0,77.49,204.8l3.35-1.66A10.32,10.32,0,0,0,85.91,197.56Z"/><path class="cls-4" d="M178.81,166.36c-.88,1-1.79,2.06-2.73,3.07a94.41,94.41,0,0,1-24,18.65,13.21,13.21,0,0,1,4.26,7.93,103.34,103.34,0,0,0,26.36-20.45c.24-.26.48-.54.72-.81A10.36,10.36,0,0,0,178.81,166.36Z"/><path class="cls-4" d="M200.86,109.89a91.6,91.6,0,0,1-5.34,27.67,13.25,13.25,0,0,1,7.7,5.15,100.75,100.75,0,0,0,6.55-30.45l-.77-.56A10.35,10.35,0,0,0,200.86,109.89Z"/><path class="cls-4" d="M194.5,140.26a92.09,92.09,0,0,1-13.87,23.88,13.24,13.24,0,0,1,5.27,7.77,101.42,101.42,0,0,0,16-25.86A10.35,10.35,0,0,0,194.5,140.26Z"/><path class="cls-4" d="M20.62,147.7A87.92,87.92,0,0,1,13,124.41a13.18,13.18,0,0,1-8.7,2.53A96.59,96.59,0,0,0,12,150.58l1.28,0A10.35,10.35,0,0,0,20.62,147.7Z"/><path class="cls-4" d="M12.52,121.09a89.76,89.76,0,0,1-.84-10.67,92.31,92.31,0,0,1,.65-12.49l-3.86.44a13.21,13.21,0,0,1-5.18-.44,99.93,99.93,0,0,0-.61,12.64A98.41,98.41,0,0,0,3.84,124,10.32,10.32,0,0,0,12.52,121.09Z"/><path class="cls-4" d="M34.81,168.54A89.6,89.6,0,0,1,22,150.34a13.17,13.17,0,0,1-8.56,3.11,98.18,98.18,0,0,0,11.19,17.07l4.62-.14A10.27,10.27,0,0,0,34.81,168.54Z"/><path class="cls-4" d="M57.86,187a94.6,94.6,0,0,1-18.48-13.77c-.89-.85-1.75-1.73-2.6-2.61a13.16,13.16,0,0,1-7.46,2.57L27,173.3q2.93,3.34,6.19,6.47a103.72,103.72,0,0,0,16.2,12.66l2.32-.65A10.34,10.34,0,0,0,57.86,187Z"/><path class="cls-4" d="M45.59,36.59a99.88,99.88,0,0,1,13.6-9.8,13.11,13.11,0,0,1-2-9.2A107.68,107.68,0,0,0,40.11,29.47,10.35,10.35,0,0,0,45.59,36.59Z"/><path class="cls-5" d="M29.34,54.35c.65-.91,1.31-1.81,2-2.7a10.34,10.34,0,0,1-8.18-4c-.58.79-1.15,1.59-1.72,2.4A13.2,13.2,0,0,0,29.34,54.35Z"/><path class="cls-5" d="M43.33,38.59c.74-.67,1.5-1.34,2.26-2a10.35,10.35,0,0,1-5.48-7.12c-.8.69-1.6,1.38-2.38,2.09A13.12,13.12,0,0,0,43.33,38.59Z"/><path class="cls-5" d="M17,74.61l1.4-.19c.41-1,.84-2,1.28-3l-3.06.41a10.34,10.34,0,0,1-6.37-1.18c-.36.88-.7,1.77-1,2.67A13.25,13.25,0,0,0,17,74.61Z"/><path class="cls-5" d="M8.47,98.37l3.86-.44c.12-1,.25-2,.4-2.92l-4.59.53a10.47,10.47,0,0,1-4.5-.5c-.13,1-.25,1.92-.35,2.89A13.21,13.21,0,0,0,8.47,98.37Z"/><path class="cls-5" d="M59.19,26.79c.81-.48,1.64-1,2.47-1.42a10.35,10.35,0,0,1-1-9.63c-1.16.6-2.31,1.21-3.44,1.85A13.11,13.11,0,0,0,59.19,26.79Z"/><path class="cls-5" d="M200.93,107c0,1,0,1.94-.07,2.91A10.35,10.35,0,0,1,209,111.7l.77.56c.06-1.13.1-2.26.13-3.4A13.17,13.17,0,0,0,200.93,107Z"/><path class="cls-5" d="M130.51,15.61c.93.22,1.86.46,2.78.71a10.37,10.37,0,0,1,5.34-7.82c-1.18-.36-2.36-.71-3.54-1A13.21,13.21,0,0,0,130.51,15.61Z"/><path class="cls-5" d="M106.91,13l1.88,0,1,0a10.36,10.36,0,0,1,2-9c-1.14,0-2.29,0-3.43,0A13.28,13.28,0,0,0,106.91,13Z"/><path class="cls-5" d="M82.91,16.58c.92-.26,1.85-.5,2.78-.73a10.33,10.33,0,0,1,1-9.47c-1.23.26-2.45.55-3.66.85A13.26,13.26,0,0,0,82.91,16.58Z"/><path class="cls-5" d="M13,124.41c-.19-1.1-.35-2.21-.51-3.32A10.32,10.32,0,0,1,3.84,124c.15,1,.31,2,.49,2.92A13.18,13.18,0,0,0,13,124.41Z"/><path class="cls-5" d="M20.62,147.7a10.35,10.35,0,0,1-7.34,2.9l-1.28,0c.46,1,.93,1.92,1.42,2.87A13.17,13.17,0,0,0,22,150.34C21.52,149.47,21.06,148.59,20.62,147.7Z"/><path class="cls-5" d="M36.78,170.66c-.67-.69-1.32-1.4-2-2.12a10.27,10.27,0,0,1-5.58,1.84l-4.62.14c.76.94,1.55,1.86,2.36,2.78l2.35-.07A13.16,13.16,0,0,0,36.78,170.66Z"/><path class="cls-5" d="M60.36,188.42c-.84-.45-1.67-.91-2.5-1.38a10.34,10.34,0,0,1-6.18,4.74l-2.32.65c1.1.7,2.21,1.37,3.34,2A13.2,13.2,0,0,0,60.36,188.42Z"/><path class="cls-5" d="M88.76,198.1c-1-.17-1.9-.34-2.85-.54a10.32,10.32,0,0,1-5.07,5.58l-3.35,1.66q2.12.58,4.26,1.08l.36-.18A13.25,13.25,0,0,0,88.76,198.1Z"/><path class="cls-5" d="M124.78,197.81c-.93.18-1.87.35-2.82.5a10.34,10.34,0,0,1-2.69,9.31l-.19.19q2-.24,4-.57A13.22,13.22,0,0,0,124.78,197.81Z"/><path class="cls-5" d="M152.05,188.08c-.92.49-1.84,1-2.77,1.43a10.36,10.36,0,0,1,4.31,7.92c.91-.46,1.82-.93,2.72-1.42A13.21,13.21,0,0,0,152.05,188.08Z"/><path class="cls-7" d="M117.77,176.28l.15.06,0-.16Z"/><path class="cls-5" d="M180.63,164.14c-.6.75-1.2,1.49-1.82,2.22a10.36,10.36,0,0,1,4.58,8.39c.86-.94,1.7-1.88,2.51-2.84A13.24,13.24,0,0,0,180.63,164.14Z"/><path class="cls-5" d="M195.52,137.56c-.32.91-.67,1.81-1,2.7a10.35,10.35,0,0,1,7.37,5.79c.47-1.1.92-2.22,1.35-3.34A13.25,13.25,0,0,0,195.52,137.56Z"/><path class="cls-5" d="M197.57,81.2c.38,1.38.72,2.76,1,4.16l.75-1.54a10.39,10.39,0,0,1,6.77-5.5c-.26-.92-.53-1.83-.81-2.74A13.2,13.2,0,0,0,197.57,81.2Z"/><path class="cls-5" d="M186.16,55.49c.54.84,1.07,1.69,1.58,2.54a10.38,10.38,0,0,1,7.19-3.69l1-.07c-.54-.92-1.08-1.83-1.65-2.73A13.25,13.25,0,0,0,186.16,55.49Z"/><path class="cls-5" d="M172.23,38.58c.7.66,1.38,1.34,2.05,2a10.39,10.39,0,0,1,4.19-3.06L182.34,36c-.7-.75-1.41-1.49-2.14-2.22l-2.78,1.1A13.09,13.09,0,0,0,172.23,38.58Z"/><path class="cls-5" d="M152.88,24.31c.83.46,1.67.94,2.49,1.43a10.35,10.35,0,0,1,5.26-4.08L164,20.51c-1-.67-2-1.33-3.08-2l-1.2.41A13.23,13.23,0,0,0,152.88,24.31Z"/></svg>
